<?xml version="1.0" encoding="utf-8"?>
<!-- Generator: Adobe Illustrator 19.0.0, SVG Export Plug-In . SVG Version: 6.00 Build 0)  -->
<svg version="1.1" id="Layer_1" xmlns="http://www.w3.org/2000/svg" xmlns:xlink="http://www.w3.org/1999/xlink" x="0px" y="0px"
	 viewBox="0 0 706.6 680" style="enable-background:new 0 0 706.6 680;" xml:space="preserve">
<style type="text/css">
	.st0{opacity:0.5;fill:#FFFFFF;}
	.st1{fill:url(#XMLID_28_);}
	.st2{fill:#FBC5AE;}
	.st3{fill:#753F66;}
	.st4{fill:#753F67;}
</style>
<g id="XMLID_2_">
	<path id="XMLID_8_" class="st0" d="M335.8,680c-47.4,0-94.5-6.9-136.5-19.9c-49.9-15.5-90.3-38.9-120.1-69.4
		c-29.5-30.3-51-68.4-63.8-113.4C5,440.8,0,399,0,349.6c0-51.3,11.9-104.8,34.4-155C57,144.4,88.6,101,126,69.2
		c27.6-23.5,58.9-41.3,92.9-52.7C251.4,5.5,287.5,0,326.2,0c21.2,0,46.9,5.3,67.6,9.6c2.9,0.6,5.6,1.2,8.3,1.7
		c76.4,15.4,152.5,56.5,208.7,112.9c61.8,62,95.8,137.9,95.8,213.7c0,45-11.2,89.7-33.2,132.7c-20.4,39.8-49,76.2-85,108.2
		C515.9,643.1,423.8,680,335.8,680z"/>
	<linearGradient id="XMLID_28_" gradientUnits="userSpaceOnUse" x1="270.1882" y1="661.3114" x2="413.9248" y2="103.4233">
		<stop  offset="0" style="stop-color:#62C3A7"/>
		<stop  offset="1" style="stop-color:#753F67"/>
	</linearGradient>
	<path id="XMLID_7_" class="st1" d="M641.3,338.1c0,148-155.7,278.1-303.8,278.1c-74,0-159.7-20.4-209.5-71.4S65.2,422.6,65.2,348.6
		c0-85.6,41.3-177.1,102.8-229.5c44.9-38.2,98.5-55.2,160.9-55.2c18.5,0,44.3,5.9,62.4,9.5C518,98.8,641.3,208.6,641.3,338.1z"/>
</g>
<path id="XMLID_9_" class="st2" d="M505.6,326.7c-8,0-15.2,2.8-20.8,7.4C479,256,415.6,194.5,338.1,194.5
	c-73.1,0-133.7,54.8-145.2,126.6c-4.5-1.8-9.6-2.7-14.9-2.7c-19,0-34.4,12.5-34.4,27.9c0,15.4,15.4,27.9,34.4,27.9
	c3.6,0,7-0.4,10.3-1.3c-1.8,13.6-3.1,26.6,2.6,38.7c23.8,50.7,88.8,85.6,147.1,85.6c61,0,130-47.1,152.3-101.6
	c1.6-3.8,2.2-7.3,2.3-10.6c3.9,1.7,8.3,2.6,12.9,2.6c17.6,0,31.8-13.7,31.8-30.5C537.5,340.4,523.2,326.7,505.6,326.7z"/>
<g id="XMLID_21_">
	<path id="XMLID_6_" class="st3" d="M538.7,328.1c-9.9-11.3-26.2-18.7-41.2-16c4.2,2.4,8.5,4.8,12.7,7.2
		c-9.3-58.2-52.6-105.4-105.9-127.8c-13.3-5.6-27-9.1-41.1-12c-8.2-1.7-16.4-3.2-24.7-4.1c-7.8-0.8-15.8-0.5-23.6,0
		c-15.9,1.1-31.8,3.8-46.7,9.4c-15.4,5.8-29.3,14.2-41.6,25.1c-27.7,24.6-46.8,59.1-56.1,94.8c4.2-2.4,8.5-4.8,12.7-7.2
		c-22.1-7.1-45.4,7.5-55.4,27.1c-10.6,20.9-4.2,47.5,16.2,59.8c9.3,5.6,21.7,9.3,32.7,8.5c-3.5-3.5-6.9-6.9-10.4-10.4
		c3.9,32.8,14.4,64.8,37.4,89.2c21,22.3,50.2,36.7,79.5,44.7c29.2,8,60.2,10,89.7,2.6c28.4-7,54.6-21.9,76.4-41.3
		c24.8-22.1,43.8-50.6,54.4-82c-4.2,2.4-8.5,4.8-12.7,7.2c9.9,2.4,19.9,3.1,29.4-1.2c8-3.7,14.5-10.7,19.1-18
		C550.1,367.2,551.5,344,538.7,328.1c-3.4-4.2-11.1-3.8-14.7,0c-4.1,4.5-3.7,10.1,0,14.7c-1-1.2,0.6,1,0.8,1.3
		c0.2,0.4,1.3,2.7,0.6,1c0.7,1.8,1.1,3.6,1.5,5.5c-0.4-2.2,0,0.4,0.1,1c0.1,0.9,0.1,1.9,0.1,2.8c0,1.6,0.1,3.3,0,5
		c0,0.5-0.1,1-0.1,1.5c0.1-0.4,0.1-0.9,0.2-1.3c0.2,0.5-0.3,1.7-0.4,2.2c-0.3,1.5-0.8,3-1.3,4.5c-0.3,0.8-0.5,1.5-0.8,2.2
		c0.9-2.3,0-0.1-0.3,0.5c-0.8,1.6-1.6,3.1-2.6,4.6c-0.4,0.7-0.9,1.4-1.4,2c-0.2,0.3-0.5,0.7-0.7,1c0.7-0.9,0.9-1.1,0.4-0.5
		c-1.1,1.2-2.1,2.4-3.2,3.5c-0.6,0.5-1.1,1-1.7,1.6c-0.3,0.3-0.6,0.5-0.9,0.7c1-0.8,1.2-0.9,0.6-0.5c-1.3,0.6-2.6,1.6-3.8,2.3
		c-0.3,0.2-0.6,0.3-1,0.5c1.3-0.5,1.5-0.7,0.8-0.4c-0.6,0-1.4,0.4-2,0.6c-2.2,0.7,0.7,0.1,0,0.1c-0.7,0-1.4,0.1-2.1,0.1
		c-1.7,0-3.5-0.2-5.2-0.3c-0.7-0.1-0.6-0.1,0.3,0c-0.5-0.1-1-0.2-1.5-0.3c-1.2-0.2-2.4-0.5-3.6-0.8c-5.7-1.4-10.9,1.8-12.7,7.2
		c-1.1,3.3-2.3,6.5-3.6,9.7c-0.1,0.3-1.3,3-0.3,0.7c-0.2,0.5-0.5,1.1-0.7,1.6c-0.8,1.8-1.7,3.7-2.5,5.5c-2.9,6-6.1,11.8-9.6,17.4
		c-1.8,2.9-3.8,5.8-5.8,8.6c-0.8,1.2-1.7,2.3-2.5,3.5c-0.5,0.7-1,1.4-1.6,2.1c1.5-1.9-0.8,1-1.1,1.3c-4.2,5.2-8.6,10.1-13.3,14.8
		c-4.9,4.9-10,9.5-15.4,13.9c-0.7,0.5-1.4,1.1-2,1.6c1.7-1.3,0.1-0.1-0.3,0.2c-1.3,1-2.5,1.9-3.8,2.8c-2.8,2-5.7,3.9-8.6,5.8
		c-5.8,3.7-11.8,7-18,9.9c-1.4,0.7-2.8,1.3-4.3,1.9c-0.5,0.2-2.3,1-0.3,0.1c-0.8,0.3-1.6,0.7-2.4,1c-3.2,1.3-6.4,2.4-9.6,3.5
		c-6.5,2.1-13.1,3.8-19.8,5c-1.5,0.3-3.1,0.5-4.6,0.8c-0.6,0.1-2.6,0.3-0.2,0c-0.8,0.1-1.7,0.2-2.5,0.3c-3.4,0.4-6.8,0.6-10.2,0.8
		c-7.1,0.3-14.1,0-21.2-0.7c-1.5-0.1-3-0.3-4.5-0.5c-0.3,0-3.3-0.4-0.9-0.1c-0.9-0.1-1.8-0.3-2.7-0.4c-3.7-0.6-7.3-1.2-10.9-2
		c-7.3-1.5-14.5-3.5-21.6-5.8c-3.3-1.1-6.5-2.2-9.7-3.5c-0.9-0.3-1.7-0.7-2.6-1c-0.2-0.1-3.1-1.3-1-0.4c-1.7-0.7-3.4-1.5-5.1-2.3
		c-6.6-3.1-13-6.6-19.2-10.5c-2.8-1.7-5.5-3.6-8.1-5.5c-0.7-0.5-1.4-1-2.1-1.6c1.9,1.4-0.4-0.3-0.7-0.5c-1.4-1.1-2.7-2.2-4-3.3
		c-2.8-2.5-5.6-5.1-8.1-7.8c-1.5-1.6-3-3.3-4.4-5c-0.6-0.7-1.2-1.5-1.8-2.2c-0.7-0.9-0.8-1-0.1-0.1c-0.4-0.5-0.7-1-1.1-1.5
		c-4.7-6.5-8.8-13.5-12.1-20.8c-0.4-0.8-0.8-1.7-1.1-2.5c0.9,2-0.2-0.5-0.4-1c-0.8-2-1.6-4.1-2.3-6.1c-1.3-3.8-2.5-7.8-3.5-11.7
		c-1-4-1.9-8-2.7-12.1c-0.4-2.2-0.8-4.4-1.1-6.6c-0.1-1-0.3-1.9-0.4-2.9c0.3,2.3-0.2-1.7-0.3-2.1c-0.6-5.2-4.2-10.8-10.4-10.4
		c-1.7,0.1-3.5,0.1-5.2-0.1c-1.3-0.1-1.8,0.1-0.2,0c-1,0-2.1-0.3-3.1-0.5c-1.9-0.4-3.7-0.8-5.5-1.4c-0.9-0.3-1.9-0.6-2.8-0.9
		c-0.4-0.1-0.8-0.3-1.2-0.5c0.8,0.3,1.1,0.5,0.1,0c-1.8-0.8-3.5-1.8-5.2-2.8c-0.5-0.3-0.9-0.6-1.4-0.9c-0.2-0.1-1.3-0.9-0.3-0.2
		c1,0.8-0.1-0.1-0.2-0.2c-0.5-0.5-1-0.9-1.5-1.4c-0.7-0.7-1.4-1.4-2-2.2c1.1,1.2-0.4-0.6-0.7-1c-0.6-1-1.2-2-1.8-3
		c-0.2-0.4-0.4-0.9-0.7-1.3c0.8,1.5-0.1-0.4-0.3-0.7c-0.7-2-1-4.1-1.4-6.2c0.4,2.5,0-0.1,0-0.7c-0.1-1-0.1-2.1-0.1-3.1
		c0-0.9,0-1.9,0.1-2.8c0-0.3,0.3-1.5,0-0.2c-0.3,1.5,0.1-0.2,0.2-0.6c0.4-1.9,1-3.6,1.6-5.4c0.5-1.4-0.8,1.5-0.1,0.2
		c0.2-0.4,0.4-0.8,0.5-1.1c0.4-0.9,0.9-1.7,1.4-2.6c0.5-0.9,1-1.7,1.6-2.5c0.2-0.4,0.5-0.7,0.7-1c0.9-1.3-1.5,1.8,0.2-0.3
		c1.2-1.4,2.5-2.8,3.8-4.1c0.7-0.7,1.5-1.4,2.2-2c0.3-0.3,0.7-0.5,1-0.8c0.9-0.8-1.4,0.9,0.3-0.2c1.8-1.2,3.7-2.4,5.7-3.4
		c0.4-0.2,0.7-0.3,1.1-0.5c1.3-0.7-2.3,0.8,0.1,0c0.9-0.3,1.7-0.6,2.6-0.8c1-0.3,2-0.4,3-0.7c1.4-0.3-1.9,0-0.5,0.1
		c0.5,0,1-0.1,1.5-0.1c0.7,0,1.4,0,2,0c0.2,0,2.1,0.2,1.4,0.1c-1-0.2,0.8,0.2,0.8,0.2c1.1,0.3,2.1,0.5,3.1,0.9
		c5.3,1.7,11.4-2,12.7-7.2c2-7.7,4.4-15.2,7.3-22.5c0.4-0.9,0.7-1.8,1.1-2.7c1.2-3-0.8,1.8,0.5-1.2c0.8-1.8,1.6-3.6,2.4-5.4
		c1.7-3.6,3.5-7.1,5.4-10.5c3.7-6.8,7.9-13.4,12.5-19.7c0.6-0.8,1.1-1.5,1.7-2.3c1.9-2.5-1.2,1.5,0.7-0.9c1.2-1.5,2.4-3,3.6-4.4
		c2.4-2.9,4.9-5.7,7.5-8.3c2.6-2.6,5.2-5.2,8-7.6c1.2-1,2.3-2,3.5-3c0.7-0.6,1.5-1.2,2.2-1.8c-1.7,1.3,1.3-1,1.6-1.2
		c5.8-4.3,12.1-8,18.6-11.1c0.8-0.4,1.6-0.8,2.4-1.1c0.3-0.1,3-1.3,0.8-0.4c1.5-0.6,3-1.2,4.6-1.8c3.5-1.3,7.1-2.4,10.7-3.4
		c3.2-0.9,6.5-1.6,9.7-2.3c1.8-0.4,3.6-0.7,5.4-1c0.9-0.1,1.8-0.3,2.8-0.4c1.2-0.2,1.2-0.2,0,0c0.6-0.1,1.2-0.2,1.9-0.2
		c7.7-0.9,15.4-1.3,23.2-1.4c3.3,0,6.6,0.1,9.9,0.5c0.9,0.1,1.9,0.2,2.8,0.3c-2.4-0.3,0.8,0.1,1.1,0.2c2.3,0.4,4.5,0.7,6.8,1.2
		c13.8,2.6,27.6,5.4,40.9,10.2c1.3,0.5,2.7,1,4,1.5c0.8,0.3,1.6,0.6,2.4,0.9c0.3,0.1,3,1.3,0.7,0.3c3.2,1.4,6.4,2.9,9.6,4.5
		c5.9,3,11.6,6.2,17.1,9.8c2.8,1.8,5.6,3.7,8.2,5.7c0.7,0.5,1.3,1,2,1.5c2.2,1.7-1.6-1.3,0.5,0.4c1.3,1,2.6,2.1,3.9,3.2
		c5.1,4.3,9.9,8.8,14.5,13.6c2.6,2.8,5.2,5.7,7.6,8.7c0.5,0.6,1,1.3,1.5,1.9c1.7,2.2-1.3-1.7,0.4,0.5c1.2,1.5,2.3,3.1,3.4,4.6
		c4.2,6,8.1,12.4,11.4,19c0.9,1.7,1.7,3.4,2.5,5.2c0.2,0.5,0.5,1,0.7,1.5c0.2,0.4,1.6,3.8,0.6,1.3c1.4,3.6,2.8,7.2,4,10.8
		c2.3,7.1,4,14.4,5.2,21.8c0.9,5.9,7.8,8.2,12.7,7.2c-1.5,0.3,0,0,0.7,0c0.5,0,1.1,0,1.6,0c1.7,0,0.7-0.3-0.2-0.1
		c0.3-0.1,1.2,0.2,1.5,0.3c1.3,0.3,2.7,0.7,4,1.1c0.5,0.2,1.1,0.4,1.6,0.6c-1.4-0.5-0.5-0.2,0.3,0.2c2.4,1.2,4.6,2.7,6.9,4.1
		c1.3,0.8-1.1-1,0,0c0.5,0.5,1.1,0.9,1.6,1.4c1,0.9,2,1.9,2.9,3c3.6,4.1,11,3.9,14.7,0C542.7,338.4,542.5,332.5,538.7,328.1z"/>
</g>
<path id="XMLID_18_" class="st4" d="M382.8,434.6c0,8.2-5,16.6-14,24.5c-7.6,6.6-17.8,13.4-31.2,13.4c-18.3,0-28.7-7.9-36.5-16.6
	c-4.7-5.2-9.5-11.9-9.5-17.6c0-15,17.8-20.3,47.1-20.3S382.8,419.6,382.8,434.6z"/>
<g id="XMLID_17_">
	<path id="XMLID_5_" class="st3" d="M349.6,177.9c-15-0.6-29.1,4.7-40.5,14.3c-10.6,9-17.8,21.8-21.8,35
		c-4.1,13.5-4.8,28.4-1.6,42.2c3.7,15.8,14.4,30.1,28.4,38.2c14.7,8.5,32.2,9.6,47.8,2.8c14-6.1,25.1-18.6,29.8-33
		c4.6-14,1.9-31.3-8.7-42.1c-7.9-8-19.4-12.6-30.5-13.1c-13-0.6-24.4,6-29.4,18.1c-2.9,7.1-3.4,16-0.1,22.9
		c3.9,8.2,12.9,11.6,21.4,12.3c4,0.3,8.2-0.3,12.1-1.2c5.3-1.2,8.9-7.6,7.2-12.7c-1.8-5.5-7.1-8.6-12.7-7.2
		c-0.6,0.1-1.7,0.6-2.3,0.5c2.4,0.3,0.5-0.1-0.4,0c-1.3,0.1-2.6,0-3.8,0c-2.5-0.1,2.2,0.6-0.2,0c-0.7-0.2-1.4-0.4-2-0.5
		c-2.1-0.5,1.2,0.9,0.3,0.1c-0.3-0.1-0.6-0.3-0.9-0.5c-0.9-0.6-0.7-0.4,0.5,0.5c0,0-1.3-1.3-1.3-1.3c0.3,0.4,0.6,0.7,0.9,1.1
		c-0.2-0.4-0.4-0.7-0.6-1.1c-0.2,0,1.4,2.4,0.4,0.6c0-0.2-0.1-0.4-0.1-0.7c0.2,1.6,0.2,1.8,0.2,0.6c0.1-0.7,0-1.5,0.1-2.2
		c0-0.4,0.5-2.4,0-0.7c-0.5,1.8,0.1-0.2,0.1-0.5c0.2-0.8,0.4-1.6,0.6-2.3c0.1-0.2,0.4-1.5,0.6-1.6c0.2-0.1-1.4,2.5-0.4,1
		c0.3-0.4,0.5-0.9,0.8-1.4c0.9-1.7,0.7,0.3-0.4,0.4c0.3-0.1,1.4-1.5,1.7-1.8c1.3-1.3,0.6,0.4-0.6,0.4c0.3,0,1.1-0.7,1.4-0.9
		c0.3-0.2,0.7-0.4,1.1-0.6c1.6-0.9-2.5,0.8-0.7,0.3c0.8-0.2,1.5-0.5,2.3-0.7c0.5-0.1,1-0.2,1.4-0.3c1.9-0.4-2.7,0.1-0.8,0.1
		c1,0,2-0.1,3.1-0.1c0.8,0,2.4,0.5,3.1,0.2c-1.3,0.5-2.4-0.4-1.2-0.1c0.5,0.1,1,0.2,1.6,0.3c0.4,0.1,6.2,1.7,6.1,1.9
		c-0.1,0.2-2.6-1.2-0.5-0.2c0.3,0.2,0.6,0.3,1,0.5c0.9,0.5,1.9,1,2.8,1.5c0.7,0.4,1.4,1,2.1,1.4c1.6,1-1.9-1.7-0.5-0.4
		c0.5,0.4,1,0.8,1.5,1.3c0.6,0.5,1.1,1.1,1.6,1.7c1,1.1,0.1,1.1-0.5-0.7c0.1,0.3,0.6,0.8,0.8,1.1c0.7,1.1,1.2,2.2,1.8,3.3
		c1.2,2.3-0.6-2,0.2,0.5c0.2,0.7,0.5,1.5,0.7,2.2c0.2,0.7,0.4,1.5,0.5,2.2c0,0.2,0.1,0.5,0.1,0.7c0.2,1.2,0.2,1,0-0.5
		c0.4,0.9,0.2,2.7,0.2,3.7c0,0.7,0,1.5-0.1,2.2c0,0.2,0,0.5-0.1,0.7c-0.1,1.2-0.1,1,0.1-0.5c0.3,1-0.7,3.4-1,4.4
		c-0.2,0.7-0.4,1.4-0.7,2.1c0,0.1-0.9,2.5-0.3,0.9c0.6-1.6-0.3,0.7-0.4,0.8c-0.3,0.7-0.7,1.4-1,2c-0.6,1.1-1.3,2.2-2,3.2
		c-0.4,0.6-0.9,1.2-1.3,1.9c1.6-2.3-0.4,0.5-0.8,0.9c-0.8,1-1.7,1.9-2.7,2.8c-0.6,0.5-1.1,1.1-1.7,1.6c-0.4,0.3-2.4,1.9-0.3,0.3
		c-2.4,1.8-4.9,3.3-7.5,4.6c-0.6,0.3-1.2,0.5-1.7,0.8c2.5-1.1,0.1-0.1-0.4,0.1c-1.2,0.4-2.4,0.8-3.7,1.1c-0.7,0.2-1.5,0.3-2.2,0.5
		c-0.3,0-0.5,0.1-0.8,0.1c-1.2,0.2-1,0.2,0.5-0.1c-1,0.5-3.6,0.2-4.8,0.2c-0.8,0-1.7-0.1-2.5-0.1c-0.5,0-3.2-0.5-0.5,0
		c-1.3-0.3-2.7-0.5-4-0.8c-1.6-0.4-3.1-1-4.7-1.5c-0.5-0.2-1.7-0.8,0.2,0.1c-1-0.5-2-0.9-2.9-1.4c-1.2-0.6-2.4-1.3-3.5-2.1
		c-0.7-0.4-1.3-0.9-2-1.4c-2.2-1.5,1.5,1.4-0.5-0.4c-2.5-2.2-4.7-4.4-6.9-6.9c-0.3-0.4-1-1.6,0.1,0.2c-0.5-0.7-1-1.3-1.4-2
		c-0.8-1.2-1.6-2.5-2.3-3.9c-0.7-1.3-1.4-2.7-2-4c1.1,2.3,0-0.2-0.2-0.6c-0.3-0.8-0.5-1.6-0.8-2.3c-0.8-2.5-2-5.8-1.8-8.4
		c-0.2,2.7,0.1,0.7,0-0.1c-0.1-0.7-0.1-1.4-0.2-2.2c-0.1-1.4-0.1-2.9-0.2-4.4c0-2.7,0.1-5.4,0.4-8c0.1-0.9-0.2-2.7,0-0.2
		c0-0.4,0.2-1,0.2-1.4c0.3-1.7,0.6-3.4,1-5c0.7-3,1.6-5.9,2.6-8.8c0.2-0.6,0.4-1.1,0.6-1.7c0.4-1.1,0.4-0.9-0.2,0.5
		c0.2-0.4,0.4-0.9,0.6-1.3c0.6-1.3,1.2-2.6,1.9-3.9c1.5-2.7,3.2-5.3,4.9-7.9c1.4-2-1.5,1.7,0.1-0.1c0.5-0.5,0.9-1.1,1.4-1.6
		c1.1-1.2,2.2-2.4,3.4-3.5c1-1,2.1-1.9,3.1-2.8c1.8-1.6-1.9,1.3,0.1-0.1c0.6-0.4,1.1-0.8,1.7-1.2c1.4-0.9,2.8-1.7,4.2-2.5
		c0.4-0.2,0.8-0.4,1.3-0.6c0.4-0.2,0.8-0.4,1.3-0.6c-1.4,0.6-1.6,0.6-0.5,0.2c3-1.1,5.9-1.9,9-2.5c2.4-0.5-1.7,0.1-0.2,0
		c0.9,0,1.8-0.2,2.6-0.2c1.8-0.1,3.7-0.1,5.5,0c5.4,0.2,10.6-4.9,10.4-10.4C359.7,182.5,355.4,178.1,349.6,177.9L349.6,177.9z"/>
</g>
<g id="XMLID_1_">
	<path id="XMLID_4_" class="st3" d="M231.4,358c1.3,3.6,1.8,7.3,3.5,10.8c1.4,2.8,3.5,5.4,5.8,7.5c6.6,5.8,15.1,8.5,23.8,8.6
		c16.9,0.3,35.1-8.1,39-25.8c1.2-5.3-1.6-11.5-7.2-12.7c-5.2-1.2-11.5,1.6-12.7,7.2c-0.2,1.1-0.7,2.2-0.9,3.3
		c-0.2,1.1,0.9-1.6-0.1,0.1c-0.3,0.5-0.5,0.9-0.8,1.4c-1.2,2,0.8-0.6-0.2,0.3c-0.6,0.5-1.1,1.1-1.6,1.6c0.8-0.7,0.4-0.3-0.3,0.1
		c-0.6,0.3-1.1,0.7-1.7,1c-0.6,0.3-1.3,0.6-1.9,0.9c0.9-0.4,0.9-0.4,0-0.1c-1.4,0.4-2.7,0.9-4.1,1.2c-0.8,0.2-1.6,0.3-2.4,0.5
		c-0.8,0.2-1.3,0.2-0.2,0.1c-1.6,0.2-3.3,0.3-4.9,0.2c-0.6,0-1.3-0.1-1.9-0.1c-1.9-0.1,0.4,0.2-0.7-0.1c-1.3-0.4-2.6-0.6-3.9-1
		c-1.1-0.3-0.6-0.3,0.1,0.1c-0.6-0.3-1.2-0.6-1.8-0.9c-0.5-0.3-1.1-0.7-1.6-1c0.6,0.3,1.3,1.2,0.4,0.3c-0.4-0.4-0.8-0.8-1.2-1.2
		c-1.4-1.3,0.5-0.2,0.2,0.3c0-0.1-0.6-0.9-0.7-1.1c-0.1-0.2-0.2-0.4-0.3-0.5c-0.4-0.7-0.4-0.7,0,0.1c0.3,0.8,0.4,0.8,0.2,0.3
		c-0.1-0.3-0.2-0.5-0.2-0.8c-0.2-0.7-0.4-1.4-0.5-2.1c-0.3-1.3-0.6-2.6-1.1-3.9c-1.8-5.1-7.1-9.1-12.7-7.2
		C233.6,346.9,229.4,352.6,231.4,358L231.4,358z"/>
</g>
<g id="XMLID_10_">
	<path id="XMLID_3_" class="st3" d="M375.3,358c1.3,3.6,1.8,7.3,3.5,10.8c1.4,2.8,3.5,5.4,5.8,7.5c6.6,5.8,15.1,8.5,23.8,8.6
		c16.9,0.3,35.1-8.1,39-25.8c1.2-5.3-1.6-11.5-7.2-12.7c-5.2-1.2-11.5,1.6-12.7,7.2c-0.2,1.1-0.7,2.2-0.9,3.3
		c-0.2,1.1,0.9-1.6-0.1,0.1c-0.3,0.5-0.5,0.9-0.8,1.4c-1.2,2,0.8-0.6-0.2,0.3c-0.6,0.5-1.1,1.1-1.6,1.6c0.8-0.7,0.4-0.3-0.3,0.1
		c-0.6,0.3-1.1,0.7-1.7,1c-0.6,0.3-1.3,0.6-1.9,0.9c0.9-0.4,0.9-0.4,0-0.1c-1.4,0.4-2.7,0.9-4.1,1.2c-0.8,0.2-1.6,0.3-2.4,0.5
		c-0.8,0.2-1.3,0.2-0.2,0.1c-1.6,0.2-3.3,0.3-4.9,0.2c-0.6,0-1.3-0.1-1.9-0.1c-1.9-0.1,0.4,0.2-0.7-0.1c-1.3-0.4-2.6-0.6-3.9-1
		c-1.1-0.3-0.6-0.3,0.1,0.1c-0.6-0.3-1.2-0.6-1.8-0.9c-0.5-0.3-1.1-0.7-1.6-1c0.6,0.3,1.3,1.2,0.4,0.3c-0.4-0.4-0.8-0.8-1.2-1.2
		c-1.4-1.3,0.5-0.2,0.2,0.3c0-0.1-0.6-0.9-0.7-1.1c-0.1-0.2-0.2-0.4-0.3-0.5c-0.4-0.7-0.4-0.7,0,0.1c0.3,0.8,0.4,0.8,0.2,0.3
		c-0.1-0.3-0.2-0.5-0.2-0.8c-0.2-0.7-0.4-1.4-0.5-2.1c-0.3-1.3-0.6-2.6-1.1-3.9c-1.8-5.1-7.1-9.1-12.7-7.2
		C377.5,346.9,373.3,352.6,375.3,358L375.3,358z"/>
</g>
</svg>
