<?xml version="1.0" encoding="utf-8"?>
<!-- Generator: Adobe Illustrator 19.0.0, SVG Export Plug-In . SVG Version: 6.00 Build 0)  -->
<svg version="1.1" id="Layer_1" xmlns="http://www.w3.org/2000/svg" xmlns:xlink="http://www.w3.org/1999/xlink" x="0px" y="0px"
	 viewBox="0 0 67.5 54.5" style="enable-background:new 0 0 67.5 54.5;" xml:space="preserve">
<style type="text/css">
	.st0{fill:#FFFFFF;}
</style>
<g id="XMLID_12_">
	<path id="XMLID_18_" class="st0" d="M5,30.3h59.5c1.7,0,3-1.3,3-3s-1.3-3-3-3H5c-1.7,0-3,1.3-3,3S3.3,30.3,5,30.3z"/>
</g>
<g id="XMLID_11_">
	<path id="XMLID_17_" class="st0" d="M27.5,54.5c0.8,0,1.5-0.3,2.1-0.9c1.2-1.2,1.2-3.1,0-4.2L7.2,27L29.1,5.1
		c1.2-1.2,1.2-3.1,0-4.2c-1.2-1.2-3.1-1.2-4.2,0l-24,24c-1.2,1.2-1.2,3.1,0,4.2l24.5,24.5C26,54.2,26.7,54.5,27.5,54.5z"/>
</g>
</svg>
