<?xml version="1.0" encoding="utf-8"?>
<!-- Generator: Adobe Illustrator 19.0.0, SVG Export Plug-In . SVG Version: 6.00 Build 0)  -->
<svg version="1.1" id="Layer_1" xmlns="http://www.w3.org/2000/svg" xmlns:xlink="http://www.w3.org/1999/xlink" x="0px" y="0px"
	 viewBox="0 0 67.5 54.5" style="enable-background:new 0 0 67.5 54.5;" xml:space="preserve">
<style type="text/css">
	.st0{fill:#FFFFFF;}
</style>
<g id="XMLID_12_">
	<path id="XMLID_18_" class="st0" d="M62.5,30.3H3c-1.7,0-3-1.3-3-3s1.3-3,3-3h59.5c1.7,0,3,1.3,3,3S64.2,30.3,62.5,30.3z"/>
</g>
<g id="XMLID_11_">
	<path id="XMLID_17_" class="st0" d="M40,54.5c-0.8,0-1.5-0.3-2.1-0.9c-1.2-1.2-1.2-3.1,0-4.2L60.3,27L38.4,5.1
		c-1.2-1.2-1.2-3.1,0-4.2c1.2-1.2,3.1-1.2,4.2,0l24,24c1.2,1.2,1.2,3.1,0,4.2L42.1,53.6C41.5,54.2,40.8,54.5,40,54.5z"/>
</g>
</svg>
