<?xml version="1.0" encoding="utf-8"?>
<!-- Generator: Adobe Illustrator 19.0.0, SVG Export Plug-In . SVG Version: 6.00 Build 0)  -->
<svg version="1.1" id="Layer_2" xmlns="http://www.w3.org/2000/svg" xmlns:xlink="http://www.w3.org/1999/xlink" x="0px" y="0px"
	 viewBox="251.5 -74.5 48.2 89.4" style="enable-background:new 251.5 -74.5 48.2 89.4;" xml:space="preserve">
<style type="text/css">
	.st0{fill:#AF4F9D;}
</style>
<g>
	<path class="st0" d="M255-26.3c-0.9,0-1.8-0.3-2.5-1c-1.4-1.4-1.4-3.6,0-5l41.2-41.2c1.4-1.4,3.6-1.4,5,0c1.4,1.4,1.4,3.6,0,5
		l-41.2,41.2C256.8-26.7,255.9-26.3,255-26.3z"/>
</g>
<g>
	<path class="st0" d="M296.2,14.8c-0.9,0-1.8-0.3-2.5-1l-41.2-41.2c-1.4-1.4-1.4-3.6,0-5c1.4-1.4,3.6-1.4,5,0l41.2,41.2
		c1.4,1.4,1.4,3.6,0,5C298,14.5,297.1,14.8,296.2,14.8z"/>
</g>
</svg>
