<?xml version="1.0" encoding="utf-8"?>
<!-- Generator: Adobe Illustrator 19.0.0, SVG Export Plug-In . SVG Version: 6.00 Build 0)  -->
<svg version="1.1" id="Layer_1" xmlns="http://www.w3.org/2000/svg" xmlns:xlink="http://www.w3.org/1999/xlink" x="0px" y="0px"
	 viewBox="0 0 41.4 29.2" style="enable-background:new 0 0 41.4 29.2;" xml:space="preserve">
<style type="text/css">
	.st0{fill:#FFFFFF;}
</style>
<g id="XMLID_1_">
	<path id="XMLID_3_" class="st0" d="M15.3,29.2c-0.8,0-1.5-0.3-2.1-0.9L0.9,16c-1.2-1.2-1.2-3.1,0-4.2c1.2-1.2,3.1-1.2,4.2,0
		l10.1,10.1l21-21c1.2-1.2,3.1-1.2,4.2,0c1.2,1.2,1.2,3.1,0,4.2L17.4,28.3C16.8,28.9,16,29.2,15.3,29.2z"/>
</g>
<g id="XMLID_17_">
	<path id="XMLID_18_" class="st0" d="M16.7,43.4C3,43.4-8.1,32.2-8.1,18.6C-8.1,4.9,3-6.2,16.7-6.2c4.9,0,9.6,1.4,13.6,4.1
		c0.5,0.3,0.6,0.9,0.3,1.4c-0.3,0.5-0.9,0.6-1.4,0.3c-3.7-2.4-8-3.7-12.5-3.7C4.1-4.2-6.1,6-6.1,18.6S4.1,41.4,16.7,41.4
		s22.8-10.2,22.8-22.8c0-2.2-0.3-4.3-0.9-6.3c-0.2-0.5,0.2-1.1,0.7-1.2c0.5-0.2,1.1,0.2,1.2,0.7c0.6,2.2,1,4.5,1,6.9
		C41.5,32.2,30.4,43.4,16.7,43.4z"/>
</g>
</svg>
