<?xml version="1.0" encoding="utf-8"?>
<!-- Generator: Adobe Illustrator 19.0.0, SVG Export Plug-In . SVG Version: 6.00 Build 0)  -->
<svg version="1.1" id="Layer_1" xmlns="http://www.w3.org/2000/svg" xmlns:xlink="http://www.w3.org/1999/xlink" x="0px" y="0px"
	 viewBox="0 0 32.7 32.7" style="enable-background:new 0 0 32.7 32.7;" xml:space="preserve">
<style type="text/css">
	.st0{fill:#0B0B0B;}
</style>
<g id="XMLID_3_">
	<path id="XMLID_5_" class="st0" d="M29.7,32.7c-0.8,0-1.5-0.3-2.1-0.9L0.9,5.1c-1.2-1.2-1.2-3.1,0-4.2c1.2-1.2,3.1-1.2,4.2,0
		l26.7,26.7c1.2,1.2,1.2,3.1,0,4.2C31.2,32.4,30.5,32.7,29.7,32.7z"/>
</g>
<g id="XMLID_4_">
	<path id="XMLID_2_" class="st0" d="M3,32.7c-0.8,0-1.5-0.3-2.1-0.9c-1.2-1.2-1.2-3.1,0-4.2L27.6,0.9c1.2-1.2,3.1-1.2,4.2,0
		c1.2,1.2,1.2,3.1,0,4.2L5.1,31.8C4.5,32.4,3.8,32.7,3,32.7z"/>
</g>
</svg>
