<?xml version="1.0" encoding="utf-8"?>
<!-- Generator: Adobe Illustrator 19.0.0, SVG Export Plug-In . SVG Version: 6.00 Build 0)  -->
<svg version="1.1" id="Isolation_Mode" xmlns="http://www.w3.org/2000/svg" xmlns:xlink="http://www.w3.org/1999/xlink" x="0px"
	 y="0px" viewBox="0 0 192 192" style="enable-background:new 0 0 192 192;" xml:space="preserve">
<style type="text/css">
	.st0{fill:#3A1C34;}
</style>
<g>
	<path class="st0" d="M82.2,192.8c-0.5,0-1.1-0.1-1.6-0.3c-2-0.7-3.4-2.6-3.4-4.7v-16.2c-2.6,0.3-5.3,0.5-7.9,0.5
		c-36.4,0-66-29.6-66-66c0-25.8,15.2-49.4,38.8-60.1c1.9-0.8,4-0.5,5.5,0.9s2,3.6,1.2,5.4c-3,7.5-4.5,15.4-4.5,23.4
		c0,35.4,28.8,64.2,64.2,64.2c2.3,0,4.7-0.2,7.4-0.5c2-0.2,4,0.8,5,2.5s0.8,4-0.5,5.6c-0.1,0.2-0.2,0.3-0.4,0.5
		c-0.3,0.4-0.6,0.7-0.8,1.1l-33.2,41.8C85.2,192.1,83.7,192.8,82.2,192.8z M82.2,160.7c1.1,0,2.2,0.4,3.1,1.1
		c1.2,0.9,1.9,2.4,1.9,3.9v7.8l18.7-23.6c-39.7-1.4-71.5-34.2-71.5-74.2c0-4.9,0.5-9.7,1.4-14.5c-14,10.4-22.6,27-22.6,44.9
		c0,30.9,25.1,56,56,56c3.9,0,7.9-0.4,11.8-1.3C81.5,160.7,81.9,160.7,82.2,160.7z"/>
</g>
<g>
	<path class="st0" d="M123.3,173.4c-0.5,0-1.1-0.1-1.6-0.3c-2-0.7-3.4-2.6-3.4-4.7v-19.2c-3.2,0.4-6.4,0.6-9.6,0.6
		c-40.9,0-74.2-33.3-74.2-74.2c0-40.9,33.3-74.2,74.2-74.2s74.2,33.3,74.2,74.2c0,15.1-4.5,29.6-13.1,42c-0.1,0.3-0.3,0.6-0.5,0.8
		l-1,1.3c-1.2,1.6-2.3,3-3.4,4.3l-37.7,47.5C126.2,172.7,124.8,173.4,123.3,173.4z M123.3,138.3c1.1,0,2.2,0.4,3.1,1.1
		c1.2,0.9,1.9,2.4,1.9,3.9v10.8l28.8-36.3c0-0.1,0.1-0.1,0.1-0.2c1-1.1,2-2.4,3-3.8c0,0,0.1-0.1,0.1-0.1l0.6-0.8
		c0.1-0.1,0.1-0.2,0.2-0.3c7.6-10.9,11.7-23.6,11.7-36.9c0-35.4-28.8-64.2-64.2-64.2S44.4,40.3,44.4,75.7s28.8,64.2,64.2,64.2
		c4.5,0,9.1-0.5,13.6-1.5C122.6,138.4,122.9,138.3,123.3,138.3z"/>
</g>
<g>
	<path class="st0" d="M139.7,67.5H77.6c-2.8,0-5-2.2-5-5c0-2.8,2.2-5,5-5h62.1c2.8,0,5,2.2,5,5C144.7,65.3,142.4,67.5,139.7,67.5z"
		/>
</g>
<g>
	<path class="st0" d="M139.7,97.6H77.6c-2.8,0-5-2.2-5-5s2.2-5,5-5h62.1c2.8,0,5,2.2,5,5S142.4,97.6,139.7,97.6z"/>
</g>
</svg>
