<?xml version="1.0" encoding="utf-8"?>
<!-- Generator: Adobe Illustrator 19.0.0, SVG Export Plug-In . SVG Version: 6.00 Build 0)  -->
<svg version="1.1" id="Layer_3" xmlns="http://www.w3.org/2000/svg" xmlns:xlink="http://www.w3.org/1999/xlink" x="0px" y="0px"
	 viewBox="0 0 242.8 216.6" style="enable-background:new 0 0 242.8 216.6;" xml:space="preserve">
<style type="text/css">
	.st0{fill:#3A1C34;}
	.st1{fill:#FFFFFF;}
</style>
<g id="XMLID_98_">
	<path id="XMLID_26_" class="st0" d="M165.3,101.8c-28.1,0-50.9-22.8-50.9-50.9c0-28.1,22.8-50.9,50.9-50.9
		c28.1,0,50.9,22.8,50.9,50.9C216.2,79,193.3,101.8,165.3,101.8z M165.3,12c-21.5,0-38.9,17.5-38.9,38.9c0,21.5,17.5,38.9,38.9,38.9
		c21.5,0,38.9-17.5,38.9-38.9C204.2,29.5,186.7,12,165.3,12z"/>
</g>
<g id="XMLID_6_">
	<path id="XMLID_25_" class="st0" d="M207.1,208.4h-36.8c-3.3,0-6-2.7-6-6s2.7-6,6-6h36.8c9.6,0,18.2-6,21.9-15.2
		c4.5-11.2-0.2-24.9-4.9-34.5c-1.5-3-0.3-6.6,2.7-8c3-1.5,6.6-0.3,8,2.7c8.4,16.8,10.2,32.1,5.3,44.3
		C234.6,199.5,221.7,208.4,207.1,208.4z"/>
</g>
<g id="XMLID_2_">
	<path id="XMLID_22_" class="st0" d="M196,164c-0.5,0-1.1-0.1-1.6-0.4l-5.6-2.9l-5.6,2.9c-1.7,0.8-3.7,0.2-4.6-1.4l-3.2-5.5
		l-6.3-0.6c-1.8-0.2-3.2-1.8-3.1-3.6l0.3-6.3l-5-3.9c-1.5-1.2-1.8-3.2-0.7-4.8l3.6-5.2l-2-6c-0.6-1.8,0.3-3.7,2-4.4l5.9-2.4l1.5-6.1
		c0.4-1.8,2.2-2.9,4-2.6l6.2,1.2l4.6-4.3c1.3-1.3,3.5-1.3,4.8,0l4.6,4.3l6.2-1.2c1.8-0.3,3.6,0.8,4,2.6l1.5,6.1l5.9,2.4
		c1.7,0.7,2.6,2.6,2,4.4l-2,6l3.6,5.2c1.1,1.5,0.8,3.6-0.7,4.8l-5,3.9l0.3,6.3c0.1,1.9-1.3,3.4-3.1,3.6l-6.3,0.6l-3.2,5.5
		C198.4,163.4,197.2,164,196,164z M173,149.5l4.8,0.5c1.1,0.1,2.1,0.8,2.7,1.7l2.4,4.1l4.3-2.2c1-0.5,2.2-0.5,3.2,0l4.3,2.2l2.4-4.1
		c0.6-1,1.6-1.6,2.7-1.7l4.8-0.5l-0.2-4.8c0-1.1,0.4-2.2,1.3-2.9l3.8-3l-2.8-3.9c-0.6-0.9-0.8-2.1-0.5-3.1l1.6-4.5l-4.5-1.8
		c-1-0.4-1.8-1.3-2.1-2.4l-1.2-4.7l-4.7,0.9c-1.1,0.2-2.2-0.1-3.1-0.9l-3.5-3.3l-3.5,3.3c-0.8,0.8-1.9,1.1-3.1,0.9l-4.7-0.9
		l-1.2,4.7c-0.3,1.1-1,2-2.1,2.4l-4.5,1.8l1.6,4.5c0.4,1.1,0.2,2.2-0.5,3.1l-2.8,3.9l3.8,3c0.9,0.7,1.4,1.8,1.3,2.9L173,149.5z"/>
</g>
<g id="XMLID_7_">
	<polygon id="XMLID_1_" class="st1" points="195.6,159.4 188.4,155.7 181.2,159.4 177.7,153.4 177.7,178.4 188.1,168 199.1,179 
		199.1,153.4 	"/>
	<path id="XMLID_18_" class="st0" d="M199.1,182.5c-0.9,0-1.8-0.4-2.5-1l-8.5-8.5l-7.9,7.9c-1,1-2.5,1.3-3.8,0.8
		c-1.3-0.5-2.2-1.8-2.2-3.2v-25c0-1.6,1.1-3,2.6-3.4c1.5-0.4,3.1,0.3,3.9,1.6l1.8,3.1l4.3-2.2c1-0.5,2.2-0.5,3.2,0l4.3,2.2l1.8-3.1
		c0.8-1.4,2.4-2,3.9-1.6c1.5,0.4,2.6,1.8,2.6,3.4V179c0,1.4-0.9,2.7-2.2,3.2C200,182.4,199.5,182.5,199.1,182.5z M188.1,164.5
		c0.9,0,1.8,0.4,2.5,1l5,5v-7.7c-0.5,0-1.1-0.1-1.6-0.4l-5.6-2.9l-5.6,2.9c-0.5,0.3-1,0.4-1.6,0.4v7.1l4.4-4.4
		C186.3,164.9,187.2,164.5,188.1,164.5z"/>
</g>
<g id="XMLID_8_">
	<g id="XMLID_10_">
		<g id="XMLID_5_">
			<path id="XMLID_15_" class="st0" d="M146.1,216.6H6c-3.3,0-6-2.7-6-6v-51.4c0-3.3,2.7-6,6-6h140.1c3.3,0,6,2.7,6,6v51.4
				C152.1,213.9,149.4,216.6,146.1,216.6z M12,204.6h128.1v-39.4H12V204.6z"/>
		</g>
		<g id="XMLID_4_">
			<path id="XMLID_14_" class="st0" d="M76,179.2c-8.5,0-15.3-6.9-15.3-15.3c0-3.3,2.7-6,6-6s6,2.7,6,6c0,1.8,1.5,3.3,3.3,3.3
				s3.3-1.5,3.3-3.3c0-3.3,2.7-6,6-6s6,2.7,6,6C91.4,172.3,84.5,179.2,76,179.2z"/>
		</g>
		<g id="XMLID_11_">
			<g id="XMLID_9_">
				<path id="XMLID_13_" class="st0" d="M108.7,109.2h-14c-3.3,0-6-2.7-6-6v-4.7c0-7-5.7-12.7-12.7-12.7s-12.7,5.7-12.7,12.7v4.7
					c0,3.3-2.7,6-6,6h-14c-3.3,0-6-2.7-6-6s2.7-6,6-6h8c0.7-13,11.5-23.3,24.6-23.3s23.9,10.4,24.6,23.3h8.1c3.3,0,6,2.7,6,6
					S112.1,109.2,108.7,109.2z"/>
			</g>
		</g>
	</g>
	<g id="XMLID_3_">
		<path id="XMLID_12_" class="st0" d="M146.1,151.2c-3.3,0-6-2.7-6-6v-17.3H12v17.3c0,3.3-2.7,6-6,6s-6-2.7-6-6v-23.3
			c0-3.3,2.7-6,6-6h140.1c3.3,0,6,2.7,6,6v23.3C152.1,148.5,149.4,151.2,146.1,151.2z"/>
	</g>
</g>
</svg>
