<?xml version="1.0" encoding="utf-8"?>
<!-- Generator: Adobe Illustrator 19.0.0, SVG Export Plug-In . SVG Version: 6.00 Build 0)  -->
<svg version="1.1" id="Layer_1" xmlns="http://www.w3.org/2000/svg" xmlns:xlink="http://www.w3.org/1999/xlink" x="0px" y="0px"
	 viewBox="-78 80.7 34.7 33.3" style="enable-background:new -78 80.7 34.7 33.3;" xml:space="preserve">
<g>
	<path d="M-60.7,85.8L-60.7,85.8c-2.4,0-4.3,1.9-4.3,4.3s1.9,4.3,4.3,4.3s4.3-1.9,4.3-4.3S-58.2,85.8-60.7,85.8z M-60.7,93
		c-1.6,0-2.9-1.3-2.9-2.9s1.3-2.9,2.9-2.9l0,0l0,0c1.6,0,2.9,1.3,2.9,2.9S-59.1,93-60.7,93z"/>
	<path d="M-73.7,93L-73.7,93L-73.7,93c-2.4,0-4.3,1.9-4.3,4.3l0,0c0,2.4,1.9,4.3,4.3,4.3s4.3-1.9,4.3-4.3C-69.2,95-71.2,93-73.7,93z
		 M-73.6,100.3c-1.6,0-2.9-1.3-2.9-2.9l0,0c0-1.6,1.3-2.9,2.9-2.9l0,0c1.6,0,2.9,1.3,2.9,2.9C-70.7,98.9-71.9,100.3-73.6,100.3z"/>
	<path d="M-47.7,100.3L-47.7,100.3L-47.7,100.3c-2.4,0-4.3,1.9-4.3,4.3s1.9,4.3,4.3,4.3s4.3-1.9,4.3-4.3S-45.3,100.3-47.7,100.3z
		 M-47.6,107.5c-1.6,0-2.9-1.3-2.9-2.9l0,0c0-1.6,1.3-2.9,2.9-2.9l0,0c1.6,0,2.9,1.3,2.9,2.9C-44.6,106.3-45.9,107.5-47.6,107.5z"/>
	<g>
		<path d="M-59.8,92.9v18.9c0,0.4-0.3,0.7-0.7,0.7l0,0c-0.4,0-0.7-0.3-0.7-0.7l0,0V92.9c-0.6-0.1-1.1-0.5-1.5-0.9v19.8
			c0,1.2,1,2.2,2.2,2.2l0,0c1.2,0,2.2-1,2.2-2.2V92C-58.7,92.4-59.3,92.8-59.8,92.9z"/>
		<path d="M-61.3,87.3v-4.4c0-0.4,0.3-0.7,0.7-0.7l0,0c0.4,0,0.7,0.3,0.7,0.7l0,0v4.4c0.6,0.2,1.1,0.5,1.5,0.9v-5.4
			c0-1.2-1-2.2-2.2-2.2l0,0c-1.2,0-2.2,1-2.2,2.2v5.3C-62.4,87.8-61.9,87.5-61.3,87.3z"/>
	</g>
	<g>
		<path d="M-74.3,94.7V83c0-0.4,0.3-0.7,0.7-0.7l0,0l0,0c0.4,0,0.7,0.3,0.7,0.7l0,0v11.6c0.6,0.1,1.1,0.4,1.4,0.8V82.9
			c0-1.2-1-2.2-2.2-2.2l0,0c-1.2,0-2.2,1-2.2,2.2v12.6C-75.3,95-74.9,94.8-74.3,94.7z"/>
		<path d="M-72.8,100.3v11.6c0,0.4-0.3,0.7-0.7,0.7c-0.4,0-0.7-0.3-0.7-0.7v-11.6c-0.6-0.2-1.1-0.5-1.4-0.9V112c0,1.2,1,2.1,2.1,2.1
			c1.2,0,2.2-1,2.2-2.1V99.5C-71.8,99.8-72.3,100.2-72.8,100.3z"/>
	</g>
	<g>
		<path d="M-48.3,101.8V82.9c0-0.4,0.3-0.7,0.7-0.7l0,0l0,0c0.4,0,0.7,0.3,0.7,0.7l0,0v18.9c0.6,0.1,1.1,0.4,1.4,0.9V82.9
			c0-1.2-1-2.2-2.2-2.2l0,0c-1.2,0-2.2,1-2.2,2.2v19.8C-49.3,102.3-48.9,102-48.3,101.8z"/>
		<path d="M-46.8,107.4v4.4c0,0.4-0.3,0.7-0.7,0.7c-0.4,0-0.7-0.3-0.7-0.7v-4.4c-0.6-0.2-1.1-0.5-1.4-0.9v5.4c0,1.2,1,2.1,2.1,2.1
			c1.2,0,2.2-1,2.2-2.1v-5.3C-45.8,107-46.3,107.3-46.8,107.4z"/>
	</g>
</g>
</svg>
