<?xml version="1.0" encoding="utf-8"?>
<!-- Generator: Adobe Illustrator 19.0.0, SVG Export Plug-In . SVG Version: 6.00 Build 0)  -->
<svg version="1.1" xmlns="http://www.w3.org/2000/svg" xmlns:xlink="http://www.w3.org/1999/xlink" x="0px" y="0px"
	 viewBox="0 0 223.2 218" style="enable-background:new 0 0 223.2 218;" xml:space="preserve">
<style type="text/css">
	.st0{fill:#F4F2F4;}
	.st1{fill:#754068;}
	.st2{fill:#FFFFFF;}
	.st3{fill:#FFFFFF;stroke:#754068;stroke-width:4;stroke-linecap:round;stroke-linejoin:round;stroke-miterlimit:10;}
	.st4{fill:none;stroke:#754068;stroke-width:5;stroke-miterlimit:10;}
	.st5{fill:none;stroke:#754068;stroke-width:6;stroke-miterlimit:10;}
	.st6{fill:none;stroke:#754068;stroke-width:3;stroke-miterlimit:10;}
</style>
<g id="Layer_2">
	<g id="XMLID_23_">
		<g id="XMLID_5_">
			<circle id="XMLID_90_" class="st0" cx="111.6" cy="113.9" r="93.6"/>
			<path id="XMLID_91_" class="st1" d="M111.6,211.4c-53.8,0-97.6-43.8-97.6-97.6s43.8-97.6,97.6-97.6s97.6,43.8,97.6,97.6
				S165.4,211.4,111.6,211.4z M111.6,24.3C62.2,24.3,22,64.5,22,113.9s40.2,89.6,89.6,89.6s89.6-40.2,89.6-89.6S161,24.3,111.6,24.3
				z"/>
		</g>
		<g id="XMLID_8_">
			<circle id="XMLID_86_" class="st0" cx="60.1" cy="37" r="10.6"/>
			<path id="XMLID_87_" class="st1" d="M60.1,51.6c-8.1,0-14.6-6.6-14.6-14.6s6.6-14.6,14.6-14.6S74.8,28.9,74.8,37
				S68.2,51.6,60.1,51.6z M60.1,30.4c-3.7,0-6.6,3-6.6,6.6s3,6.6,6.6,6.6s6.6-3,6.6-6.6S63.8,30.4,60.1,30.4z"/>
		</g>
		<g id="XMLID_11_">
			<circle id="XMLID_82_" class="st0" cx="95.7" cy="19.9" r="15.9"/>
			<path id="XMLID_83_" class="st1" d="M95.7,38.7c-10.4,0-18.9-8.5-18.9-18.9S85.3,1,95.7,1s18.9,8.5,18.9,18.9
				S106.1,38.7,95.7,38.7z M95.7,7c-7.1,0-12.9,5.8-12.9,12.9s5.8,12.9,12.9,12.9s12.9-5.8,12.9-12.9S102.8,7,95.7,7z"/>
		</g>
		<g id="XMLID_12_">
			<circle id="XMLID_78_" class="st0" cx="139.2" cy="19.9" r="15.9"/>
			<path id="XMLID_79_" class="st1" d="M139.2,39.7c-11,0-19.9-8.9-19.9-19.9S128.2,0,139.2,0S159,8.9,159,19.9
				S150.1,39.7,139.2,39.7z M139.2,8c-6.5,0-11.9,5.3-11.9,11.9s5.3,11.9,11.9,11.9S151,26.4,151,19.9S145.7,8,139.2,8z"/>
		</g>
		<g id="XMLID_13_">
			<circle id="XMLID_74_" class="st2" cx="28.1" cy="68.6" r="18.4"/>
			<path id="XMLID_75_" class="st1" d="M28.1,91c-12.3,0-22.4-10-22.4-22.4s10-22.4,22.4-22.4s22.4,10,22.4,22.4S40.4,91,28.1,91z
				 M28.1,54.2c-7.9,0-14.4,6.5-14.4,14.4S20.1,83,28.1,83s14.4-6.5,14.4-14.4S36,54.2,28.1,54.2z"/>
		</g>
		<g id="XMLID_14_">
			<circle id="XMLID_70_" class="st0" cx="18" cy="119.5" r="15"/>
			<path id="XMLID_71_" class="st1" d="M18,137.6c-9.9,0-18-8.1-18-18c0-9.9,8.1-18,18-18s18,8.1,18,18
				C36.1,129.5,28,137.6,18,137.6z M18,107.5c-6.6,0-12,5.4-12,12s5.4,12,12,12s12-5.4,12-12S24.7,107.5,18,107.5z"/>
		</g>
		<g id="XMLID_15_">
			<circle id="XMLID_66_" class="st2" cx="28.1" cy="162" r="18.4"/>
			<path id="XMLID_67_" class="st1" d="M28.1,183.4c-11.8,0-21.4-9.6-21.4-21.4s9.6-21.4,21.4-21.4c11.8,0,21.4,9.6,21.4,21.4
				S39.9,183.4,28.1,183.4z M28.1,146.6c-8.5,0-15.4,6.9-15.4,15.4s6.9,15.4,15.4,15.4c8.5,0,15.4-6.9,15.4-15.4
				S36.5,146.6,28.1,146.6z"/>
		</g>
		<g id="XMLID_16_">
			<circle id="XMLID_62_" class="st0" cx="63.1" cy="188.6" r="13.3"/>
			<path id="XMLID_63_" class="st1" d="M63.1,204.9c-9,0-16.3-7.3-16.3-16.3c0-9,7.3-16.3,16.3-16.3s16.3,7.3,16.3,16.3
				C79.4,197.6,72.1,204.9,63.1,204.9z M63.1,178.4c-5.7,0-10.3,4.6-10.3,10.3c0,5.7,4.6,10.3,10.3,10.3s10.3-4.6,10.3-10.3
				C73.4,183,68.8,178.4,63.1,178.4z"/>
		</g>
		<g id="XMLID_17_">
			<circle id="XMLID_58_" class="st2" cx="139.2" cy="199.5" r="13.7"/>
			<path id="XMLID_59_" class="st1" d="M139.2,217.3c-9.8,0-17.7-7.9-17.7-17.7c0-9.8,7.9-17.7,17.7-17.7c9.8,0,17.7,7.9,17.7,17.7
				C156.9,209.3,149,217.3,139.2,217.3z M139.2,189.8c-5.4,0-9.7,4.4-9.7,9.7s4.4,9.7,9.7,9.7s9.7-4.4,9.7-9.7
				S144.6,189.8,139.2,189.8z"/>
		</g>
		<g id="XMLID_18_">
			<circle id="XMLID_54_" class="st0" cx="175.9" cy="177.8" r="15.8"/>
			<path id="XMLID_55_" class="st1" d="M175.9,197.6c-10.9,0-19.8-8.9-19.8-19.8c0-10.9,8.9-19.8,19.8-19.8s19.8,8.9,19.8,19.8
				C195.7,188.8,186.8,197.6,175.9,197.6z M175.9,166c-6.5,0-11.8,5.3-11.8,11.8c0,6.5,5.3,11.8,11.8,11.8s11.8-5.3,11.8-11.8
				C187.7,171.3,182.4,166,175.9,166z"/>
		</g>
		<g id="XMLID_19_">
			<circle id="XMLID_50_" class="st0" cx="197.3" cy="147.8" r="14.2"/>
			<path id="XMLID_51_" class="st1" d="M197.3,166c-10,0-18.2-8.2-18.2-18.2c0-10,8.2-18.2,18.2-18.2c10,0,18.2,8.2,18.2,18.2
				C215.5,157.8,207.4,166,197.3,166z M197.3,137.6c-5.6,0-10.2,4.6-10.2,10.2c0,5.6,4.6,10.2,10.2,10.2c5.6,0,10.2-4.6,10.2-10.2
				C207.5,142.2,203,137.6,197.3,137.6z"/>
		</g>
		<g id="XMLID_20_">
			<circle id="XMLID_46_" class="st2" cx="202.6" cy="92.6" r="17.6"/>
			<path id="XMLID_47_" class="st1" d="M202.6,113.2c-11.4,0-20.6-9.2-20.6-20.6S191.3,72,202.6,72c11.4,0,20.6,9.2,20.6,20.6
				S214,113.2,202.6,113.2z M202.6,78c-8.1,0-14.6,6.5-14.6,14.6s6.5,14.6,14.6,14.6c8,0,14.6-6.5,14.6-14.6S210.7,78,202.6,78z"/>
		</g>
		<g id="XMLID_21_">
			<circle id="XMLID_42_" class="st0" cx="176.2" cy="46.7" r="11"/>
			<path id="XMLID_43_" class="st1" d="M176.2,61.7c-8.3,0-15-6.7-15-15s6.7-15,15-15s15,6.7,15,15S184.5,61.7,176.2,61.7z
				 M176.2,39.7c-3.8,0-7,3.1-7,7s3.1,7,7,7s7-3.1,7-7S180,39.7,176.2,39.7z"/>
		</g>
		<g id="XMLID_22_">
			<circle id="XMLID_38_" class="st0" cx="95.7" cy="204.6" r="9.4"/>
			<path id="XMLID_39_" class="st1" d="M95.7,218c-7.4,0-13.4-6-13.4-13.4s6-13.4,13.4-13.4s13.4,6,13.4,13.4S103.1,218,95.7,218z
				 M95.7,199.2c-3,0-5.4,2.4-5.4,5.4s2.4,5.4,5.4,5.4s5.4-2.4,5.4-5.4S98.7,199.2,95.7,199.2z"/>
		</g>
	</g>
	<path id="XMLID_33_" class="st3" d="M64.9,130.6c1.5,1.4,3.2,2.6,5,3.5"/>
</g>
<g id="Layer_3">
	<path id="XMLID_31_" class="st4" d="M131.3,97.6c0,19.2-15.6,34.8-34.8,34.8s-34.8-15.6-34.8-34.8s15.6-31.7,34.8-31.7
		S131.3,78.3,131.3,97.6z"/>
	<path id="XMLID_28_" class="st5" d="M166.5,84.2c7.6,17.2,2.4,33.6-10.6,39.4c-13,5.7-29.6-3.5-37.2-20.7s-3.3-35.7,9.7-41.5
		S158.9,67,166.5,84.2z"/>
	<path id="XMLID_27_" class="st6" d="M131.9,165.3c-17.5,9.5-36.1,6.5-45.7-8.9c-8-12.9,3.5-32.1,22.3-40.9s39.2-4.8,45.7,8.9
		C160.6,138.2,150.1,155.4,131.9,165.3z"/>
	<path id="XMLID_26_" class="st4" d="M95.3,104.9c7.8,12.4,7.5,34-2.8,40.5s-27.2-0.5-35-13s-5.3-31.8,5-38.3S87.5,92.5,95.3,104.9z
		"/>
	<g id="XMLID_25_">
		<path id="XMLID_30_" class="st3" d="M119.2,157.7c2.1-0.2,4.1-0.7,6-1.4c1.3-0.5,2.5-1.1,3.6-1.9c6.6-4.2,13.5-11.9,12.7-20.3"/>
		<path id="XMLID_29_" class="st3" d="M105.4,159.5c2.1,0.1,4.2-0.2,6.1-0.7"/>
	</g>
	<path id="XMLID_32_" class="st3" d="M160.5,97.6c0.2-2.1,0.1-4.2-0.3-6.1c-0.3-1.4-0.6-2.7-1.2-3.9c-2.9-7.3-9.2-15.5-17.5-16.3"/>
</g>
</svg>
