<?xml version="1.0" encoding="utf-8"?>
<!-- Generator: Adobe Illustrator 19.0.0, SVG Export Plug-In . SVG Version: 6.00 Build 0)  -->
<svg version="1.1" id="Isolation_Mode" xmlns="http://www.w3.org/2000/svg" xmlns:xlink="http://www.w3.org/1999/xlink" x="0px"
	 y="0px" viewBox="0 0 192 192" style="enable-background:new 0 0 192 192;" xml:space="preserve">
<style type="text/css">
	.st0{fill:#3A1C34;}
</style>
<g>
	<g>
		<g>
			<path class="st0" d="M28.4,142.2c-1.8,0-3.6-1-4.5-2.8l-9.4-18.8C-1.7,103.9-1.5,77.2,15,60.7C31.7,44,58.9,44,75.5,60.7
				c16.5,16.5,16.7,43.2,0.6,59.9l-9.5,18.8c-1.2,2.5-4.3,3.5-6.7,2.2c-2.5-1.2-3.5-4.3-2.2-6.7l9.9-19.5c0.2-0.5,0.6-0.9,0.9-1.3
				c12.8-12.8,12.8-33.6,0-46.4C55.7,55,34.9,55,22.1,67.8c-12.8,12.8-12.8,33.6,0,46.4c0.4,0.4,0.7,0.8,0.9,1.3l9.8,19.5
				c1.2,2.5,0.2,5.5-2.2,6.7C29.9,142,29.1,142.2,28.4,142.2z"/>
		</g>
		<g>
			<path class="st0" d="M28.5,154.6c-2.5,0-4.6-1.9-5-4.4c-0.3-2.7,1.6-5.2,4.4-5.6l33.6-4.1c2.7-0.3,5.2,1.6,5.6,4.4
				c0.3,2.7-1.6,5.2-4.4,5.6l-33.6,4.1C28.9,154.6,28.7,154.6,28.5,154.6z"/>
		</g>
		<g>
			<path class="st0" d="M28.5,167.2c-2.5,0-4.6-1.9-5-4.4c-0.3-2.7,1.6-5.2,4.4-5.6l33.6-4.1c2.7-0.3,5.2,1.6,5.6,4.4
				c0.3,2.7-1.6,5.2-4.4,5.6l-33.6,4.1C28.9,167.2,28.7,167.2,28.5,167.2z"/>
		</g>
		<g>
			<path class="st0" d="M45.2,184.1c-7.4,0-13.4-6-13.4-13.4c0-2.8,2.2-5,5-5s5,2.2,5,5c0,1.9,1.5,3.4,3.4,3.4
				c1.9,0,3.4-1.5,3.4-3.4c0-2.8,2.2-5,5-5s5,2.2,5,5C58.6,178.1,52.6,184.1,45.2,184.1z"/>
		</g>
	</g>
	<g>
		<g>
			<path class="st0" d="M24.3,96c-2.8,0-5-2.2-5-5c0-14.3,11.7-26,26-26c2.8,0,5,2.2,5,5s-2.2,5-5,5c-8.8,0-16,7.2-16,16
				C29.3,93.7,27,96,24.3,96z"/>
		</g>
	</g>
</g>
<g>
	<g>
		<path class="st0" d="M158.6,133.8H85.5c-2.8,0-5-2.2-5-5c0-2.8,2.2-5,5-5h73.1c12,0,21.7-9.7,21.7-21.7V41.7
			c0-12-9.7-21.7-21.7-21.7H65.1c-12,0-21.7,9.7-21.7,21.7c0,2.8-2.2,5-5,5s-5-2.2-5-5c0-17.5,14.2-31.7,31.7-31.7h93.5
			c17.5,0,31.7,14.2,31.7,31.7V102C190.4,119.5,176.1,133.8,158.6,133.8z"/>
	</g>
	<g>
		<path class="st0" d="M111.9,75c-1.1,0-2.2-0.4-3.1-1.1L46.4,24.1c-2.2-1.7-2.5-4.9-0.8-7c1.7-2.2,4.9-2.5,7-0.8l59.3,47.3
			l59.4-47.4c2.2-1.7,5.3-1.4,7,0.8c1.7,2.2,1.4,5.3-0.8,7L115,73.9C114.1,74.6,113,75,111.9,75z"/>
	</g>
</g>
</svg>
