<?xml version="1.0" encoding="utf-8"?>
<!-- Generator: Adobe Illustrator 19.0.0, SVG Export Plug-In . SVG Version: 6.00 Build 0)  -->
<svg version="1.1" id="Layer_2" xmlns="http://www.w3.org/2000/svg" xmlns:xlink="http://www.w3.org/1999/xlink" x="0px" y="0px"
	 viewBox="0 0 167.5 79.1" style="enable-background:new 0 0 167.5 79.1;" xml:space="preserve">
<style type="text/css">
	.st0{fill:#753F67;}
	.st1{fill:#FFFFFF;}
	.st2{fill:#73C9BE;}
	.st3{fill:#70C4BB;}
	.st4{fill:#764068;}
</style>
<g id="XMLID_112_">
	<path id="XMLID_48_" class="st0" d="M76.3,56.9c-0.4,0-0.8-0.4-0.8-0.8c0-15.3-12.4-27.7-27.7-27.7c-12.9,0-24,8.8-27,21.4
		c-0.1,0.4-0.5,0.7-1,0.6c-0.4-0.1-0.7-0.5-0.6-1c3.1-13.3,14.8-22.6,28.5-22.6c16.2,0,29.3,13.1,29.3,29.3
		C77.1,56.5,76.8,56.9,76.3,56.9z"/>
</g>
<g id="XMLID_111_">
	<path id="XMLID_47_" class="st0" d="M19.3,56.9c-0.4,0-0.8-0.4-0.8-0.8c0-1.2,0.1-2.3,0.2-3.4c0.1-0.4,0.5-0.7,0.9-0.7
		c0.4,0.1,0.8,0.4,0.7,0.9c-0.1,1.1-0.2,2.2-0.2,3.3C20.1,56.5,19.8,56.9,19.3,56.9z"/>
</g>
<g id="XMLID_98_">
	<path id="XMLID_46_" class="st0" d="M0.8,56.2c-0.4,0-0.8-0.4-0.8-0.8c0-9.7,7.9-17.6,17.6-17.6c2.3,0,4.5,0.4,6.6,1.3
		c0.4,0.2,0.6,0.6,0.4,1c-0.2,0.4-0.6,0.6-1,0.4c-1.9-0.8-4-1.2-6-1.2c-8.8,0-16,7.2-16,16C1.6,55.8,1.2,56.2,0.8,56.2z"/>
</g>
<g id="XMLID_97_">
	<path id="XMLID_45_" class="st0" d="M90.4,56.7c-0.4,0-0.8-0.4-0.8-0.8c0-4.5-3.7-8.1-8.1-8.1c-1.7,0-3.3,0.5-4.7,1.5
		c-0.4,0.3-0.9,0.2-1.1-0.2c-0.3-0.4-0.2-0.9,0.2-1.1c1.7-1.2,3.6-1.8,5.6-1.8c5.4,0,9.7,4.4,9.7,9.7C91.2,56.3,90.8,56.7,90.4,56.7
		z"/>
</g>
<g id="XMLID_32_">
	<path id="XMLID_44_" class="st0" d="M125.8,56.7c0,0-0.1,0-0.1,0c-0.4-0.1-0.7-0.5-0.7-0.9c0.3-2,1.3-3.8,2.7-5.3
		c3.8-3.8,10-3.8,13.8,0c0.3,0.3,0.3,0.8,0,1.1s-0.8,0.3-1.1,0c-3.2-3.2-8.3-3.2-11.5,0c-1.2,1.2-2,2.7-2.3,4.4
		C126.6,56.4,126.2,56.7,125.8,56.7z"/>
</g>
<g id="XMLID_1_">
	<path id="XMLID_43_" class="st0" d="M96.3,56.7h-5.9c-0.4,0-0.8-0.4-0.8-0.8s0.4-0.8,0.8-0.8h5.9c0.4,0,0.8,0.4,0.8,0.8
		S96.7,56.7,96.3,56.7z"/>
</g>
<g id="XMLID_31_">
	<path id="XMLID_42_" class="st0" d="M125.8,56.7H120c-0.4,0-0.8-0.4-0.8-0.8s0.4-0.8,0.8-0.8h5.9c0.4,0,0.8,0.4,0.8,0.8
		S126.3,56.7,125.8,56.7z"/>
</g>
<g id="XMLID_2_">
	<path id="XMLID_41_" class="st0" d="M119.6,56.1c-0.4,0-0.8-0.4-0.8-0.8V22.5c0-1.1-0.9-1.9-1.9-1.9H99c-1.1,0-1.9,0.9-1.9,1.9
		v32.9c0,0.4-0.4,0.8-0.8,0.8s-0.8-0.4-0.8-0.8V22.5c0-1.9,1.6-3.5,3.5-3.5h17.9c1.9,0,3.5,1.6,3.5,3.5v32.9
		C120.4,55.8,120.1,56.1,119.6,56.1z"/>
</g>
<g id="XMLID_5_">
	<path class="st0" d="M98.2,56.1V24.2c0-1.5,1.2-2.7,2.7-2.7h13.9c1.5,0,2.7,1.2,2.7,2.7v31.9"/>
</g>
<g id="XMLID_34_">
	<path id="XMLID_40_" class="st0" d="M166.7,57c-0.4,0-0.8-0.4-0.8-0.8c0-6.7-5.5-12.2-12.2-12.2c-5.3,0-10,3.4-11.6,8.4
		c-0.1,0.4-0.6,0.7-1,0.5c-0.4-0.1-0.7-0.6-0.5-1c1.8-5.7,7.1-9.6,13.1-9.6c7.6,0,13.8,6.2,13.8,13.8C167.5,56.6,167.1,57,166.7,57z
		"/>
</g>
<g id="XMLID_24_">
	<path id="XMLID_39_" class="st0" d="M140.7,57c-0.4,0-0.8-0.4-0.8-0.8c0-0.6,0-1.2,0.1-1.8c0.1-0.4,0.5-0.8,0.9-0.7
		c0.4,0.1,0.7,0.5,0.7,0.9c-0.1,0.5-0.1,1.1-0.1,1.6C141.5,56.6,141.1,57,140.7,57z"/>
</g>
<g id="XMLID_3_">
	<path id="XMLID_30_" class="st1" d="M117.8,56.4l-7.8,4c-1.1-0.5-2-1.7-2-3.2V18.5c0-1.5,0.9-2.7,2-2.7l7.8,4c1.1,0,2,2.4,2,3.9
		v29.5C119.8,54.7,118.9,55.9,117.8,56.4z"/>
	<path id="XMLID_35_" class="st0" d="M110,61.2c-0.1,0-0.2,0-0.3-0.1c-1.5-0.6-2.5-2.2-2.5-3.9V18.5c0-1.9,1.3-3.5,2.8-3.5
		c0.1,0,0.3,0,0.4,0.1L118,19c1.7,0.2,2.6,3.1,2.6,4.7v29.5c0,1.7-1,3.3-2.5,3.9l-7.8,4C110.2,61.1,110.1,61.2,110,61.2z
		 M109.8,16.6c-0.5,0.1-1,0.9-1,1.9v38.7c0,1.1,0.6,1.9,1.2,2.3l7.4-3.8c0,0,0,0,0,0c0.8-0.3,1.5-1.2,1.5-2.5V23.7
		c0-1.4-0.8-3-1.2-3.1c-0.1,0-0.2,0-0.4-0.1L109.8,16.6z"/>
</g>
<g id="XMLID_4_">
	<path id="XMLID_33_" class="st0" d="M110.5,39.8c-0.3,0-0.5-0.2-0.5-0.5V36c0-0.3,0.2-0.5,0.5-0.5s0.5,0.2,0.5,0.5v3.3
		C111,39.6,110.8,39.8,110.5,39.8z"/>
</g>
<g id="XMLID_8_">
	<g id="XMLID_11_">
		<path class="st2" d="M77.4,70.5h4.1c0.9,0,1.6,0.7,1.6,1.6s-0.7,1.6-1.6,1.6h16.2c-0.9,0-1.6-0.7-1.6-1.6c0-0.9,0.7-1.6,1.6-1.6
			h7.6c0.9,0,1.6-0.7,1.6-1.6c0-0.9-0.7-1.6-1.6-1.6h-3.1c-0.9,0-1.6-0.7-1.6-1.6c0-0.9,0.7-1.6,1.6-1.6h2.3c0.9,0,1.6-0.7,1.6-1.6
			c0-0.9-0.7-1.6-1.6-1.6H87.6c-0.9,0-1.6,0.7-1.6,1.6c0,0.9,0.7,1.6,1.6,1.6h1.4c0.9,0,1.6,0.7,1.6,1.6s-0.7,1.6-1.6,1.6H77.4
			c-0.9,0-1.6,0.7-1.6,1.6C75.9,69.8,76.6,70.5,77.4,70.5z"/>
	</g>
	<g id="XMLID_15_">
		<path class="st2" d="M107.3,73.7H72.4c-0.9,0-1.6,0.7-1.6,1.6s0.7,1.6,1.6,1.6h34.8c0.9,0,1.6-0.7,1.6-1.6S108.1,73.7,107.3,73.7z
			"/>
	</g>
</g>
<g id="XMLID_14_">
	<path class="st2" d="M159.7,65.5h-14.4c-0.7,0-1.4-0.6-1.4-1.4c0-0.7,0.6-1.4,1.4-1.4h9c0.7,0,1.4-0.6,1.4-1.4
		c0-0.7-0.6-1.4-1.4-1.4h-25.4c-0.7,0-1.4,0.6-1.4,1.4c0,0.7,0.6,1.4,1.4,1.4h3c0.7,0,1.4,0.6,1.4,1.4c0,0.7-0.6,1.4-1.4,1.4h-8.9
		c-0.7,0-1.4,0.6-1.4,1.4c0,0.7,0.6,1.4,1.4,1.4h36.7c0.7,0,1.4-0.6,1.4-1.4C161,66.1,160.4,65.5,159.7,65.5z"/>
</g>
<g id="XMLID_28_">
	<path class="st3" d="M48.7,31.9c-0.9,0-1.7,0.1-2.6,0.1c11.8,1.3,21,11.3,21,23.5s-9.2,22.2-21,23.5c0.9,0.1,1.7,0.1,2.6,0.1
		c13,0,23.6-10.6,23.6-23.6S61.8,31.9,48.7,31.9z"/>
</g>
<g id="XMLID_9_">
	<path id="XMLID_6_" class="st1" d="M89.7,24.7c0,0-0.2,0.1-0.6,0.2c-0.4,0.1-0.9,0.2-1.5,0.3c-0.6,0.1-2.9,0.3-3-0.7
		c0-0.2,0.1-0.4,0.3-0.6c0.8-0.9,2-1.1,3-1.7c0.9-0.6,1.6-1.5,2.1-2.5c1.1-2,1.5-4.4,1.3-6.6c-0.4-3.4-2.4-6.6-5.4-8.3
		c-0.4-0.2-0.8-0.4-1.2-0.6c-4-1.6-10.1-1.4-13.8,0.9c-3.2,1.9-5.3,5.4-5.3,9.1c0,3.4,1.6,6.6,4.4,8.6c1.4,1.1,3.1,1.6,4.9,1.9
		c1.2,0.2,2.4,0,3.5,0.4c1.6,0.6,2.4,2.2,4.1,2.7c0.6,0.2,1.3,0.3,1.9,0.3c0.6,0,1.1-0.1,1.6-0.3c0.9-0.3,1.7-0.7,2.3-1.1
		c0.6-0.4,1-0.8,1.3-1c0.3-0.3,0.4-0.4,0.4-0.4C90,25,90,24.9,90,24.8C90,24.7,89.8,24.6,89.7,24.7z"/>
	<path id="XMLID_25_" class="st0" d="M84.1,28.8c-0.6,0-1.2-0.1-1.9-0.3c-1.1-0.3-1.9-1-2.5-1.6c-0.5-0.5-1.1-0.9-1.7-1.2
		c-0.6-0.2-1.2-0.3-2-0.3c-0.4,0-0.9,0-1.4-0.1c-2.1-0.3-3.8-1-5.3-2c-2.9-2.2-4.7-5.6-4.7-9.3c0-4,2.2-7.7,5.6-9.8
		C74.2,2.1,80.6,1.7,85,3.4c0.4,0.2,0.9,0.4,1.3,0.6c3.2,1.8,5.4,5.1,5.8,8.9c0.3,2.5-0.2,5-1.4,7.1c-0.7,1.2-1.5,2.1-2.4,2.7
		c-0.4,0.3-0.9,0.5-1.4,0.7c-0.5,0.2-1,0.5-1.4,0.8c0.4,0.1,1.2,0.1,2,0c0.4-0.1,0.9-0.1,1.4-0.3c0.3-0.1,0.5-0.1,0.5-0.2
		c0.6-0.2,1.2,0.1,1.4,0.6c0.1,0.4,0,0.8-0.2,1.1c0,0-0.2,0.2-0.5,0.5c-0.5,0.4-0.9,0.8-1.4,1.1c-0.6,0.4-1.4,0.9-2.5,1.2
		c-0.6,0.2-1.2,0.3-1.8,0.3C84.3,28.8,84.2,28.8,84.1,28.8z M78.8,3.9c-2.8,0-5.6,0.6-7.5,1.8c-3,1.8-4.9,5-4.9,8.4
		c0,3.1,1.5,6.1,4,8c1.2,0.9,2.7,1.5,4.5,1.7c0.4,0.1,0.8,0.1,1.2,0.1c0.8,0,1.7,0,2.5,0.4c0.8,0.3,1.5,0.9,2.1,1.4
		c0.6,0.5,1.2,1,2,1.3c0.6,0.2,1.2,0.3,1.6,0.2c0.5,0,0.9-0.1,1.4-0.3c0.9-0.3,1.6-0.7,2-1c0,0,0,0,0,0c-1.1,0.1-3.7,0.3-3.9-1.4
		c-0.1-0.4,0.1-0.8,0.5-1.2c0.6-0.6,1.3-1,2-1.3c0.4-0.2,0.8-0.4,1.1-0.6c0.7-0.5,1.4-1.3,1.9-2.2c1-1.8,1.4-3.9,1.2-6.1
		c-0.4-3.3-2.2-6.1-5-7.7c-0.4-0.2-0.7-0.4-1.1-0.5C82.7,4.2,80.8,3.9,78.8,3.9z"/>
</g>
<g id="XMLID_7_">
	<g id="XMLID_12_">
		<path class="st4" d="M74.5,9.3c0,0.2,0.1,0.4,0.1,0.7c0,0.2,0,0.5,0,0.7c0,0.2,0,0.4,0,0.6c0,0.1,0,0.3,0,0.4s0,0.3,0,0.4h0.2
			c0.6,0,1.1,0.2,1.4,0.5c0.3,0.3,0.6,0.7,0.7,1.2c0.1,0.5,0.2,1,0.2,1.5c0,0.5,0,1,0,1.5c0,0.1,0,0.3,0,0.6c0,0.3,0,0.5,0,0.8
			c0,0.3,0,0.6-0.1,0.8c0,0.3-0.1,0.4-0.1,0.5h0c-0.1,0.1-0.2,0.2-0.3,0.2c-0.1,0-0.3,0.1-0.4,0.1c-0.3,0-0.4-0.1-0.5-0.2
			c-0.1-0.1-0.1-0.3-0.1-0.6c0-0.1,0-0.2,0-0.4c0-0.1,0-0.2,0-0.3v-2.8c0-0.1,0-0.3,0-0.6c0-0.2-0.1-0.5-0.1-0.7s-0.1-0.4-0.3-0.6
			c-0.1-0.2-0.3-0.2-0.5-0.2c0,0-0.1,0-0.1,0c0,0-0.1,0-0.1,0c0,0.1,0,0.4,0,0.7c0,0.3,0,0.7,0,1.1c0,0.4,0,0.9,0,1.3
			c0,0.5,0,0.9,0,1.3s0,0.7,0,1s0,0.4-0.1,0.5c-0.1,0.2-0.3,0.3-0.5,0.3c-0.1,0-0.3,0-0.4,0c-0.1,0-0.3-0.1-0.4-0.1
			c0-0.7,0-1.3-0.1-2c0-0.7,0-1.3,0-2v-1.4c0-0.3,0-0.7,0-1c0-0.3,0-0.7,0-1c0-0.5,0-1.1,0-1.6s0-1.1,0.1-1.6c0.2,0,0.3,0,0.4-0.1
			s0.3,0,0.4,0c0.1,0,0.3,0,0.4,0.1L74.5,9.3z"/>
	</g>
	<g id="XMLID_16_">
		<path class="st4" d="M78.2,9.9c0.2-0.1,0.4-0.2,0.5-0.2c0.2,0,0.4,0.1,0.5,0.2c0.1,0.1,0.2,0.3,0.2,0.5c0,0.1,0,0.1,0,0.2
			s-0.1,0.2-0.1,0.3c-0.1,0.1-0.2,0.2-0.3,0.2c-0.1,0.1-0.2,0.1-0.4,0.1c-0.3,0-0.6-0.1-0.6-0.2c-0.1-0.1-0.1-0.3-0.1-0.5
			C77.9,10.4,78,10.1,78.2,9.9z M79,11.7c0.3,0,0.5,0,0.5,0.1c0.1,0.1,0.1,0.3,0.1,0.5c0,0.9,0,1.7-0.1,2.6
			c-0.1,0.9-0.1,1.7-0.1,2.6c0,0.3,0,0.6,0,0.9c0,0.3,0,0.6,0,0.8c0,0.2-0.1,0.3-0.2,0.4c-0.1,0.1-0.3,0.1-0.4,0.1
			c-0.1,0-0.2,0-0.3,0c-0.1,0-0.2,0-0.3-0.1h0c0,0,0,0-0.1,0c0,0,0,0-0.1,0s0,0-0.1,0c0,0-0.1,0-0.1,0c-0.1-0.2-0.1-0.5-0.1-0.7
			c0-0.8,0-1.6,0-2.3c0-0.8,0-1.5,0-2.3c0-0.3,0-0.6,0-1s0-0.6,0-0.9c0-0.1,0-0.3,0.1-0.3c0.1-0.1,0.1-0.1,0.2-0.2s0.1-0.1,0.2-0.1
			c0.1,0,0.1,0,0.1,0L79,11.7z"/>
	</g>
	<g id="XMLID_19_">
		<path class="st4" d="M81.9,16.6c0,0.1,0,0.2,0,0.4c0,0.1-0.1,0.2-0.1,0.3h0c-0.1,0.1-0.2,0.2-0.4,0.3c-0.2,0-0.3,0-0.5,0
			c-0.1,0-0.2,0-0.3,0c-0.1,0-0.2,0-0.2,0c-0.1,0-0.1-0.1-0.1-0.2c0-0.1,0-0.2,0-0.3c0-0.2,0-0.3,0-0.5c0-0.2,0-0.3,0-0.5
			c0-1.1,0-2.1-0.1-3.2c-0.1-1-0.1-2.1-0.1-3.2c0-0.1,0-0.3,0-0.4c0-0.1,0-0.3,0.1-0.4s0.1-0.2,0.2-0.3c0.1-0.1,0.2-0.1,0.4-0.1
			c0.2,0,0.5,0,0.7,0.1c0.1,0.5,0.1,1.1,0.1,1.6c0,0.5,0,1.1,0,1.6c0,0.8,0.1,1.5,0.1,2.3S81.9,15.9,81.9,16.6z M81.3,18.2
			c0.2,0,0.4,0.1,0.5,0.3c0.1,0.2,0.2,0.4,0.2,0.6c0,0.2-0.1,0.4-0.3,0.5c-0.2,0.1-0.4,0.2-0.6,0.2c-0.2,0-0.3-0.1-0.5-0.3
			c-0.1-0.2-0.2-0.3-0.2-0.5c0-0.2,0.1-0.4,0.3-0.5C80.9,18.3,81.1,18.2,81.3,18.2z"/>
	</g>
</g>
<g id="XMLID_10_">
	<circle class="st4" cx="83.3" cy="35.6" r="3.7"/>
</g>
<g id="XMLID_22_">
	<circle class="st4" cx="67.8" cy="27.7" r="3.1"/>
</g>
<g id="XMLID_26_">
	<circle class="st4" cx="98.2" cy="3.1" r="3.1"/>
</g>
<g id="XMLID_23_">
	<circle class="st4" cx="74.4" cy="34.3" r="1.4"/>
</g>
</svg>
