<?xml version="1.0" encoding="utf-8"?>
<!-- Generator: Adobe Illustrator 19.0.0, SVG Export Plug-In . SVG Version: 6.00 Build 0)  -->
<svg version="1.1" id="Icons" xmlns="http://www.w3.org/2000/svg" xmlns:xlink="http://www.w3.org/1999/xlink" x="0px" y="0px"
	 viewBox="0 0 21.3 21.3" style="enable-background:new 0 0 21.3 21.3;" xml:space="preserve">
<style type="text/css">
	.st0{fill:#FFFFFF;}
</style>
<g>
	<path class="st0" d="M11.5,7.4c0,0.4-0.3,0.7-0.6,0.7c-0.4,0-0.6-0.3-0.6-0.7V7.2c0-0.4,0.3-0.6,0.6-0.6c0.4,0,0.6,0.3,0.6,0.6V7.4
		z M11.5,9.6v4.7c0,0.4-0.3,0.6-0.6,0.6c-0.4,0-0.6-0.3-0.6-0.6V9.6c0-0.4,0.3-0.7,0.6-0.7C11.2,9,11.5,9.2,11.5,9.6z"/>
</g>
<g>
	<path class="st0" d="M10.7,21.3C4.8,21.3,0,16.5,0,10.7C0,4.8,4.8,0,10.7,0c5.9,0,10.7,4.8,10.7,10.7
		C21.3,16.5,16.5,21.3,10.7,21.3z M10.7,2C5.9,2,2,5.9,2,10.7s3.9,8.7,8.7,8.7s8.7-3.9,8.7-8.7S15.4,2,10.7,2z"/>
</g>
</svg>
