<?xml version="1.0" encoding="utf-8"?>
<!-- Generator: Adobe Illustrator 19.0.0, SVG Export Plug-In . SVG Version: 6.00 Build 0)  -->
<svg version="1.1" id="Layer_2" xmlns="http://www.w3.org/2000/svg" xmlns:xlink="http://www.w3.org/1999/xlink" x="0px" y="0px"
	 viewBox="0 0 192 192" style="enable-background:new 0 0 192 192;" xml:space="preserve">
<style type="text/css">
	.st0{fill:#392B4A;}
</style>
<g id="XMLID_18_">
	<path id="XMLID_16_" class="st0" d="M127.8,184.1h-14.3c-3.9,0-7-3.1-7-7v-6.2c-10.4,1.8-20.7,1.5-30.5-0.4v6.7c0,3.9-3.1,7-7,7
		H54.7c-3.9,0-7-3.1-7-7v-18.4c-5.9-3.9-11-8.6-15.3-13.9H20.3c-8.4,0-15.3-6.8-15.3-15.3v-22.9c0-8.4,6.9-15.3,15.3-15.3h1.6
		c1.8-5.6,4.5-10.9,8-15.9c-0.5-1.1-1-2.2-1.5-3.3l-0.1-0.2c-0.2-0.4-0.5-1-0.9-1.7c-1.4-2.4-3.2-5.7-3.6-8.8
		c-0.5-3.7,1.1-6.7,4.3-8c5.3-2.1,13.2,0.7,15.5,1.6c1.7,0.7,3.3,1.6,4.8,2.6c2.8-1.8,5.7-3.5,8.8-4.9l3.8-1.8l1.6,3.9
		c1.6,3.9,4.1,7.5,7.1,10.5c14.1-8.7,32-9.1,46.4-1c2.6-2.8,4.8-6.1,6.3-9.7L124,51l3.8,1.8c23.7,11.1,38.4,32.5,38.4,55.8
		c0,20.8-11.7,40.1-31.3,52v16.6C134.8,181,131.7,184.1,127.8,184.1z M114.5,176.1h12.3v-20.2l2-1.1c18.3-10.4,29.3-27.6,29.3-46.2
		c0-19-11.5-36.6-30.2-46.8c-2.2,4-5.1,7.7-8.5,10.8l-2.3,2.1l-2.6-1.7c-13-8.6-30.2-8.2-42.8,0.9l-2.5,1.8l-2.4-2
		c-3.9-3.2-7.2-7.2-9.7-11.7c-2.3,1.3-4.5,2.6-6.5,4.1L47.9,68l-2.4-2.2c-1.4-1.3-3.1-2.4-4.9-3.1c-3.2-1.3-7-2-8.9-1.8
		c0.4,1.6,1.7,3.9,2.6,5.5c0.5,0.9,0.9,1.7,1.3,2.3l0.1,0.2c0.8,1.7,1.6,3.5,2.5,5.3l1.1,2.2l-1.5,2c-4.3,5.6-7.3,11.7-9,18l-0.8,3
		h-7.7c-4,0-7.3,3.3-7.3,7.3v22.9c0,4,3.3,7.3,7.3,7.3h16l1.2,1.6c4.4,5.7,9.8,10.7,16.3,14.7l1.9,1.2v21.8H68v-15.9l5,1.3
		c11.6,3.1,24,3.4,36.6,0.6l4.9-1.1V176.1z"/>
</g>
<g id="XMLID_6_">
	<path id="XMLID_12_" class="st0" d="M174.6,122.9c-2.4,0-4.6-0.8-6.1-2.4c-1.8-1.9-2.2-4.6-1.1-7.4c1.3-3.2,4.2-5,7-5.7
		c-3-1.5-7.1-2-10.3-1.7c-1.4,0.1-2.6-0.9-2.7-2.3c-0.1-1.4,0.9-2.6,2.3-2.7c5.5-0.5,12.9,0.9,17,5.1c0.6,0.6,1.2,1.3,1.6,2.1
		c1.7,0.6,3.3,1.5,4.6,2.7c2.2,2,3.5,4.7,3.5,7.5c0,1.4-1.1,2.5-2.5,2.5c-1.4,0-2.5-1.1-2.5-2.5c0-1.6-0.8-2.8-1.6-3.6
		c0,0.1,0,0.2,0,0.3c-0.4,3.5-2.6,6.3-5.9,7.4C176.8,122.7,175.7,122.9,174.6,122.9z M177.6,112.1c-0.2,0-0.4,0-0.6,0
		c-2,0.2-4.3,1.1-5,2.9c-0.6,1.4-0.1,1.9,0.1,2.1c0.7,0.7,2.4,1.1,4.1,0.5c1.1-0.4,2.4-1.2,2.6-3.2c0.1-0.8,0-1.6-0.1-2.3
		C178.3,112.1,178,112.1,177.6,112.1z"/>
</g>
<g id="XMLID_8_">
	<path id="XMLID_11_" class="st0" d="M122.6,79.5c-1,0-2-0.4-2.8-1.2c-14.7-14.7-38.5-14.7-53.2,0c-1.6,1.6-4.1,1.6-5.7,0
		c-1.6-1.6-1.6-4.1,0-5.7c17.8-17.8,46.7-17.8,64.5,0c1.6,1.6,1.6,4.1,0,5.7C124.6,79.1,123.6,79.5,122.6,79.5z"/>
</g>
<g id="XMLID_9_">
	<circle class="st0" cx="45.5" cy="96.7" r="3.4"/>
</g>
<g id="XMLID_13_">
	<path id="XMLID_3_" class="st0" d="M69.9,74.7l-2.4-2C58.2,65,52.8,53.6,52.8,41.5c0-22.3,18.1-40.4,40.4-40.4
		c22.3,0,40.4,18.1,40.4,40.4c0,11.4-4.9,22.4-13.5,30l-2.3,2.1l-2.6-1.7c-13-8.6-30.2-8.2-42.8,0.9L69.9,74.7z M93.2,9.1
		c-17.9,0-32.4,14.5-32.4,32.4c0,8.7,3.5,17,9.6,23c14.1-8.8,32-9.1,46.5-1c5.6-6,8.7-13.9,8.7-22C125.6,23.7,111,9.1,93.2,9.1z"/>
</g>
<g id="XMLID_1_">
	<g id="XMLID_4_">
		<path class="st0" d="M91.8,53v-3.7c-2.4-0.1-4.8-0.8-6.2-1.7l1-3.6c1.5,0.9,3.6,1.7,6,1.7c2.4,0,4.1-1.2,4.1-3
			c0-1.7-1.3-2.8-4.2-3.9c-4-1.5-6.6-3.3-6.6-6.8c0-3.3,2.3-5.8,6.2-6.5v-3.7h3.1v3.6c2.4,0.1,4.1,0.6,5.3,1.3l-1,3.5
			c-0.9-0.4-2.6-1.3-5.2-1.3c-2.7,0-3.6,1.4-3.6,2.7c0,1.6,1.4,2.4,4.6,3.7c4.3,1.6,6.2,3.7,6.2,7.1c0,3.3-2.3,6.1-6.5,6.8V53H91.8z
			"/>
	</g>
</g>
</svg>
