<?xml version="1.0" encoding="utf-8"?>
<!-- Generator: Adobe Illustrator 19.0.0, SVG Export Plug-In . SVG Version: 6.00 Build 0)  -->
<svg version="1.1" id="Layer_1" xmlns="http://www.w3.org/2000/svg" xmlns:xlink="http://www.w3.org/1999/xlink" x="0px" y="0px"
	 viewBox="-463 465 96 96" style="enable-background:new -463 465 96 96;" xml:space="preserve">
<style type="text/css">
	.st0{fill:#FFFFFF;}
</style>
<g>
	<path class="st0" d="M-392.6,554.9h-36.9c-3.2,0-5.8-2.6-5.8-5.8v-42.8c0-2.8,1.8-4.1,2.7-4.8c0.1-0.1,0.2-0.1,0.3-0.2
		c2.7-2.1,5.2-5.8,6.6-9.9c0.4-1.1,0.4-3.6,0.4-5.7c0-3.2,0-6.9,1-9.9c1.4-4.3,4.7-6.6,9.2-6.6c0,0,0,0,0,0c4.3,0,8.6,2.4,11.6,6.3
		c2.3,3.1,5.7,9.6,4.2,20.5h13.7c5.3,0,10.3,3.2,13,8.5c2.4,4.5,2.5,9.7,0.4,13.7c0.5,2.2,0.6,4.6,0.1,6.7c-0.3,1.3-0.8,2.6-1.4,3.8
		c-0.2,0.4-0.5,0.7-0.9,1.3c0,5.3-1.4,9.4-4.3,12.2c-0.4,3.2-1.9,6.5-4,9C-385.4,554-390.5,554.9-392.6,554.9z M-428.3,547.9h35.8
		c1.4,0,3.9-0.8,4.5-1.5c1.4-1.6,2.4-4.1,2.4-6.1l0-1.7l1.4-1c2-1.5,2.9-4.3,2.7-8.5c-0.1-1.5,0.7-2.4,1.5-3.5
		c0.1-0.1,0.2-0.3,0.3-0.4c0.3-0.6,0.5-1.2,0.7-1.8c0.3-1.4,0.2-3.1-0.3-4.5l-0.6-1.7l1-1.5c1.8-2.5,1.2-5.8,0-8
		c-1.2-2.3-3.6-4.7-6.8-4.7H-408l1-4.3c2.5-10.8-0.3-16.5-2.2-19c-1.6-2.2-4-3.5-6-3.5c0,0,0,0,0,0c-1.5,0-2.1,0.4-2.6,1.9
		c-0.7,2-0.7,5-0.7,7.7c0,3,0,5.8-0.8,8c-1.8,5.4-5.1,10.2-8.9,13.2c-0.1,0.1-0.2,0.1-0.3,0.2V547.9z"/>
</g>
<g>
	<path class="st0" d="M-447.6,556.2h-5c-5.8,0-10.5-4.7-10.5-10.5v-37c0-5.8,4.7-10.5,10.5-10.5h5c5.8,0,10.5,4.7,10.5,10.5v37
		C-437,551.5-441.8,556.2-447.6,556.2z M-452.5,505.2c-1.9,0-3.5,1.6-3.5,3.5v37c0,1.9,1.6,3.5,3.5,3.5h5c1.9,0,3.5-1.6,3.5-3.5v-37
		c0-1.9-1.6-3.5-3.5-3.5H-452.5z"/>
</g>
<g>
	<path class="st0" d="M-382.2,543.8H-394c-1.9,0-3.5-1.6-3.5-3.5s1.6-3.5,3.5-3.5h11.8c1.9,0,3.5,1.6,3.5,3.5
		S-380.2,543.8-382.2,543.8z"/>
</g>
<g>
	<path class="st0" d="M-378,532.5h-15.8c-1.9,0-3.5-1.6-3.5-3.5s1.6-3.5,3.5-3.5h15.8c1.9,0,3.5,1.6,3.5,3.5S-376.1,532.5-378,532.5
		z"/>
</g>
<g>
	<path class="st0" d="M-376.2,521H-393c-1.9,0-3.5-1.6-3.5-3.5s1.6-3.5,3.5-3.5h16.8c1.9,0,3.5,1.6,3.5,3.5S-374.2,521-376.2,521z"
		/>
</g>
</svg>
