<?xml version="1.0" encoding="utf-8"?>
<!-- Generator: Adobe Illustrator 19.0.0, SVG Export Plug-In . SVG Version: 6.00 Build 0)  -->
<svg version="1.1" id="Isolation_Mode" xmlns="http://www.w3.org/2000/svg" xmlns:xlink="http://www.w3.org/1999/xlink" x="0px"
	 y="0px" viewBox="-81 77.9 28.7 39.1" style="enable-background:new -81 77.9 28.7 39.1;" xml:space="preserve">
<style type="text/css">
	.st0{fill:#392B4A;}
</style>
<g>
	<path class="st0" d="M-66.6,117c-2.9,0-14.4-14.8-14.4-24.7c0-8,6.4-14.4,14.4-14.4c7.9,0,14.4,6.4,14.4,14.4
		C-52.3,102.2-63.8,117-66.6,117z M-66.6,80.5c-6.5,0-11.8,5.3-11.8,11.8c0,8.7,9.2,20.1,11.7,22c2.5-1.9,11.7-13.3,11.7-22
		C-54.9,85.8-60.2,80.5-66.6,80.5z"/>
</g>
<g>
	<path class="st0" d="M-66.6,100.8c-3.9,0-7.1-3.2-7.1-7.1c0-3.9,3.2-7.1,7.1-7.1s7.1,3.2,7.1,7.1C-59.5,97.6-62.7,100.8-66.6,100.8
		z M-66.6,89.2c-2.5,0-4.5,2-4.5,4.5c0,2.5,2,4.5,4.5,4.5s4.5-2,4.5-4.5C-62.2,91.2-64.2,89.2-66.6,89.2z"/>
</g>
</svg>
