<?xml version="1.0" encoding="utf-8"?>
<!-- Generator: Adobe Illustrator 19.0.0, SVG Export Plug-In . SVG Version: 6.00 Build 0)  -->
<svg version="1.1" id="Layer_1" xmlns="http://www.w3.org/2000/svg" xmlns:xlink="http://www.w3.org/1999/xlink" x="0px" y="0px"
	 viewBox="0 0 250 250" style="enable-background:new 0 0 250 250;" xml:space="preserve">
<style type="text/css">
	.st0{fill:#FBC5AE;}
	.st1{fill:#753F66;}
	.st2{fill:#753F67;}
</style>
<path id="XMLID_9_" class="st0" d="M-1257.9,447.8c-13.4,0-25.7,4.7-35.1,12.6c-9.9-131.9-117-235.8-247.7-235.8
	c-123.4,0-225.7,92.5-245.1,213.9c-7.6-3-16.1-4.6-25.1-4.6c-32.1,0-58.1,21.1-58.1,47.2c0,26.1,26,47.2,58.1,47.2
	c6.1,0,11.9-0.8,17.4-2.1c-3.1,23-5.2,45,4.4,65.4c40.2,85.6,149.9,144.6,248.5,144.6c103.1,0,219.5-79.6,257.2-171.5
	c2.6-6.4,3.7-12.3,3.9-17.9c6.7,2.8,14,4.4,21.8,4.4c29.7,0,53.8-23.1,53.8-51.6C-1204.1,470.9-1228.2,447.8-1257.9,447.8z"/>
<g id="XMLID_21_">
	<path id="XMLID_6_" class="st1" d="M-1202.1,450.1c-16.7-19.1-44.3-31.6-69.6-27c7.2,4.1,14.4,8.1,21.5,12.2
		c-15.8-98.2-88.8-178-178.9-215.8c-22.5-9.4-45.6-15.4-69.4-20.2c-13.8-2.8-27.7-5.4-41.7-6.9c-13.2-1.4-26.6-0.8-39.8,0.1
		c-26.8,1.8-53.7,6.4-78.9,15.9c-26,9.9-49.4,24-70.3,42.4c-46.8,41.5-79.1,99.8-94.7,160c7.2-4.1,14.4-8.1,21.5-12.2
		c-37.3-12-76.6,12.6-93.5,45.8c-17.9,35.3-7.1,80.1,27.3,101c15.7,9.5,36.7,15.7,55.2,14.4c-5.8-5.8-11.7-11.7-17.5-17.5
		c6.7,55.3,24.3,109.3,63.2,150.6c35.5,37.6,84.8,61.9,134.2,75.5c49.3,13.5,101.7,16.8,151.5,4.5c48-11.9,92.1-37,128.9-69.8
		c41.9-37.2,73.9-85.4,91.9-138.5c-7.2,4.1-14.4,8.1-21.5,12.2c16.8,4,33.6,5.3,49.6-2c13.6-6.2,24.5-18,32.3-30.4
		C-1182.8,516.1-1180.4,476.9-1202.1,450.1c-5.8-7.1-18.8-6.5-24.7,0c-7,7.6-6.2,17.1,0,24.7c-1.7-2.1,1,1.7,1.3,2.2
		c0.4,0.7,2.2,4.6,1.1,1.7c1.2,3,1.9,6.1,2.5,9.2c-0.7-3.8,0.1,0.8,0.1,1.6c0.1,1.6,0.2,3.2,0.2,4.8c0.1,2.8,0.1,5.6-0.1,8.4
		c-0.1,0.8-0.1,1.6-0.2,2.4c0.1-0.7,0.2-1.4,0.3-2.2c0.3,0.8-0.5,2.9-0.7,3.8c-0.6,2.6-1.3,5.1-2.2,7.6c-0.4,1.3-0.9,2.5-1.4,3.8
		c1.6-4,0-0.1-0.5,0.8c-1.3,2.7-2.8,5.3-4.3,7.8c-0.7,1.2-1.5,2.3-2.3,3.4c-0.4,0.6-0.8,1.1-1.2,1.7c1.2-1.6,1.4-1.8,0.6-0.9
		c-1.8,2-3.5,4-5.4,5.9c-0.9,0.9-1.9,1.8-2.9,2.7c-0.5,0.4-1,0.8-1.5,1.2c1.7-1.3,2-1.6,1-0.8c-2.2,1-4.3,2.7-6.4,3.8
		c-0.5,0.3-1.1,0.5-1.7,0.8c2.1-0.9,2.6-1.1,1.4-0.7c-1,0.1-2.4,0.7-3.4,1c-3.7,1.2,1.2,0.2,0,0.2c-1.2-0.1-2.4,0.1-3.6,0.1
		c-2.9,0-5.8-0.3-8.8-0.6c-1.2-0.1-1.1-0.1,0.4,0.1c-0.9-0.1-1.7-0.3-2.6-0.4c-2-0.4-4.1-0.8-6.1-1.3c-9.6-2.3-18.4,3-21.5,12.2
		c-1.9,5.5-3.9,10.9-6,16.3c-0.2,0.6-2.1,5-0.5,1.2c-0.4,0.9-0.8,1.8-1.2,2.7c-1.4,3.1-2.8,6.2-4.3,9.2
		c-4.9,10.1-10.3,19.8-16.2,29.3c-3.1,5-6.4,9.8-9.7,14.6c-1.4,2-2.8,4-4.3,5.9c-0.9,1.2-1.8,2.3-2.6,3.5c2.5-3.3-1.3,1.7-1.8,2.2
		c-7,8.7-14.5,17.1-22.4,25.1c-8.2,8.3-17,16.1-26.1,23.4c-1.1,0.9-2.3,1.8-3.4,2.7c2.8-2.2,0.2-0.2-0.5,0.4
		c-2.1,1.6-4.3,3.2-6.5,4.7c-4.7,3.4-9.6,6.6-14.5,9.7c-9.8,6.2-20,11.8-30.4,16.7c-2.4,1.1-4.8,2.2-7.2,3.3
		c-0.9,0.4-3.9,1.7-0.5,0.2c-1.3,0.6-2.7,1.1-4,1.6c-5.3,2.1-10.8,4.1-16.2,5.9c-10.9,3.6-22.1,6.4-33.4,8.5
		c-2.6,0.5-5.2,0.9-7.8,1.3c-1,0.1-4.3,0.6-0.3,0.1c-1.4,0.2-2.9,0.4-4.3,0.5c-5.7,0.6-11.5,1.1-17.3,1.3c-11.9,0.4-23.9,0-35.7-1.1
		c-2.5-0.2-5.1-0.5-7.6-0.8c-0.6-0.1-5.7-0.7-1.5-0.2c-1.5-0.2-3.1-0.4-4.6-0.7c-6.2-0.9-12.3-2.1-18.4-3.3
		c-12.3-2.6-24.5-5.9-36.5-9.8c-5.5-1.8-10.9-3.8-16.3-5.9c-1.5-0.6-2.9-1.2-4.4-1.7c-0.4-0.2-5.2-2.2-1.6-0.7
		c-2.9-1.2-5.7-2.5-8.6-3.8c-11.2-5.2-22-11.1-32.4-17.7c-4.7-3-9.2-6.1-13.7-9.3c-1.2-0.9-2.4-1.8-3.6-2.7c3.2,2.4-0.7-0.6-1.1-0.9
		c-2.3-1.8-4.5-3.7-6.7-5.6c-4.8-4.2-9.4-8.6-13.8-13.2c-2.6-2.7-5-5.5-7.4-8.4c-1-1.2-2-2.5-3-3.7c-1.3-1.6-1.3-1.7-0.2-0.2
		c-0.6-0.8-1.3-1.7-1.9-2.5c-8-11-14.8-22.8-20.4-35.2c-0.7-1.4-1.3-2.9-1.9-4.3c1.4,3.3-0.4-0.9-0.6-1.6c-1.4-3.4-2.6-6.9-3.9-10.3
		c-2.3-6.5-4.2-13.1-6-19.7c-1.8-6.7-3.3-13.5-4.6-20.4c-0.7-3.7-1.3-7.5-1.9-11.2c-0.2-1.6-0.5-3.2-0.7-4.8
		c0.5,3.9-0.3-2.8-0.4-3.5c-1.1-8.8-7.2-18.3-17.5-17.5c-2.9,0.2-5.8,0.1-8.7-0.1c-2.1-0.2-3.1,0.1-0.3,0.1c-1.6,0-3.5-0.6-5.2-0.9
		c-3.1-0.6-6.3-1.4-9.3-2.4c-1.6-0.5-3.1-1-4.7-1.6c-0.7-0.2-1.3-0.5-2-0.8c1.4,0.5,1.9,0.9,0.2,0.1c-3-1.4-6-3-8.8-4.7
		c-0.8-0.5-1.6-1-2.4-1.6c-0.3-0.2-2.2-1.6-0.5-0.3c1.7,1.3-0.2-0.2-0.4-0.4c-0.9-0.8-1.7-1.5-2.6-2.3c-1.2-1.2-2.3-2.4-3.4-3.7
		c1.8,2-0.7-1-1.2-1.7c-1.1-1.6-2.1-3.3-3-5.1c-0.4-0.7-0.7-1.5-1.1-2.3c1.3,2.5-0.2-0.6-0.4-1.3c-1.2-3.5-1.7-6.9-2.3-10.5
		c0.8,4.2,0-0.1-0.1-1.2c-0.1-1.8-0.2-3.5-0.2-5.3c0-1.6,0.1-3.2,0.2-4.7c0-0.5,0.5-2.6,0-0.3c-0.5,2.5,0.1-0.4,0.3-1
		c0.7-3.2,1.7-6.1,2.8-9.2c0.8-2.4-1.3,2.6-0.1,0.3c0.3-0.6,0.6-1.3,0.9-1.9c0.7-1.5,1.6-2.9,2.4-4.4c0.9-1.4,1.8-2.8,2.7-4.2
		c0.4-0.6,0.9-1.2,1.3-1.8c1.4-2.2-2.6,3,0.4-0.5c2.1-2.4,4.2-4.7,6.4-6.9c1.2-1.2,2.5-2.3,3.8-3.4c0.5-0.5,1.1-0.9,1.7-1.4
		c1.6-1.3-2.3,1.5,0.5-0.3c3.1-2.1,6.2-4.1,9.6-5.7c0.6-0.3,1.2-0.6,1.9-0.9c2.2-1.1-3.9,1.3,0.2,0c1.5-0.5,2.9-1,4.4-1.4
		c1.7-0.5,3.4-0.7,5-1.1c2.3-0.6-3.3,0-0.9,0.2c0.8,0.1,1.7-0.1,2.5-0.1c1.1,0,2.3,0,3.4,0.1c0.3,0,3.6,0.4,2.3,0.2
		c-1.6-0.3,1.3,0.3,1.3,0.3c1.8,0.5,3.5,0.9,5.3,1.5c8.9,2.9,19.2-3.4,21.5-12.2c3.4-12.9,7.5-25.6,12.4-38.1
		c0.6-1.6,1.2-3.1,1.9-4.6c2.1-5.1-1.4,3,0.8-2c1.4-3,2.7-6.1,4.1-9.1c2.8-6,5.9-11.9,9.1-17.7c6.3-11.5,13.3-22.6,21-33.2
		c1-1.3,1.9-2.6,2.9-3.9c3.1-4.3-2.1,2.6,1.2-1.6c2-2.5,4-5,6.1-7.4c4.1-4.8,8.3-9.5,12.7-14.1c4.3-4.5,8.8-8.8,13.5-12.9
		c1.9-1.7,3.9-3.4,5.9-5.1c1.2-1,2.5-2,3.7-3c-2.9,2.3,2.2-1.6,2.7-2c9.9-7.2,20.4-13.4,31.4-18.7c1.4-0.6,2.7-1.3,4.1-1.9
		c0.5-0.2,5.1-2.1,1.4-0.6c2.6-1,5.1-2.1,7.7-3c5.9-2.2,11.9-4.1,18-5.7c5.4-1.5,10.9-2.8,16.4-3.9c3.1-0.6,6.1-1.2,9.2-1.7
		c1.5-0.3,3.1-0.5,4.6-0.7c2.1-0.3,2.1-0.3,0,0c1-0.1,2.1-0.3,3.1-0.4c13-1.5,26-2.2,39.1-2.3c5.6,0,11.1,0.2,16.7,0.8
		c1.6,0.2,3.2,0.4,4.8,0.6c-4-0.5,1.4,0.2,1.8,0.3c3.8,0.6,7.7,1.3,11.5,2c23.4,4.3,46.6,9.2,69,17.3c2.2,0.8,4.5,1.7,6.7,2.5
		c1.3,0.5,2.7,1.1,4,1.6c0.6,0.2,5,2.1,1.1,0.4c5.5,2.4,10.9,4.9,16.2,7.5c9.9,5,19.6,10.5,28.9,16.6c4.7,3.1,9.4,6.3,13.9,9.6
		c1.1,0.8,2.3,1.7,3.4,2.5c3.8,2.8-2.8-2.3,0.9,0.7c2.2,1.8,4.4,3.5,6.5,5.3c8.6,7.2,16.7,14.9,24.4,23c4.5,4.7,8.7,9.6,12.9,14.6
		c0.9,1.1,1.7,2.2,2.6,3.2c2.9,3.6-2.1-2.9,0.7,0.8c1.9,2.6,3.9,5.2,5.7,7.8c7.2,10.2,13.6,20.9,19.3,32c1.5,2.9,2.9,5.8,4.2,8.7
		c0.4,0.8,0.8,1.7,1.1,2.5c0.3,0.7,2.7,6.4,1,2.2c2.4,6,4.7,12.1,6.7,18.3c3.9,12,6.8,24.4,8.8,36.9c1.6,9.9,13.1,13.8,21.5,12.2
		c-2.6,0.5-0.1,0,1.2-0.1c0.9,0,1.8,0,2.7,0c2.9,0,1.1-0.6-0.3-0.1c0.6-0.2,2,0.4,2.6,0.5c2.3,0.5,4.5,1.2,6.7,1.9
		c0.9,0.3,1.8,0.7,2.7,1c-2.3-0.9-0.9-0.4,0.6,0.3c4.1,2,7.8,4.5,11.7,6.9c2.2,1.4-1.9-1.7,0,0c0.9,0.8,1.9,1.6,2.8,2.4
		c1.7,1.6,3.3,3.3,4.9,5c6,6.9,18.7,6.6,24.7,0C-1195.4,467.5-1195.7,457.5-1202.1,450.1z"/>
</g>
<path id="XMLID_18_" class="st2" d="M-1465.3,630c0,13.8-8.5,28-23.7,41.3c-12.8,11.1-30.1,22.7-52.7,22.7
	c-30.9,0-48.5-13.4-61.7-28c-7.9-8.7-16-20.1-16-29.7c0-25.4,30.1-34.3,79.5-34.3C-1490.4,602-1465.3,604.6-1465.3,630z"/>
<g id="XMLID_17_">
	<path id="XMLID_5_" class="st1" d="M-1521.3,196.5c-25.3-0.9-49.1,7.9-68.4,24.1c-17.9,15.1-30.1,36.9-36.8,59.1
		c-6.9,22.8-8.2,48-2.7,71.2c6.3,26.6,24.3,50.8,47.9,64.5c24.9,14.4,54.4,16.1,80.6,4.7c23.6-10.2,42.4-31.3,50.4-55.7
		c7.8-23.7,3.2-52.9-14.6-71.1c-13.3-13.6-32.7-21.2-51.5-22.2c-21.9-1.1-41.3,10.1-49.6,30.5c-4.9,12-5.7,27-0.1,38.7
		c6.5,13.8,21.8,19.6,36.1,20.8c6.8,0.6,13.8-0.4,20.4-2c8.9-2.1,15.1-12.8,12.2-21.5c-3-9.3-12-14.4-21.5-12.2
		c-1.1,0.2-2.9,1-3.9,0.8c4,0.6,0.8-0.1-0.6,0c-2.2,0.1-4.3,0-6.5-0.1c-4.2-0.1,3.7,1.1-0.3-0.1c-1.1-0.3-2.3-0.6-3.5-0.9
		c-3.5-0.8,2,1.6,0.5,0.2c-0.5-0.2-1-0.5-1.5-0.8c-1.6-1-1.3-0.7,0.9,0.9c0,0-2.2-2.2-2.2-2.2c0.5,0.6,1,1.2,1.5,1.8
		c-0.4-0.6-0.7-1.2-1-1.9c-0.3-0.1,2.3,4.1,0.7,1.1c-0.1-0.4-0.2-0.7-0.2-1.1c0.3,2.7,0.4,3,0.3,1c0.1-1.2,0-2.5,0.1-3.7
		c0-0.6,0.8-4.1,0-1.1c-0.8,3,0.1-0.4,0.2-0.9c0.3-1.3,0.6-2.7,1-4c0.1-0.4,0.6-2.6,1-2.7c0.3-0.1-2.3,4.2-0.6,1.7
		c0.5-0.7,0.9-1.6,1.3-2.3c1.5-2.9,1.1,0.5-0.8,0.8c0.6-0.1,2.4-2.6,2.8-3c2.1-2.2,1,0.7-1,0.7c0.5,0,1.8-1.2,2.4-1.5
		c0.6-0.3,1.2-0.6,1.8-0.9c2.7-1.6-4.3,1.3-1.2,0.5c1.3-0.3,2.6-0.9,3.9-1.2c0.8-0.2,1.6-0.3,2.4-0.5c3.2-0.8-4.6,0.2-1.3,0.2
		c1.7,0,3.4-0.2,5.2-0.1c1.4,0,4,0.8,5.3,0.4c-2.2,0.8-4-0.7-2-0.2c0.9,0.2,1.8,0.3,2.6,0.5c0.7,0.2,10.5,3,10.4,3.2
		c-0.2,0.3-4.4-2.1-0.9-0.3c0.5,0.3,1.1,0.5,1.6,0.8c1.6,0.8,3.1,1.7,4.7,2.6c1.2,0.8,2.4,1.6,3.6,2.4c2.8,1.7-3.2-2.9-0.9-0.7
		c0.8,0.8,1.7,1.4,2.5,2.2c1,0.9,1.9,1.9,2.8,2.9c1.7,1.8,0.1,1.9-0.8-1.1c0.2,0.6,0.9,1.4,1.3,1.9c1.1,1.8,2,3.7,3,5.6
		c2.1,4-1-3.4,0.3,0.8c0.4,1.3,0.9,2.5,1.2,3.8c0.4,1.3,0.7,2.5,0.9,3.8c0.1,0.4,0.2,0.8,0.2,1.3c0.3,2,0.3,1.7-0.1-0.9
		c0.7,1.5,0.3,4.6,0.3,6.3c0,1.3-0.1,2.5-0.1,3.8c0,0.4-0.1,0.8-0.1,1.3c-0.2,2-0.2,1.7,0.2-0.9c0.5,1.8-1.2,5.7-1.6,7.4
		c-0.3,1.2-0.7,2.4-1.1,3.6c-0.1,0.2-1.4,4.2-0.5,1.4c0.9-2.7-0.5,1.1-0.7,1.4c-0.6,1.1-1.1,2.3-1.7,3.4c-1,1.9-2.1,3.7-3.3,5.5
		c-0.7,1.1-1.5,2.1-2.2,3.2c2.7-3.8-0.7,0.8-1.3,1.5c-1.4,1.6-2.9,3.2-4.5,4.7c-0.9,0.9-1.9,1.8-2.9,2.6c-0.6,0.5-4.1,3.2-0.5,0.5
		c-4,3-8.2,5.6-12.7,7.8c-1,0.5-2,0.9-2.9,1.4c4.2-1.9,0.2-0.2-0.6,0.1c-2,0.7-4.1,1.3-6.2,1.9c-1.3,0.3-2.5,0.6-3.8,0.8
		c-0.4,0.1-0.9,0.1-1.3,0.2c-2,0.3-1.7,0.3,0.8-0.1c-1.7,0.9-6.1,0.4-8.1,0.3c-1.4,0-2.8-0.1-4.2-0.2c-0.9-0.1-5.4-0.9-0.9,0
		c-2.3-0.4-4.5-0.8-6.8-1.4c-2.7-0.7-5.3-1.6-7.9-2.5c-0.8-0.3-2.9-1.4,0.4,0.2c-1.6-0.8-3.3-1.5-4.9-2.4c-2-1.1-4-2.2-5.9-3.5
		c-1.1-0.7-2.3-1.6-3.4-2.3c-3.7-2.6,2.6,2.4-0.8-0.6c-4.1-3.7-8-7.5-11.6-11.7c-0.6-0.7-1.8-2.6,0.2,0.3c-0.8-1.1-1.6-2.2-2.4-3.4
		c-1.4-2.1-2.7-4.3-3.9-6.5c-1.2-2.2-2.3-4.5-3.4-6.8c1.8,4-0.1-0.3-0.3-1c-0.5-1.3-0.9-2.6-1.3-4c-1.3-4.2-3.4-9.8-3.1-14.3
		c-0.3,4.6,0.2,1.2,0.1-0.2c-0.1-1.2-0.2-2.4-0.3-3.7c-0.2-2.4-0.2-4.9-0.3-7.3c0-4.5,0.2-9,0.7-13.5c0.2-1.5-0.4-4.6,0-0.3
		c-0.1-0.7,0.3-1.7,0.4-2.4c0.5-2.9,1-5.7,1.7-8.5c1.2-5,2.6-9.9,4.4-14.8c0.4-1,0.7-1.9,1.1-2.9c0.7-1.8,0.6-1.5-0.4,0.8
		c0.3-0.7,0.7-1.5,1-2.2c1-2.2,2.1-4.4,3.2-6.6c2.5-4.6,5.3-9,8.3-13.3c2.4-3.4-2.5,2.9,0.2-0.2c0.8-0.9,1.5-1.8,2.3-2.7
		c1.8-2.1,3.7-4.1,5.7-6c1.7-1.6,3.5-3.1,5.3-4.7c3.1-2.6-3.2,2.2,0.2-0.1c1-0.7,1.9-1.4,2.9-2c2.3-1.5,4.7-2.9,7.1-4.2
		c0.7-0.4,1.4-0.7,2.1-1.1c0.7-0.3,1.4-0.7,2.2-1c-2.4,1-2.7,1.1-0.9,0.4c5-1.8,10-3.2,15.2-4.3c4-0.9-2.9,0.1-0.3,0
		c1.5-0.1,3-0.3,4.5-0.4c3.1-0.2,6.2-0.2,9.3-0.1c9.2,0.3,17.9-8.3,17.5-17.5C-1504.3,204.2-1511.5,196.9-1521.3,196.5
		L-1521.3,196.5z"/>
</g>
<g id="XMLID_1_">
	<path id="XMLID_4_" class="st1" d="M-1721,500.7c2.2,6.1,3.1,12.3,5.9,18.2c2.3,4.8,5.8,9.1,9.8,12.6c11.1,9.8,25.5,14.3,40.1,14.6
		c28.5,0.5,59.3-13.6,65.9-43.5c2-8.9-2.7-19.4-12.2-21.5c-8.9-2-19.4,2.7-21.5,12.2c-0.4,1.9-1.2,3.7-1.6,5.6
		c-0.4,1.8,1.5-2.7-0.1,0.1c-0.5,0.8-0.9,1.6-1.4,2.4c-2,3.3,1.3-0.9-0.3,0.4c-1,0.8-1.8,1.8-2.7,2.7c1.4-1.2,0.6-0.4-0.4,0.2
		c-1,0.6-1.9,1.2-2.9,1.7c-1.1,0.6-2.1,1.1-3.2,1.6c1.6-0.7,1.6-0.6,0-0.1c-2.3,0.7-4.5,1.5-6.9,2c-1.3,0.3-2.7,0.6-4,0.8
		c-1.4,0.3-2.1,0.3-0.3,0.1c-2.8,0.3-5.5,0.4-8.3,0.4c-1.1,0-2.2-0.1-3.3-0.1c-3.3-0.1,0.6,0.4-1.1-0.1c-2.2-0.6-4.4-1.1-6.7-1.8
		c-1.9-0.6-1.1-0.6,0.2,0.2c-1-0.5-2-1-3-1.6c-0.9-0.5-1.8-1.2-2.7-1.7c1,0.5,2.2,2,0.7,0.4c-0.7-0.7-1.4-1.4-2.1-2.1
		c-2.3-2.2,0.8-0.4,0.3,0.5c0.1-0.1-1-1.6-1.1-1.8c-0.2-0.3-0.3-0.6-0.5-0.9c-0.6-1.3-0.6-1.2,0,0.2c0.5,1.3,0.6,1.4,0.3,0.4
		c-0.1-0.4-0.3-0.9-0.4-1.3c-0.3-1.2-0.6-2.3-0.9-3.5c-0.5-2.2-1.1-4.4-1.9-6.5c-3.1-8.6-12-15.3-21.5-12.2
		C-1717.2,481.9-1724.3,491.5-1721,500.7L-1721,500.7z"/>
</g>
<g id="XMLID_10_">
	<path id="XMLID_3_" class="st1" d="M-1478,500.7c2.2,6.1,3.1,12.3,5.9,18.2c2.3,4.8,5.8,9.1,9.8,12.6c11.1,9.8,25.5,14.3,40.1,14.6
		c28.5,0.5,59.3-13.6,65.9-43.5c2-8.9-2.7-19.4-12.2-21.5c-8.9-2-19.4,2.7-21.5,12.2c-0.4,1.9-1.2,3.7-1.6,5.6
		c-0.4,1.8,1.5-2.7-0.1,0.1c-0.5,0.8-0.9,1.6-1.4,2.4c-2,3.3,1.3-0.9-0.3,0.4c-1,0.8-1.8,1.8-2.7,2.7c1.4-1.2,0.6-0.4-0.4,0.2
		c-1,0.6-1.9,1.2-2.9,1.7c-1.1,0.6-2.1,1.1-3.2,1.6c1.6-0.7,1.6-0.6,0-0.1c-2.3,0.7-4.5,1.5-6.9,2c-1.3,0.3-2.7,0.6-4,0.8
		c-1.4,0.3-2.1,0.3-0.3,0.1c-2.8,0.3-5.5,0.4-8.3,0.4c-1.1,0-2.2-0.1-3.3-0.1c-3.3-0.1,0.6,0.4-1.1-0.1c-2.2-0.6-4.4-1.1-6.7-1.8
		c-1.9-0.6-1.1-0.6,0.2,0.2c-1-0.5-2-1-3-1.6c-0.9-0.5-1.8-1.2-2.7-1.7c1,0.5,2.2,2,0.7,0.4c-0.7-0.7-1.4-1.4-2.1-2.1
		c-2.3-2.2,0.8-0.4,0.3,0.5c0.1-0.1-1-1.6-1.1-1.8c-0.2-0.3-0.3-0.6-0.5-0.9c-0.6-1.3-0.6-1.2,0,0.2c0.5,1.3,0.6,1.4,0.3,0.4
		c-0.1-0.4-0.3-0.9-0.4-1.3c-0.3-1.2-0.6-2.3-0.9-3.5c-0.5-2.2-1.1-4.4-1.9-6.5c-3.1-8.6-12-15.3-21.5-12.2
		C-1474.2,481.9-1481.3,491.5-1478,500.7L-1478,500.7z"/>
</g>
</svg>
