<?xml version="1.0" encoding="utf-8"?>
<!-- Generator: Adobe Illustrator 19.0.0, SVG Export Plug-In . SVG Version: 6.00 Build 0)  -->
<svg version="1.1" id="Layer_3" xmlns="http://www.w3.org/2000/svg" xmlns:xlink="http://www.w3.org/1999/xlink" x="0px" y="0px"
	 viewBox="0 0 124.3 86.1" style="enable-background:new 0 0 124.3 86.1;" xml:space="preserve">
<style type="text/css">
	.st0{filter:url(#Adobe_OpacityMaskFilter);}
	.st1{mask:url(#XMLID_57_);}
	.st2{fill:#F7A28F;}
	.st3{fill:#7E527B;}
	.st4{fill:#C55FA2;}
	.st5{fill:#753F67;}
	.st6{fill:#73C9BE;}
	.st7{fill:#70C4BB;}
	.st8{fill:#3A1C34;}
</style>
<defs>
	<filter id="Adobe_OpacityMaskFilter" filterUnits="userSpaceOnUse" x="57.6" y="23.8" width="64.1" height="38.7">
		<feFlood  style="flood-color:white;flood-opacity:1" result="back"/>
		<feBlend  in="SourceGraphic" in2="back" mode="normal"/>
	</filter>
</defs>
<mask maskUnits="userSpaceOnUse" x="57.6" y="23.8" width="64.1" height="38.7" id="XMLID_57_">
	<g id="XMLID_132_" class="st0">
		<circle id="XMLID_141_" cx="50.3" cy="59.9" r="27.1"/>
		<circle id="XMLID_140_" cx="81.9" cy="62.6" r="10.4"/>
		<rect id="XMLID_134_" x="86.4" y="61.4" width="42.3" height="13"/>
	</g>
</mask>
<g id="XMLID_101_" class="st1">
	<g id="XMLID_103_">
		<path id="XMLID_9_" class="st2" d="M99.1,62.5h-10c0-3.4-2.8-6.2-6.1-6.2c-1.5,0-2.9,0.5-4,1.5l-6.6-7.5c2.9-2.6,6.7-4,10.6-4
			C91.8,46.3,99.1,53.5,99.1,62.5z"/>
	</g>
	<g id="XMLID_100_">
		<path id="XMLID_8_" class="st3" d="M121.6,62.5h-10c0-15.8-12.9-28.7-28.7-28.7c-6.9,0-13.6,2.5-18.8,7l-6.6-7.5
			c7-6.1,16.1-9.5,25.4-9.5C104.3,23.8,121.6,41.1,121.6,62.5z"/>
	</g>
	<g id="XMLID_102_">
		<path id="XMLID_7_" class="st4" d="M110.6,62.5h-10c0-9.6-7.8-17.4-17.4-17.4c-4.2,0-8.3,1.5-11.4,4.3l-6.6-7.5
			c5-4.3,11.4-6.7,18-6.7C98.3,35.1,110.6,47.4,110.6,62.5z"/>
	</g>
</g>
<g id="XMLID_112_">
	<path id="XMLID_6_" class="st5" d="M76.3,63.5c-0.4,0-0.8-0.4-0.8-0.8C75.5,47.4,63.1,35,47.8,35c-12.9,0-24,8.8-27,21.4
		c-0.1,0.4-0.5,0.7-1,0.6c-0.4-0.1-0.7-0.5-0.6-1c3.1-13.3,14.8-22.6,28.5-22.6c16.2,0,29.3,13.1,29.3,29.3
		C77.1,63.1,76.8,63.5,76.3,63.5z"/>
</g>
<g id="XMLID_111_">
	<path id="XMLID_5_" class="st5" d="M19.3,64.5c-0.4,0-0.8-0.4-0.8-0.8c0-1.2,0.1-2.3,0.2-3.4c0.1-0.4,0.5-0.7,0.9-0.7
		c0.4,0.1,0.8,0.4,0.7,0.9c-0.1,1.1-0.2,2.2-0.2,3.3C20.1,64.1,19.8,64.5,19.3,64.5z"/>
</g>
<g id="XMLID_109_">
	<path id="XMLID_4_" class="st5" d="M0.8,63.8C0.4,63.8,0,63.5,0,63c0-9.7,7.9-17.6,17.6-17.6c2.3,0,4.5,0.4,6.6,1.3
		c0.4,0.2,0.6,0.6,0.4,1c-0.2,0.4-0.6,0.6-1,0.4c-1.9-0.8-4-1.2-6-1.2c-8.8,0-16,7.2-16,16C1.6,63.5,1.2,63.8,0.8,63.8z"/>
</g>
<g id="XMLID_108_">
	<path id="XMLID_3_" class="st5" d="M90.4,64.3c-0.4,0-0.8-0.4-0.8-0.8c0-4.5-3.7-8.1-8.1-8.1c-1.7,0-3.3,0.5-4.7,1.5
		c-0.4,0.3-0.9,0.2-1.1-0.2c-0.3-0.4-0.2-0.9,0.2-1.1c1.7-1.2,3.6-1.8,5.6-1.8c5.4,0,9.7,4.4,9.7,9.7C91.2,63.9,90.8,64.3,90.4,64.3
		z"/>
</g>
<g id="XMLID_106_">
	<path id="XMLID_2_" class="st5" d="M96.3,64.3h-5.9c-0.4,0-0.8-0.4-0.8-0.8s0.4-0.8,0.8-0.8h5.9c0.4,0,0.8,0.4,0.8,0.8
		S96.7,64.3,96.3,64.3z"/>
</g>
<g id="XMLID_1_">
	<g id="XMLID_11_">
		<path id="XMLID_68_" class="st6" d="M76.8,77.5h4.1c0.9,0,1.6,0.7,1.6,1.6s-0.7,1.6-1.6,1.6H97c-0.9,0-1.6-0.7-1.6-1.6
			c0-0.9,0.7-1.6,1.6-1.6h7.6c0.9,0,1.6-0.7,1.6-1.6c0-0.9-0.7-1.6-1.6-1.6h-3.1c-0.9,0-1.6-0.7-1.6-1.6c0-0.9,0.7-1.6,1.6-1.6h2.3
			c0.9,0,1.6-0.7,1.6-1.6c0-0.9-0.7-1.6-1.6-1.6H86.9c-0.9,0-1.6,0.7-1.6,1.6c0,0.9,0.7,1.6,1.6,1.6h1.4c0.9,0,1.6,0.7,1.6,1.6
			s-0.7,1.6-1.6,1.6H76.8c-0.9,0-1.6,0.7-1.6,1.6C75.2,76.8,75.9,77.5,76.8,77.5z"/>
	</g>
	<g id="XMLID_15_">
		<path id="XMLID_66_" class="st6" d="M106.6,80.6H71.8c-0.9,0-1.6,0.7-1.6,1.6s0.7,1.6,1.6,1.6h34.8c0.9,0,1.6-0.7,1.6-1.6
			S107.5,80.6,106.6,80.6z"/>
	</g>
</g>
<g id="XMLID_28_">
	<path id="XMLID_63_" class="st7" d="M48.1,38.9c-0.9,0-1.7,0.1-2.6,0.1c11.8,1.3,21,11.3,21,23.5s-9.2,22.2-21,23.5
		c0.9,0.1,1.7,0.1,2.6,0.1c13,0,23.6-10.6,23.6-23.6S61.1,38.9,48.1,38.9z"/>
</g>
<g id="XMLID_122_">
	<g id="XMLID_94_">
		<path id="XMLID_41_" class="st8" d="M21,34.1c-3.2,0-5.7-2.6-5.7-5.7s2.6-5.7,5.7-5.7c3.2,0,5.7,2.6,5.7,5.7S24.2,34.1,21,34.1z
			 M21,25.3c-1.7,0-3.1,1.4-3.1,3.1c0,1.7,1.4,3.1,3.1,3.1s3.1-1.4,3.1-3.1C24.2,26.7,22.8,25.3,21,25.3z"/>
	</g>
	<g id="XMLID_13_">
		<path id="XMLID_38_" class="st4" d="M55.1,22c-3.2,0-5.7-2.6-5.7-5.7c0-3.2,2.6-5.7,5.7-5.7c3.2,0,5.7,2.6,5.7,5.7
			C60.8,19.4,58.2,22,55.1,22z M55.1,13.2c-1.7,0-3.1,1.4-3.1,3.1c0,1.7,1.4,3.1,3.1,3.1s3.1-1.4,3.1-3.1
			C58.2,14.6,56.8,13.2,55.1,13.2z"/>
	</g>
	<g id="XMLID_12_">
		<path id="XMLID_35_" class="st3" d="M40.4,29.4c-2.1,0-3.8-1.7-3.8-3.8c0-2.1,1.7-3.8,3.8-3.8c2.1,0,3.8,1.7,3.8,3.8
			C44.1,27.7,42.4,29.4,40.4,29.4z M40.4,23.9c-1,0-1.8,0.8-1.8,1.8s0.8,1.8,1.8,1.8c1,0,1.8-0.8,1.8-1.8S41.3,23.9,40.4,23.9z"/>
	</g>
	<g id="XMLID_10_">
		<path id="XMLID_32_" class="st3" d="M94.5,10.5c-2.2,0-4.1-1.8-4.1-4.1s1.8-4.1,4.1-4.1c2.2,0,4.1,1.8,4.1,4.1
			S96.7,10.5,94.5,10.5z M94.5,5C93.7,5,93,5.7,93,6.5s0.7,1.5,1.5,1.5c0.8,0,1.5-0.7,1.5-1.5S95.3,5,94.5,5z"/>
	</g>
	<g id="XMLID_116_">
		<path id="XMLID_29_" class="st8" d="M79.7,16.2c-1.2,0-2.1-0.9-2.1-2.1c0-1.2,0.9-2.1,2.1-2.1s2.1,0.9,2.1,2.1
			C81.8,15.3,80.9,16.2,79.7,16.2z M79.7,13c-0.6,0-1.1,0.5-1.1,1.1c0,0.6,0.5,1.1,1.1,1.1s1.1-0.5,1.1-1.1
			C80.8,13.5,80.3,13,79.7,13z"/>
	</g>
	<g id="XMLID_127_">
		<path id="XMLID_25_" class="st8" d="M15,18.1c-1,0-1.9-0.8-1.9-1.9c0-1,0.8-1.9,1.9-1.9c1,0,1.9,0.8,1.9,1.9
			C16.9,17.3,16,18.1,15,18.1z M15,14.9c-0.8,0-1.4,0.6-1.4,1.4s0.6,1.4,1.4,1.4s1.4-0.6,1.4-1.4S15.8,14.9,15,14.9z"/>
	</g>
	<g id="XMLID_117_">
		<path id="XMLID_22_" class="st8" d="M110.3,25.3c-2.1,0-3.8-1.7-3.8-3.8s1.7-3.8,3.8-3.8c2.1,0,3.8,1.7,3.8,3.8
			S112.4,25.3,110.3,25.3z M110.3,19.7c-1,0-1.8,0.8-1.8,1.8c0,1,0.8,1.8,1.8,1.8c1,0,1.8-0.8,1.8-1.8
			C112.1,20.5,111.3,19.7,110.3,19.7z"/>
	</g>
	<g id="XMLID_119_">
		<g id="XMLID_121_">
			<path id="XMLID_21_" class="st3" d="M121.5,33.9c-0.3,0-0.5-0.2-0.5-0.5v-4.4c0-0.3,0.2-0.5,0.5-0.5s0.5,0.2,0.5,0.5v4.4
				C122,33.7,121.8,33.9,121.5,33.9z"/>
		</g>
		<g id="XMLID_120_">
			<path id="XMLID_20_" class="st3" d="M123.8,31.7h-4.5c-0.3,0-0.5-0.2-0.5-0.5s0.2-0.5,0.5-0.5h4.5c0.3,0,0.5,0.2,0.5,0.5
				S124,31.7,123.8,31.7z"/>
		</g>
	</g>
	<g id="XMLID_126_">
		<g id="XMLID_129_">
			<path id="XMLID_19_" class="st8" d="M31.6,19.1c-0.3,0-0.5-0.2-0.5-0.5V14c0-0.3,0.2-0.5,0.5-0.5s0.5,0.2,0.5,0.5v4.6
				C32.1,18.9,31.8,19.1,31.6,19.1z"/>
		</g>
		<g id="XMLID_128_">
			<path id="XMLID_18_" class="st8" d="M33.9,16.8h-4.7c-0.3,0-0.5-0.2-0.5-0.5s0.2-0.5,0.5-0.5h4.7c0.3,0,0.5,0.2,0.5,0.5
				S34.2,16.8,33.9,16.8z"/>
		</g>
	</g>
	<g id="XMLID_123_">
		<g id="XMLID_125_">
			<path id="XMLID_17_" class="st8" d="M68.5,7.2c-0.4,0-0.8-0.3-0.8-0.8V0.8c0-0.4,0.3-0.8,0.8-0.8s0.8,0.3,0.8,0.8v5.7
				C69.3,6.9,68.9,7.2,68.5,7.2z"/>
		</g>
		<g id="XMLID_124_">
			<path id="XMLID_16_" class="st8" d="M71.4,4.4h-5.8c-0.4,0-0.8-0.3-0.8-0.8s0.3-0.8,0.8-0.8h5.8c0.4,0,0.8,0.3,0.8,0.8
				S71.8,4.4,71.4,4.4z"/>
		</g>
	</g>
</g>
</svg>
