<?xml version="1.0" encoding="utf-8"?>
<!-- Generator: Adobe Illustrator 19.0.0, SVG Export Plug-In . SVG Version: 6.00 Build 0)  -->
<svg version="1.1" xmlns="http://www.w3.org/2000/svg" xmlns:xlink="http://www.w3.org/1999/xlink" x="0px" y="0px"
	 viewBox="0 0 50.7 36.5" style="enable-background:new 0 0 50.7 36.5;" xml:space="preserve">
<style type="text/css">
	.st0{fill:#210A1D;}
</style>
<g id="Line_20">
	<path class="st0" d="M16.5,0C7.4,0,0,7.4,0,16.5S7.4,33,16.5,33c1.3,0,2.6-0.2,3.9-0.5l0.5-0.1l-0.2-0.5c-0.2-0.6-0.3-1.2-0.4-1.8
		l0-0.6l-0.6,0.1c-1.1,0.3-2.2,0.4-3.3,0.4C9.1,30,3,23.9,3,16.5S9.1,3,16.5,3S30,9.1,30,16.5c0,2.3-0.6,4.6-1.7,6.6L28,23.6
		l0.6,0.2c0.6,0.2,1.1,0.5,1.6,0.9l0.5,0.4l0.3-0.5c1.4-2.5,2.1-5.3,2.1-8.1C33,7.4,25.6,0,16.5,0z"/>
</g>
<g id="Line_19">
	<g>
		<path class="st0" d="M16.7,22.3c-0.9,0-1.7,0.8-1.7,1.7v0.4c0,0.9,0.8,1.7,1.7,1.7c1,0,1.7-0.7,1.7-1.7V24
			C18.3,23,17.6,22.3,16.7,22.3z"/>
		<path class="st0" d="M16.7,8.1c-2,0-3.8,1.1-4.8,2.8c-0.5,0.8-0.2,1.8,0.6,2.3c0.3,0.2,0.6,0.2,0.9,0.2c0.6,0,1.2-0.3,1.5-0.9
			c0.4-0.7,1.1-1.1,1.9-1.1c1.3,0,2.3,1,2.3,2.2c0,1.2-1,2.2-2.3,2.2c-0.9,0-1.6,0.7-1.7,1.6l0,0v2.7c0,0.9,0.8,1.7,1.7,1.7
			c1,0,1.7-0.7,1.7-1.7V19c2.3-0.7,3.9-2.9,3.9-5.4C22.3,10.6,19.8,8.1,16.7,8.1z"/>
	</g>
	<path class="st0" d="M50,15.1c-0.4-0.4-0.9-0.6-1.5-0.6s-1.1,0.2-1.5,0.6L31.3,31.2l-5-5.1c-0.4-0.4-0.9-0.6-1.5-0.6
		s-1.1,0.2-1.5,0.6c-0.8,0.9-0.8,2.2,0,3.1l6.5,6.6c0.4,0.4,0.9,0.6,1.5,0.6s1.1-0.2,1.5-0.6L50,18.2C50.9,17.3,50.9,15.9,50,15.1z"
		/>
</g>
</svg>
