<?xml version="1.0" encoding="utf-8"?>
<!-- Generator: Adobe Illustrator 19.0.0, SVG Export Plug-In . SVG Version: 6.00 Build 0)  -->
<svg version="1.1" id="Layer_2" xmlns="http://www.w3.org/2000/svg" xmlns:xlink="http://www.w3.org/1999/xlink" x="0px" y="0px"
	 viewBox="131 -131 512 512" style="enable-background:new 131 -131 512 512;" xml:space="preserve">
<style type="text/css">
	.st0{fill:#AF4F9D;}
</style>
<g>
	<path class="st0" d="M304.8-53.4h-58.3c-1.3,0-2.4-1.1-2.4-2.4s1.1-2.4,2.4-2.4h58.3c1.3,0,2.4,1.1,2.4,2.4S306.1-53.4,304.8-53.4z
		"/>
</g>
<g>
	<path class="st0" d="M304.8-29.8h-58.3c-1.3,0-2.4-1.1-2.4-2.4s1.1-2.4,2.4-2.4h58.3c1.3,0,2.4,1.1,2.4,2.4S306.1-29.8,304.8-29.8z
		"/>
</g>
<g>
	<path class="st0" d="M304.8-6.9h-58.3c-1.3,0-2.4-1.1-2.4-2.4s1.1-2.4,2.4-2.4h58.3c1.3,0,2.4,1.1,2.4,2.4S306.1-6.9,304.8-6.9z"/>
</g>
</svg>
