<?xml version="1.0" encoding="utf-8"?>
<!-- Generator: Adobe Illustrator 19.0.0, SVG Export Plug-In . SVG Version: 6.00 Build 0)  -->
<svg version="1.1" id="Isolation_Mode" xmlns="http://www.w3.org/2000/svg" xmlns:xlink="http://www.w3.org/1999/xlink" x="0px"
	 y="0px" viewBox="0 0 35 28" style="enable-background:new 0 0 35 28;" xml:space="preserve">
<style type="text/css">
	.st0{fill:#FFFFFF;}
</style>
<path class="st0" d="M29.4,0H5.6C2.5,0,0,2.5,0,5.6v16.9C0,25.5,2.5,28,5.6,28h23.9c3.1,0,5.6-2.5,5.6-5.6V5.6C35,2.5,32.5,0,29.4,0
	z M29.2,3l-11.7,9.1L5.8,3H29.2z M32,22.4c0,1.4-1.1,2.6-2.6,2.6H5.6C4.1,25,3,23.9,3,22.4V5.6C3,5.3,3.1,5,3.1,4.8l13.4,10.4
	c0.3,0.2,0.6,0.3,0.9,0.3s0.6-0.1,0.9-0.3L31.9,4.8C31.9,5,32,5.3,32,5.6V22.4z"/>
</svg>
