<?xml version="1.0" encoding="utf-8"?>
<!-- Generator: Adobe Illustrator 19.0.0, SVG Export Plug-In . SVG Version: 6.00 Build 0)  -->
<svg version="1.1" id="Layer_3" xmlns="http://www.w3.org/2000/svg" xmlns:xlink="http://www.w3.org/1999/xlink" x="0px" y="0px"
	 viewBox="0 0 192 192" style="enable-background:new 0 0 192 192;" xml:space="preserve">
<style type="text/css">
	.st0{fill:#3A1C34;}
</style>
<g id="XMLID_98_">
	<path id="XMLID_14_" class="st0" d="M107.6,122.8c-14.7,0-26.7-12-26.7-26.7c0-14.7,12-26.7,26.7-26.7c14.7,0,26.7,12,26.7,26.7
		C134.3,110.8,122.3,122.8,107.6,122.8z M107.6,77.4c-10.3,0-18.7,8.4-18.7,18.7c0,10.3,8.4,18.7,18.7,18.7
		c10.3,0,18.7-8.4,18.7-18.7C126.3,85.8,117.9,77.4,107.6,77.4z"/>
</g>
<g id="XMLID_95_">
	<path id="XMLID_11_" class="st0" d="M54,116.7c-11.8,0-21.4-9.6-21.4-21.4c0-11.8,9.6-21.4,21.4-21.4c11.8,0,21.4,9.6,21.4,21.4
		C75.4,107.1,65.8,116.7,54,116.7z M54,81.9c-7.4,0-13.4,6-13.4,13.4c0,7.4,6,13.4,13.4,13.4c7.4,0,13.4-6,13.4-13.4
		C67.4,87.9,61.4,81.9,54,81.9z"/>
</g>
<g id="XMLID_89_">
	<path id="XMLID_10_" class="st0" d="M14.2,106.3c-3.2,0-6.5-0.8-8.7-2.6c-2.6-2.1-3.6-5.3-2.6-8.7c0.6-2.1,2.8-3.3,5-2.7
		c2.1,0.6,3.3,2.8,2.7,5c0,0.1,0,0.2,0,0.2c0.9,0.9,4.8,1.3,6.4,0.4c1.7-0.9,2.9-3.1,3.6-6.8c2.1-10.9,5.1-22.1,17.3-28.5
		c12.1-6.4,33.3-3.9,41.6,8.7c1.2,1.8,0.7,4.3-1.2,5.5s-4.3,0.7-5.5-1.2C67,67,50.3,65,41.5,69.6C33.3,73.9,30.6,81,28.4,92.5
		c-0.4,2.3-1.8,9.2-7.7,12.4C19,105.8,16.7,106.3,14.2,106.3z"/>
</g>
<g id="XMLID_85_">
	<path id="XMLID_9_" class="st0" d="M91.2,70.1c-1.3,0-2.7-0.7-3.4-1.9c-0.7-1.2-2.1-2-3.5-2c0,0,0,0-0.1,0c-2.2,0-4-1.8-4-4
		c0-2.2,1.8-4,4-4c0,0,0.1,0,0.1,0c4.1,0,8.2,2.3,10.3,5.8c1.2,1.9,0.6,4.3-1.3,5.5C92.6,70,91.9,70.1,91.2,70.1z"/>
</g>
<g id="XMLID_82_">
	<path id="XMLID_8_" class="st0" d="M130.3,72.1c-0.6,0-1.3-0.1-1.9-0.5c-2-1-2.7-3.4-1.7-5.4c1.6-3.1,4.7-5.3,8.1-6
		c2.2-0.4,4.3,1.1,4.6,3.2c0.4,2.2-1.1,4.3-3.2,4.6c-1,0.2-2,0.9-2.4,1.8C133.1,71.3,131.7,72.1,130.3,72.1z"/>
</g>
<g id="XMLID_81_">
	<path id="XMLID_7_" class="st0" d="M103.5,62.8C103.5,62.8,103.4,62.8,103.5,62.8c-2.3-0.1-4-1.9-4-4.1c0-0.2-0.3-0.5-0.4-0.5
		c-2.2-0.4-3.6-2.5-3.2-4.7s2.4-3.6,4.6-3.2c4.1,0.7,7.2,4.5,7.1,8.7C107.4,61.1,105.6,62.8,103.5,62.8z"/>
</g>
<g id="XMLID_80_">
	<path id="XMLID_6_" class="st0" d="M117.4,64c-1.6,0-3.1-0.9-3.7-2.5c-0.8-1.9-1-5,2.8-8.5l3.2-3c1.6-1.5,4.2-1.4,5.7,0.2
		c1.5,1.6,1.4,4.2-0.2,5.7l-3.2,2.9c-0.3,0.3-0.5,0.4-0.6,0.6c0.2,1.8-0.7,3.5-2.5,4.2C118.4,63.9,117.9,64,117.4,64z"/>
</g>
<g id="XMLID_77_">
	<path id="XMLID_5_" class="st0" d="M165.7,111.7c-2.2,0-4-1.8-4-4V68.1c0-2.2,1.8-4,4-4s4,1.8,4,4v39.7
		C169.7,109.9,167.9,111.7,165.7,111.7z"/>
</g>
<g id="XMLID_93_">
	<path id="XMLID_4_" class="st0" d="M186,92.4h-39.5c-2.2,0-4-1.8-4-4s1.8-4,4-4H186c2.2,0,4,1.8,4,4S188.2,92.4,186,92.4z"/>
</g>
<g id="XMLID_28_">
	<path id="XMLID_3_" class="st0" d="M128,168.1H91c-7.4,0-14.5-4.6-17.5-11.4c-1.7-3.9-1.7-8.3,0-13.3c0.8-2.2,1.8-4.3,2.7-6.4
		c0.6-1.3,1.2-2.6,1.7-3.8c0.8-2,3.2-3,5.2-2.2c2,0.8,3,3.2,2.2,5.2c-0.6,1.4-1.3,2.9-1.9,4.2c-0.9,1.9-1.8,3.8-2.4,5.6
		c-1.1,3.1-1.2,5.4-0.3,7.5c1.8,4,5.9,6.7,10.2,6.7h37c4.8,0,10.7-4.1,10.8-9.2c0-1.5-0.3-3.3-1-5.3c-0.9-2.7-2.3-5.5-3.5-7.9
		l-0.6-1.2c-1-2-0.2-4.4,1.8-5.4c2-1,4.4-0.2,5.4,1.8l0.6,1.2c1.4,2.7,2.9,5.7,4,9c1,3,1.5,5.6,1.4,8.1
		C146.5,161.2,136.7,168.1,128,168.1z"/>
</g>
<g id="XMLID_29_">
	<path id="XMLID_2_" class="st0" d="M61,158.9H45c-7.4,0-14.5-4.6-17.5-11.4c-1.7-3.9-1.7-8.3,0-13.3c0.8-2.2,1.8-4.3,2.7-6.4
		c0.6-1.3,1.2-2.6,1.7-3.8c0.8-2,3.2-3,5.2-2.2c2,0.8,3,3.2,2.2,5.2c-0.6,1.4-1.3,2.9-1.9,4.2c-0.9,1.9-1.8,3.8-2.4,5.6
		c-1.1,3.1-1.2,5.4-0.3,7.5c1.8,4,5.9,6.7,10.2,6.7h16c2.2,0,4,1.8,4,4S63.2,158.9,61,158.9z"/>
</g>
</svg>
