<?xml version="1.0" encoding="utf-8"?>
<!-- Generator: Adobe Illustrator 19.0.0, SVG Export Plug-In . SVG Version: 6.00 Build 0)  -->
<svg version="1.1" id="Isolation_Mode" xmlns="http://www.w3.org/2000/svg" xmlns:xlink="http://www.w3.org/1999/xlink" x="0px"
	 y="0px" viewBox="0 0 129.5 187.5" style="enable-background:new 0 0 129.5 187.5;" xml:space="preserve">
<style type="text/css">
	.st0{fill:#3A1C34;}
</style>
<g id="XMLID_78_">
	<path class="st0" d="M5,171.3c-2.8,0-5-2.2-5-5V36.4c0-9.8,7.9-17.7,17.7-17.7h51.4c2.8,0,5,2.2,5,5s-2.2,5-5,5H17.7
		c-4.3,0-7.7,3.5-7.7,7.7v129.9C10,169,7.8,171.3,5,171.3z"/>
</g>
<g id="XMLID_76_">
	<path class="st0" d="M79.3,187.5c-3.4,0-6.9-0.8-9.9-2.9c-3.3-2.3-5.1-5.9-5.1-9.9v-157C64.4,7.9,70.8,0,78.7,0
		c0.8,0,1.6,0.2,2.3,0.5l35.6,18.2c8.6,1.4,12.9,15.2,12.9,23.1v114.2c0,8.5-5,16.3-12.3,19.5c-0.1,0.1-0.2,0.1-0.4,0.1l-31.4,10.8
		C83.6,187.2,81.5,187.5,79.3,187.5z M77.9,10.2c-1.8,0.8-3.5,3.8-3.5,7.5v157c0,0.8,0.2,1.3,0.9,1.8c1.6,1.1,4.7,1.4,6.9,0.7
		l31.1-10.7c3-1.4,6.2-5.2,6.2-10.3V41.9c0-5.4-2.9-12.1-4.7-13.3c-0.7,0-1.3-0.2-1.9-0.5L77.9,10.2z"/>
</g>
<g id="XMLID_79_">
	<path class="st0" d="M89,117.4c-2.8,0-5-2.2-5-5V97c0-2.8,2.2-5,5-5s5,2.2,5,5v15.4C94,115.2,91.8,117.4,89,117.4z"/>
</g>
</svg>
