<?xml version="1.0" encoding="utf-8"?>
<!-- Generator: Adobe Illustrator 19.0.0, SVG Export Plug-In . SVG Version: 6.00 Build 0)  -->
<svg version="1.1" id="Layer_2" xmlns="http://www.w3.org/2000/svg" xmlns:xlink="http://www.w3.org/1999/xlink" x="0px" y="0px"
	 viewBox="0 0 84.2 83.2" style="enable-background:new 0 0 84.2 83.2;" xml:space="preserve">
<style type="text/css">
	.st0{fill:#FFFFFF;}
	.st1{fill:#754068;}
	.st2{fill:#D9CFD7;}
</style>
<g id="XMLID_56_">
	<path id="XMLID_5_" class="st0" d="M82.2,39.1c0,22.1-18,42.1-40.1,42.1C28,81.2,2,65.3,2,43.1S20,2,42.1,2S82.2,17,82.2,39.1z"/>
	<path id="XMLID_6_" class="st1" d="M42.1,83.2C27.3,83.2,0,66.7,0,43.1C0,19.7,19.3,0,42.1,0c24,0,42.1,16.8,42.1,39.1
		C84.2,63,64.9,83.2,42.1,83.2z M42.1,4C21.5,4,4,21.9,4,43.1C4,64,29.1,79.2,42.1,79.2c20.7,0,38.1-18.4,38.1-40.1
		C80.2,18.8,64.2,4,42.1,4z"/>
</g>
<g id="XMLID_51_">
	<path class="st1" d="M52.1,41.2c-3.6,3.9-10.4,3.5-15.2-0.9s-5.7-11.2-2-15.1c3.6-3.9,12.3-4.3,17.1,0.2S55.7,37.3,52.1,41.2z"/>
</g>
<g id="XMLID_58_">
	<path class="st2" d="M40.6,67.3c-16.1-1.5-27.9-15.7-26.4-31.8c0.6-6.7,3.5-12.7,7.8-17.2C14.6,22.9,9.4,30.8,8.6,40.2
		C7.1,56.2,18.9,70.5,35,72c9.4,0.9,18.1-2.8,24-9.2C53.7,66.1,47.4,67.9,40.6,67.3z"/>
</g>
<g id="XMLID_57_">
	<g id="XMLID_60_">
		<path id="XMLID_3_" class="st0" d="M70.6,47.5c4.6-8.1,2.4-18.9-5.6-23.9"/>
		<path id="XMLID_4_" class="st1" d="M70.6,49.5c-0.3,0-0.7-0.1-1-0.3c-1-0.5-1.3-1.8-0.8-2.7c4.2-7.4,2-17-4.9-21.3
			c-0.9-0.6-1.2-1.8-0.6-2.8c0.6-0.9,1.8-1.2,2.8-0.6c8.7,5.4,11.5,17.4,6.3,26.6C72,49.1,71.3,49.5,70.6,49.5z"/>
	</g>
	<g id="XMLID_59_">
		<path id="XMLID_1_" class="st0" d="M65,57.2c1.1-1.3,1.9-2.7,2.5-4.2"/>
		<path id="XMLID_2_" class="st1" d="M65,59.2c-0.4,0-0.9-0.1-1.3-0.4c-0.9-0.7-1-2-0.3-2.8c0.9-1.1,1.7-2.4,2.2-3.8
			c0.4-1,1.6-1.5,2.6-1.1c1,0.4,1.5,1.6,1.1,2.6c-0.7,1.7-1.7,3.3-2.8,4.7C66.1,59,65.6,59.2,65,59.2z"/>
	</g>
</g>
</svg>
