<?xml version="1.0" encoding="utf-8"?>
<!-- Generator: Adobe Illustrator 19.0.0, SVG Export Plug-In . SVG Version: 6.00 Build 0)  -->
<svg version="1.1" id="Layer_3" xmlns="http://www.w3.org/2000/svg" xmlns:xlink="http://www.w3.org/1999/xlink" x="0px" y="0px"
	 viewBox="0 0 93.4 37.1" style="enable-background:new 0 0 93.4 37.1;" xml:space="preserve">
<style type="text/css">
	.st0{fill:#E8E8E8;}
	.st1{fill:#FFFFFF;}
	.st2{fill:#753F67;}
	.st3{fill:#F8A38F;}
</style>
<g id="XMLID_483_">
	<g id="XMLID_490_">
		<path class="st0" d="M14.3,23.3H3c-1.7,0-3-1.4-3-3v0c0-1.7,1.4-3,3-3h11.3c1.7,0,3,1.4,3,3v0C17.3,21.9,16,23.3,14.3,23.3z"/>
	</g>
	<g id="XMLID_489_">
		<path class="st0" d="M78.5,11h-5.7c-1.7,0-3-1.4-3-3v0c0-1.7,1.4-3,3-3h5.7c1.7,0,3,1.4,3,3v0C81.6,9.7,80.2,11,78.5,11z"/>
	</g>
	<g id="XMLID_488_">
		<path class="st0" d="M90.3,23.2H79.1c-1.7,0-3-1.4-3-3v0c0-1.7,1.4-3,3-3h11.3c1.7,0,3,1.4,3,3v0C93.4,21.8,92,23.2,90.3,23.2z"/>
	</g>
	<g id="XMLID_487_">
		<path class="st0" d="M11.9,11.2h-3c-1.7,0-3-1.4-3-3v0c0-1.7,1.4-3,3-3h3c1.7,0,3,1.4,3,3v0C14.9,9.9,13.6,11.2,11.9,11.2z"/>
	</g>
	<g id="XMLID_486_">
		<path class="st0" d="M8.5,35.3H7.2c-1.7,0-3-1.4-3-3v0c0-1.7,1.4-3,3-3h1.3c1.7,0,3,1.4,3,3v0C11.5,33.9,10.2,35.3,8.5,35.3z"/>
	</g>
	<g id="XMLID_485_">
		<path class="st0" d="M73.1,35.3h-1.3c-1.7,0-3-1.4-3-3v0c0-1.7,1.4-3,3-3h1.3c1.7,0,3,1.4,3,3v0C76.1,33.9,74.8,35.3,73.1,35.3z"
			/>
	</g>
	<g id="XMLID_484_">
		<path class="st0" d="M71,17.1h-8.5c-0.1,0-0.2,0-0.3,0v0h-1.4c-1.7,0-3-1.4-3-3c0-1.7,1.4-3,3-3H62h0.2v0c1.6-0.1,2.9-1.4,2.9-3
			c0-1.7-1.4-3-3-3h-3.4c0,0-0.1,0-0.1,0H27.1c0,0-0.1,0-0.1,0h-3.5c-1.7,0-3,1.4-3,3c0,1.6,1.3,3,2.9,3v0h0.1h1.2c1.7,0,3,1.4,3,3
			c0,1.7-1.4,3-3,3h-1.3h-0.9c-1.7,0-3,1.4-3,3c0,1.7,1.4,3,3,3h0.9h6.3c1.7,0,3,1.4,3,3c0,1.7-1.4,3-3,3h-6.3h-5.3
			c-1.7,0-3,1.4-3,3c0,1.7,1.4,3,3,3h9H31h21.2h6.2h6.7c1.7,0,3-1.4,3-3c0-1.7-1.4-3-3-3h-3v-0.1h-0.5c-1.7,0-3-1.4-3-3
			c0-1.6,1.3-3,2.9-3c0.3,0.1,0.6,0.1,0.9,0.1H71c1.7,0,3-1.4,3-3C74,18.5,72.7,17.1,71,17.1z"/>
	</g>
</g>
<g id="XMLID_132_">
	<path id="XMLID_24_" class="st1" d="M69.6,36.3H23c-1,0-1.7-0.8-1.7-1.7V5.7c0-1,0.8-1.7,1.7-1.7h46.6c1,0,1.7,0.8,1.7,1.7v28.9
		C71.3,35.5,70.5,36.3,69.6,36.3z"/>
	<path id="XMLID_25_" class="st2" d="M69.6,37.1H23c-1.4,0-2.5-1.1-2.5-2.5V5.7c0-1.4,1.1-2.5,2.5-2.5h46.6c1.4,0,2.5,1.1,2.5,2.5
		v28.9C72.1,36,71,37.1,69.6,37.1z M23,4.7c-0.5,0-0.9,0.4-0.9,0.9v28.9c0,0.5,0.4,0.9,0.9,0.9h46.6c0.5,0,0.9-0.4,0.9-0.9V5.7
		c0-0.5-0.4-0.9-0.9-0.9H23z"/>
</g>
<g id="XMLID_145_">
	<path class="st3" d="M35.4,22.4h-11c-0.2,0-0.3-0.1-0.3-0.3V10.7c0-0.2,0.1-0.3,0.3-0.3h11c0.2,0,0.3,0.1,0.3,0.3v11.3
		C35.8,22.2,35.6,22.4,35.4,22.4z"/>
</g>
<g id="XMLID_135_">
	<path class="st3" d="M68.1,28.2H24.6c-0.3,0-0.5-0.2-0.5-0.5v-1.5c0-0.3,0.2-0.5,0.5-0.5h43.5c0.3,0,0.5,0.2,0.5,0.5v1.5
		C68.7,27.9,68.4,28.2,68.1,28.2z"/>
</g>
<g id="XMLID_139_">
	<path class="st3" d="M53.9,32h-29c-0.3,0-0.5-0.2-0.5-0.5l0-1.5c0-0.3,0.2-0.5,0.5-0.5h29c0.3,0,0.5,0.2,0.5,0.5v1.5
		C54.4,31.8,54.2,32,53.9,32z"/>
</g>
<g id="XMLID_143_">
	<path class="st1" d="M29.4,13.6c0.3-0.9,0.8-0.9,1,0s1.3,1.6,2.2,1.6c0.9,0,1.1,0.4,0.3,1c-0.7,0.5-1.1,1.7-0.8,2.6
		c0.3,0.9-0.1,1.2-0.8,0.6c-0.7-0.5-2-0.5-2.7,0c-0.7,0.5-1.1,0.3-0.8-0.6c0.3-0.9-0.1-2-0.8-2.6c-0.7-0.5-0.6-1,0.3-1
		S29.1,14.5,29.4,13.6z"/>
</g>
<g id="XMLID_134_">
	<path id="XMLID_14_" class="st2" d="M53.7,7.9H41.1c-0.2,0-0.3-0.1-0.3-0.3V0.3c0-0.2,0.1-0.3,0.3-0.3h12.7c0.2,0,0.3,0.1,0.3,0.3
		v7.2C54.1,7.7,53.9,7.9,53.7,7.9z"/>
</g>
<g id="XMLID_144_">
	<path id="XMLID_15_" class="st2" d="M43.4,13.6c2.1,0,3.2,1.1,3.2,2.7c0,1.6-1.2,2.8-3.1,2.8H42v2.6c0,0.4-0.2,0.6-0.7,0.6h-0.5
		c-0.5,0-0.7-0.3-0.7-0.6v-7.5c0-0.4,0.2-0.7,0.7-0.7H43.4z M42,17.8h1.3c0.9,0,1.5-0.6,1.5-1.5c0-0.9-0.6-1.5-1.5-1.5H42V17.8z"/>
	<path id="XMLID_18_" class="st2" d="M50.4,13.6c2,0,3.1,1.3,3.1,2.8c0,1-0.5,2-1.5,2.4l1.6,3.2c0.1,0.2,0.1,0.4-0.2,0.4h-1.1
		c-0.3,0-0.5-0.1-0.6-0.4l-1.3-2.8h-1.4v2.6c0,0.4-0.2,0.6-0.7,0.6h-0.5c-0.5,0-0.7-0.3-0.7-0.6v-7.5c0-0.4,0.2-0.7,0.7-0.7H50.4z
		 M48.9,17.9h1.2c1.1,0,1.6-0.6,1.6-1.5c0-0.9-0.6-1.5-1.6-1.5h-1.2V17.9z"/>
	<path id="XMLID_21_" class="st2" d="M61.8,18c0,3.1-1.4,4.5-3.9,4.5c-2.5,0-3.9-1.4-3.9-4.5c0-3.3,1.5-4.5,3.8-4.5
		C60.3,13.5,61.8,14.7,61.8,18z M60,18c0-2.4-0.7-3.1-2.1-3.1c-1.4,0-2.1,0.7-2.1,3.1c0,2.3,0.7,3.1,2.1,3.1
		C59.2,21.1,60,20.3,60,18z"/>
</g>
</svg>
