<?xml version="1.0" encoding="utf-8"?>
<!-- Generator: Adobe Illustrator 19.0.0, SVG Export Plug-In . SVG Version: 6.00 Build 0)  -->
<svg version="1.1" id="Layer_3" xmlns="http://www.w3.org/2000/svg" xmlns:xlink="http://www.w3.org/1999/xlink" x="0px" y="0px"
	 viewBox="0 0 145 191.8" style="enable-background:new 0 0 145 191.8;" xml:space="preserve">
<style type="text/css">
	.st0{fill:#3A1C34;}
</style>
<g id="XMLID_98_">
	<path id="XMLID_22_" class="st0" d="M68.9,101.8c-28.1,0-50.9-22.8-50.9-50.9C17.9,22.8,40.8,0,68.9,0c28.1,0,50.9,22.8,50.9,50.9
		C119.8,79,96.9,101.8,68.9,101.8z M68.9,12c-21.5,0-38.9,17.5-38.9,38.9c0,21.5,17.5,38.9,38.9,38.9c21.5,0,38.9-17.5,38.9-38.9
		C107.8,29.5,90.3,12,68.9,12z"/>
</g>
<g id="XMLID_28_">
	<path id="XMLID_21_" class="st0" d="M109.3,191.8H36c-14,0-27.2-8.6-32.9-21.5c-7-15.8-0.8-31,4.6-44.4l0.3-0.7
		c1.2-3.1,4.8-4.5,7.8-3.3c3.1,1.2,4.5,4.8,3.3,7.8l-0.3,0.7c-5,12.3-9.7,23.9-4.8,35c3.8,8.6,12.6,14.3,21.9,14.3h73.2
		c9.6,0,18.2-6,21.9-15.2c4.5-11.2-0.2-24.9-4.9-34.5c-1.5-3-0.3-6.6,2.7-8c3-1.5,6.6-0.3,8,2.7c8.4,16.8,10.2,32.1,5.3,44.3
		C136.8,182.8,123.8,191.8,109.3,191.8z"/>
</g>
<g id="XMLID_2_">
	<path id="XMLID_20_" class="st0" d="M69.1,60.9c-0.6,0-1.2,0-1.9-0.1C55.3,60,46.2,49.6,47,37.6c0.7-10.1,9.5-17.7,19.6-17
		c4.2,0.3,7.9,2.2,10.7,5.3C80,29,81.4,33,81.1,37.2c-0.2,2.5-2.3,4.4-4.8,4.2c-2.5-0.2-4.3-2.3-4.2-4.8c0.1-1.8-0.4-3.4-1.6-4.8
		c-1.2-1.3-2.8-2.1-4.5-2.2c-5.2-0.4-9.6,3.5-10,8.7c-0.5,7,4.8,13.2,11.9,13.7c4.5,0.3,9-1.2,12.4-4.2c3.5-3,5.5-7.2,5.9-11.7
		c0.4-6-1.5-11.8-5.5-16.4c-3.9-4.5-9.4-7.3-15.4-7.7c-2.5-0.2-4.3-2.3-4.2-4.8c0.2-2.5,2.3-4.3,4.8-4.2C74.3,3.5,82,7.4,87.5,13.7
		c5.5,6.4,8.2,14.5,7.7,22.9c-0.5,7-3.7,13.3-8.9,17.9C81.4,58.7,75.4,60.9,69.1,60.9z"/>
</g>
<g id="XMLID_5_">
	<path id="XMLID_19_" class="st0" d="M40.8,191.8c-3.3,0-6-2.7-6-6v-57.7c0-3.3,2.7-6,6-6s6,2.7,6,6v57.7
		C46.8,189.1,44.1,191.8,40.8,191.8z"/>
</g>
<g id="XMLID_6_">
	<path id="XMLID_18_" class="st0" d="M104.5,191.8c-3.3,0-6-2.7-6-6v-57.7c0-3.3,2.7-6,6-6s6,2.7,6,6v57.7
		C110.5,189.1,107.8,191.8,104.5,191.8z"/>
</g>
</svg>
