<?xml version="1.0" encoding="utf-8"?>
<!-- Generator: Adobe Illustrator 19.0.0, SVG Export Plug-In . SVG Version: 6.00 Build 0)  -->
<svg version="1.1" id="Layer_3" xmlns="http://www.w3.org/2000/svg" xmlns:xlink="http://www.w3.org/1999/xlink" x="0px" y="0px"
	 viewBox="0 0 192 192" style="enable-background:new 0 0 192 192;" xml:space="preserve">
<style type="text/css">
	.st0{fill:#3A1C34;}
</style>
<g id="XMLID_7_">
	<path id="XMLID_14_" class="st0" d="M85,87c-1.1,0-2.1-0.3-3-1c-1.7-1.2-2.4-3.3-2-5.6l1.2-7.2c0-0.4-0.2-1.2-0.5-1.5l-5.2-5.1
		c-1.7-1.6-2.3-3.8-1.7-5.7c0.6-1.9,2.4-3.3,4.7-3.6l7.2-1.1c0.4-0.1,1.1-0.6,1.3-0.9l3.2-6.6c0,0,0,0,0,0c1-2.1,2.9-3.3,4.9-3.3
		c0,0,0,0,0,0c2,0,3.9,1.2,4.9,3.3l3.2,6.6c0.2,0.3,0.9,0.9,1.3,0.9l7.2,1.1c2.3,0.3,4.1,1.7,4.7,3.6c0.6,1.9,0,4.1-1.7,5.7
		l-5.2,5.1c-0.3,0.3-0.5,1.1-0.5,1.5l1.2,7.2c0.4,2.3-0.4,4.4-2,5.6c-1.7,1.2-3.9,1.3-5.9,0.2l-6.5-3.4c-0.3-0.2-1.3-0.2-1.6,0
		L88,86.2C87,86.7,86,87,85,87z M84.8,64.5l1.6,1.5c2.1,2.1,3.3,5.7,2.8,8.6l-0.4,2.2l2-1c2.6-1.4,6.4-1.4,9,0l2,1l-0.4-2.2
		c-0.5-2.9,0.7-6.5,2.8-8.6l1.6-1.5l-2.2-0.3c-2.9-0.4-6-2.7-7.3-5.3l-1-2l-1,2c-1.3,2.7-4.4,4.9-7.3,5.3L84.8,64.5z"/>
</g>
<g id="XMLID_15_">
	<path id="XMLID_5_" class="st0" d="M110.4,150.1h-28c-1.7,0-3.3-1.1-3.8-2.8c-0.3-0.9-0.4-1.7-0.4-2.6c0-3.8,2.5-6.9,5.9-8v-33.3
		c0-2.2,1.8-4,4-4h16.6c2.2,0,4,1.8,4,4v33.3c3.4,1,5.9,4.2,5.9,8c0,0.8-0.1,1.7-0.4,2.6C113.7,149,112.1,150.1,110.4,150.1z
		 M91.7,142.1h9.4c-0.2-0.5-0.4-1.1-0.4-1.7v-32.9h-8.6v32.9C92.1,141,91.9,141.6,91.7,142.1z"/>
</g>
<g id="XMLID_17_">
	<path id="XMLID_16_" class="st0" d="M125.1,174.9H67.7c-3.1,0-5.6-2.5-5.6-5.5v-16c0-3,2.5-5.5,5.6-5.5h1.9v-0.3
		c0-3,2.5-5.5,5.6-5.5h42.5c3.1,0,5.6,2.5,5.6,5.5v0.3h1.9c3.1,0,5.6,2.5,5.6,5.5v16C130.7,172.4,128.2,174.9,125.1,174.9z
		 M70.1,166.9h52.6v-11h-1.9c-3.1,0-5.6-2.5-5.6-5.5v-0.3H77.6v0.3c0,3-2.5,5.5-5.6,5.5h-1.9V166.9z"/>
</g>
<g id="XMLID_4_">
	<path id="XMLID_10_" class="st0" d="M96,106.7c-37.3,0-67.6-30.3-67.6-67.6c0-2.2,1.8-4,4-4h127.2c2.2,0,4,1.8,4,4
		C163.6,76.4,133.3,106.7,96,106.7z M36.5,43.1c2.1,31,28,55.6,59.5,55.6s57.4-24.6,59.5-55.6H36.5z"/>
</g>
<g id="XMLID_3_">
	<path id="XMLID_9_" class="st0" d="M17.8,102c-1.5,0-3.1-0.2-4.6-0.6c-4.4-1.2-8.1-4.1-10.3-8C1,90,0.5,86.1,1.5,82.3
		c1-3.7,3.4-6.8,6.8-8.7c5.9-3.4,13.5-1.3,16.9,4.7c1.4,2.5,1.8,5.4,1,8.1s-2.6,5.1-5,6.5c-1.9,1.1-4.4,0.4-5.5-1.5
		c-1.1-1.9-0.4-4.4,1.5-5.5c0.6-0.4,1.1-0.9,1.3-1.6c0.2-0.7,0.1-1.4-0.3-2.1c-1.2-2.1-3.9-2.8-6-1.7c-3.1,1.8-4.2,5.7-2.4,8.8
		c2.5,4.4,8,5.9,12.4,3.4c2.9-1.6,4.9-4.3,5.8-7.5c0.9-3.1,0.5-6.4-1.1-9.3L4.1,41.3c-0.8-1.2-0.9-2.8-0.2-4.1
		c0.7-1.3,2.1-2.1,3.5-2.1h27.8c2.2,0,4,1.8,4,4s-1.8,4-4,4H14.8l18.9,28.7c0,0.1,0.1,0.1,0.1,0.2c2.7,4.7,3.4,10.2,1.9,15.5
		c-1.4,5.2-4.9,9.6-9.6,12.3C23.6,101.2,20.7,102,17.8,102z"/>
</g>
<g id="XMLID_2_">
	<path id="XMLID_8_" class="st0" d="M174,102c-2.9,0-5.8-0.8-8.4-2.2c-4.7-2.7-8.1-7.1-9.6-12.3c-1.4-5.2-0.8-10.7,1.9-15.5
		c0-0.1,0.1-0.2,0.1-0.2L177,43.1h-20.4c-2.2,0-4-1.8-4-4s1.8-4,4-4h27.8c1.5,0,2.8,0.8,3.5,2.1c0.7,1.3,0.6,2.9-0.2,4.1l-22.9,34.8
		c-1.6,2.8-2,6.1-1.1,9.3c0.9,3.2,2.9,5.8,5.8,7.5c2.1,1.2,4.6,1.5,6.9,0.9c2.3-0.6,4.3-2.2,5.5-4.3c0.9-1.5,1.1-3.3,0.6-4.9
		c-0.5-1.7-1.5-3.1-3-3.9c-2.1-1.2-4.8-0.5-6,1.7c-0.7,1.3-0.3,3,1,3.7c1.9,1.1,2.6,3.5,1.5,5.5c-1.1,1.9-3.5,2.6-5.5,1.5
		c-5.1-2.9-6.9-9.5-4-14.6c3.4-5.9,10.9-8,16.9-4.7c3.4,1.9,5.8,5,6.8,8.7c1,3.7,0.5,7.6-1.4,11c-2.3,4-5.9,6.8-10.3,8
		C177.1,101.8,175.5,102,174,102z"/>
</g>
</svg>
