<?xml version="1.0" encoding="utf-8"?>
<!-- Generator: Adobe Illustrator 19.0.0, SVG Export Plug-In . SVG Version: 6.00 Build 0)  -->
<svg version="1.1" id="Layer_1" xmlns="http://www.w3.org/2000/svg" xmlns:xlink="http://www.w3.org/1999/xlink" x="0px" y="0px"
	 viewBox="0 0 192 192" style="enable-background:new 0 0 192 192;" xml:space="preserve">
<style type="text/css">
	.st0{fill:#392B4A;}
</style>
<g id="XMLID_2_">
	<path id="XMLID_7_" class="st0" d="M97,131.6c-19.7,0-35.6-16-35.6-35.6c0-19.6,16-35.6,35.6-35.6c19.7,0,35.6,16,35.6,35.6
		C132.6,115.7,116.7,131.6,97,131.6z M97,70.4c-14.1,0-25.6,11.5-25.6,25.6c0,14.1,11.5,25.6,25.6,25.6c14.1,0,25.6-11.5,25.6-25.6
		C122.6,81.9,111.1,70.4,97,70.4z"/>
</g>
<g id="XMLID_1_">
	<path id="XMLID_4_" class="st0" d="M112.6,188.5H88.7c-7.9,0-8.8-0.3-9.5-0.6c-1.4-0.5-2.5-1.6-3-3l-0.1-0.3l-3.9-11.8
		c-0.7-2.2-1.3-3.9-1.8-5.1l-0.5-0.2c-2.2-0.9-3.9-1.6-5-2l-9.5,4.7c-7.1,3.5-8,3.6-8.7,3.7c-1.4,0.1-2.9-0.3-3.9-1.3l-0.3-0.2
		c0,0-0.1-0.1-0.1-0.1l-16.7-16.7c-5.6-5.6-6-6.4-6.3-7.1c-0.6-1.4-0.6-3,0.1-4.3l0.2-0.3l5.5-11c1-2.1,1.8-3.7,2.3-4.8l-0.2-0.5
		c-0.9-2.2-1.6-3.9-2.2-5l-10-3.3c-7.5-2.5-8.2-3.1-8.8-3.5c-1.2-0.9-1.9-2.4-1.9-3.9V87.7c0-7.9,0.3-8.8,0.6-9.4
		c0.5-1.4,1.6-2.5,3-3l0.3-0.1c0,0,0.1,0,0.1,0l11.7-3.9c2.2-0.7,3.9-1.3,5.1-1.8l0.2-0.5c0.9-2.2,1.6-3.9,2-5l-4.7-9.5
		c-3.5-7.1-3.6-8-3.7-8.7c-0.2-1.5,0.4-3.1,1.5-4.2l0.2-0.2l16.6-16.6c5.6-5.6,6.5-6,7.2-6.3c1.3-0.6,2.9-0.6,4.2,0.1l0.3,0.1
		l11.1,5.6c2.1,1,3.7,1.8,4.8,2.3l0.5-0.2c2.2-0.9,3.9-1.6,5-2.1l3.3-10c2.5-7.5,3.1-8.2,3.5-8.8c0.9-1.2,2.4-1.9,3.9-1.9h23.9
		c7.9,0,8.8,0.3,9.5,0.6c1.4,0.5,2.5,1.7,3,3.1l0.1,0.3l3.9,11.7c0.7,2.2,1.4,3.9,1.8,5.1l0.5,0.2c2.2,0.9,3.9,1.6,5,2l9.5-4.7
		c7.1-3.5,8-3.6,8.7-3.7c1.5-0.2,3,0.4,4,1.4l0.2,0.2l16.7,16.7c5.6,5.6,6,6.4,6.3,7.1c0.6,1.4,0.6,2.9-0.1,4.3l-0.2,0.3l-5.6,11.1
		c-1,2.1-1.8,3.7-2.3,4.8l0.2,0.5c0.9,2.2,1.6,3.8,2.1,5l10,3.3c7.5,2.5,8.2,3.1,8.8,3.5c1.2,0.9,1.9,2.4,1.9,3.9v23.9
		c0,8.5-0.1,9.9-2.2,11.5c-0.7,0.6-1,0.8-8.5,3.3l-5.1,1.7c-2.2,0.7-3.9,1.3-5.1,1.8l-0.2,0.5c-0.9,2-1.6,3.8-2,5l4.7,9.5
		c3.5,7.1,3.6,8,3.7,8.7c0.2,1.5-0.4,3-1.4,4.1l-16.9,16.9c-5.6,5.6-6.5,6-7.1,6.3c-1.4,0.6-3,0.6-4.3-0.1l-0.3-0.2l-11.1-5.5
		c-2.1-1-3.7-1.8-4.8-2.3l-0.5,0.2c-2.2,0.9-3.9,1.6-5,2.1l-3.3,10c-2.5,7.5-3.1,8.2-3.5,8.8C115.6,187.8,114.1,188.5,112.6,188.5z
		 M84.7,178.5c1.1,0,2.4,0,4,0h20.5c0.4-1,0.8-2.3,1.3-3.8l4-11.9c0.3-1,1-1.9,1.8-2.6c0.3-0.2,1.2-0.8,8.1-3.7l2.3-1
		c0.9-0.4,2-0.6,3-0.4c0.5,0.1,1.5,0.3,8.4,3.7l8.4,4.2c0.8-0.7,1.8-1.7,2.9-2.8l14.5-14.5c-0.5-1-1.1-2.2-1.8-3.6l-5.5-11.1
		c0-0.1-0.1-0.1-0.1-0.2l-0.1-0.3c-0.4-0.9-0.5-1.8-0.4-2.8c0.1-0.4,0.2-1.4,3.2-8.5l0.9-2.2c0.4-1,1-1.9,1.9-2.5
		c0.4-0.3,1.3-0.9,8.6-3.3l5.1-1.7c0,0,0,0,0,0c1.5-0.5,2.7-0.9,3.8-1.3c0-1.1,0.1-2.4,0.1-4V83.7c-1-0.4-2.3-0.8-3.8-1.3l-12.1-4
		c-1-0.3-1.8-1-2.5-1.8c-0.2-0.3-0.8-1.1-3.7-8.1l-1-2.4c-0.4-0.9-0.5-1.9-0.3-2.9c0.1-0.5,0.3-1.5,3.7-8.4l4.2-8.4
		c-0.7-0.8-1.7-1.8-2.8-2.9L146.7,29c-1,0.5-2.2,1.1-3.6,1.8l-11.4,5.7c-0.9,0.4-2,0.6-3,0.4c-0.4-0.1-1.4-0.2-8.4-3.1l-2.4-1
		c-0.9-0.4-1.8-1-2.3-1.9c-0.3-0.4-0.8-1.2-3.3-8.5l-3-8.8c-1.1,0-2.4,0-4,0H84.7c-0.4,1-0.8,2.3-1.3,3.8l-4,12.1
		c-0.3,1-1,1.8-1.8,2.5c-0.3,0.2-1.1,0.8-8.1,3.8l-2.3,1c-0.9,0.4-2,0.5-3,0.3c-0.5-0.1-1.5-0.3-8.3-3.7L47.4,29
		c-0.8,0.7-1.8,1.7-2.9,2.8L30,46.3c0.5,1,1.1,2.2,1.8,3.6L37.3,61c0,0,0,0.1,0.1,0.1l0.1,0.3c0.4,0.9,0.6,1.9,0.4,2.9
		c-0.1,0.4-0.2,1.4-3.2,8.4l-0.9,2.3c-0.4,1-1,1.8-1.9,2.4c-0.4,0.3-1.3,0.8-8.5,3.3l-8.8,2.9c0,1.1,0,2.5,0,4v20.5
		c1,0.4,2.3,0.8,3.8,1.3l11.7,3.9c0,0,0.1,0,0.1,0l0.3,0.1c0.9,0.3,1.8,1,2.4,1.8c0.2,0.3,0.8,1.1,3.8,8.1l1,2.3
		c0.4,0.9,0.6,2,0.4,3c-0.1,0.5-0.3,1.5-3.7,8.4l-4.2,8.4c0.7,0.8,1.7,1.8,2.8,2.9L47.3,163c1-0.5,2.2-1.1,3.6-1.8l11.4-5.7
		c0.9-0.5,2-0.6,3-0.4c0.4,0.1,1.4,0.2,8.4,3.1l2.3,0.9c1,0.4,1.8,1,2.4,1.9c0.3,0.4,0.8,1.3,3.3,8.5L84.7,178.5z"/>
</g>
</svg>
