<?xml version="1.0" encoding="utf-8"?>
<!-- Generator: Adobe Illustrator 19.0.0, SVG Export Plug-In . SVG Version: 6.00 Build 0)  -->
<svg version="1.1" id="Capa_1" xmlns="http://www.w3.org/2000/svg" xmlns:xlink="http://www.w3.org/1999/xlink" x="0px" y="0px"
	 viewBox="-183.6 13.3 101.1 111.4" style="enable-background:new -183.6 13.3 101.1 111.4;" xml:space="preserve">
<style type="text/css">
	.st0{fill:#787878;}
</style>
<path class="st0" d="M-104.7,124.7c-9.1,0-16.5-7.4-16.5-16.5c0-1,0.1-2.1,0.3-3.2l-31.7-17.1c-3.4,3.1-7.8,4.8-12.4,4.8
	c-10.2,0-18.5-8.3-18.5-18.5c0-10.2,8.3-18.5,18.5-18.5c4.6,0,9,1.7,12.4,4.8l27-17.6c-0.8-2.4-1.3-4.8-1.3-7.4
	c0-12.3,10-22.2,22.2-22.2c12.3,0,22.2,10,22.2,22.2c0,12.3-10,22.2-22.2,22.2c-6.6,0-13-3-17.2-8.2l-26.3,17.1
	c1,2.3,1.6,4.9,1.6,7.4c0,2.5-0.5,5-1.5,7.3l30.4,16.4c3.1-4,7.9-6.3,13-6.3c9.1,0,16.5,7.4,16.5,16.5S-95.6,124.7-104.7,124.7z
	 M-104.7,99.4c-4.9,0-8.8,4-8.8,8.8s4,8.8,8.8,8.8c2.4,0,4.6-0.9,6.2-2.6c1.7-1.7,2.6-3.9,2.6-6.2C-95.9,103.3-99.9,99.4-104.7,99.4
	z M-165.1,63.5c-5.9,0-10.8,4.8-10.8,10.8c0,5.9,4.8,10.8,10.8,10.8c5.9,0,10.8-4.8,10.8-10.8C-154.3,68.3-159.2,63.5-165.1,63.5z
	 M-104.7,21.1c-8,0-14.5,6.5-14.5,14.5s6.5,14.5,14.5,14.5c8,0,14.5-6.5,14.5-14.5S-96.7,21.1-104.7,21.1z"/>
<path class="st0" d="M-104.7,124.2c-8.8,0-16-7.2-16-16c0-1.1,0.1-2.3,0.4-3.4l-32.4-17.5c-3.4,3.2-7.7,4.9-12.3,4.9
	c-9.9,0-18-8.1-18-18c0-9.9,8.1-18,18-18c4.6,0,9,1.7,12.3,4.9l27.6-18c-0.9-2.4-1.4-5-1.4-7.6c0-12,9.8-21.7,21.7-21.7
	c12,0,21.7,9.8,21.7,21.7s-9.8,21.7-21.7,21.7c-6.6,0-12.9-3.1-17.1-8.3l-27,17.6c1.1,2.4,1.7,5,1.7,7.6c0,2.6-0.6,5.2-1.7,7.5
	l31.2,16.8c3-4.1,7.8-6.5,12.8-6.5c8.8,0,16,7.2,16,16S-95.9,124.2-104.7,124.2z M-104.7,98.9c-5.1,0-9.3,4.2-9.3,9.3
	s4.2,9.3,9.3,9.3c2.5,0,4.8-1,6.6-2.7c1.8-1.8,2.7-4.1,2.7-6.6C-95.4,103.1-99.6,98.9-104.7,98.9z M-165.1,63
	c-6.2,0-11.3,5-11.3,11.3c0,6.2,5,11.3,11.3,11.3s11.3-5,11.3-11.3C-153.8,68-158.9,63-165.1,63z M-104.7,20.6c-8.3,0-15,6.7-15,15
	s6.7,15,15,15c8.3,0,15-6.7,15-15S-96.5,20.6-104.7,20.6z"/>
</svg>
