<?xml version="1.0" encoding="utf-8"?>
<!-- Generator: Adobe Illustrator 19.0.0, SVG Export Plug-In . SVG Version: 6.00 Build 0)  -->
<svg version="1.1" id="Isolation_Mode" xmlns="http://www.w3.org/2000/svg" xmlns:xlink="http://www.w3.org/1999/xlink" x="0px"
	 y="0px" viewBox="0 0 152 124" style="enable-background:new 0 0 152 124;" xml:space="preserve">
<style type="text/css">
	.st0{fill:#754068;}
	.st1{fill:#F4F2F4;}
</style>
<g id="XMLID_47_">
	<path id="XMLID_15_" class="st0" d="M129.2,25.5c0,0-0.6,0.2-1.6,0.5c-1,0.3-2.5,0.9-4.2,1.6c-0.9,0.4-1.8,0.9-2.7,1.5
		c-0.9,0.6-1.9,1.3-2.8,2.1c-1.9,1.6-3.6,3.6-5.4,6.1c-0.9,1.2-1.8,2.6-2.7,4.1c-0.5,0.7-0.9,1.5-1.4,2.3c-0.2,0.4-0.5,0.8-0.7,1.2
		l-0.2,0.3l0,0c0,0-0.1,0.1,0,0l0,0.1l-0.1,0.2c-0.1,0.1-0.1,0.2-0.2,0.3l-0.1,0.2c-0.3,0.6-0.7,1.4-1.1,2.2
		c-0.4,0.9-0.8,1.7-1.2,2.6c-0.9,1.8-1.7,3.8-2.8,5.9c-1.1,2-2.3,4.2-4.1,6.5c-0.9,1.2-2.1,2.4-3.7,3.7l-0.7,0.5l-0.2,0.1
		c-0.2,0.1,0.3-0.1-0.4,0.2l0,0l-0.2,0.1l-0.7,0.4c-0.6,0.4-1.8,0.9-2.5,1.2c-2.9,1.2-5.6,1.7-8.1,2.2c-2.5,0.4-4.9,0.7-7.1,0.9
		L71,72.8c-0.5,0.1-1,0.1-1.4,0.2l-0.6,0.1l0,0c0,0-0.1,0,0.1,0l-0.1,0l-0.2,0l-0.4,0.1l-1.3,0.3c-0.5,0.1-0.9,0.2-1.4,0.3
		c-0.9,0.2-1.8,0.5-2.7,0.8c-1.8,0.5-3.6,1.2-5.5,2c-2.5,1.1-2,0.6-3,1.6c-0.8,0.9-1.6,2.4-2.2,4c-0.7,1.6-1.2,3.4-1.7,5.1
		c-1,3.6-1.7,7.1-2.5,10.5c-0.7,3.3-1.4,6.5-2.2,9.2c-0.8,2.8-1.6,5.2-2.3,7.1c-0.8,1.9-1.6,3.4-2.3,4.3c-0.7,0.9-1.1,1.4-1.1,1.4
		l-0.1,0.1c-0.2,0.2-0.4,0.2-0.6,0c-0.2-0.1-0.2-0.4-0.1-0.6c0,0,0.3-0.5,0.7-1.4c0.4-0.9,0.9-2.4,1.3-4.3c0.9-3.8,1.5-9.5,2-16.3
		c0.3-3.4,0.7-7.1,1.3-11c0.3-1.9,0.7-3.9,1.3-6c0.6-2,1.3-4.1,2.5-6c0.6-0.9,1.4-1.8,2.3-2.6c1-0.8,1.9-1.2,2.9-1.8
		c1.9-1.1,3.9-2.1,6-3c2.1-0.9,4.3-1.6,6.6-2.2c2.3-0.6,4.6-0.8,6.8-1.1c2.3-0.3,4.5-0.6,6.7-0.9c2.2-0.4,4.4-0.8,6.4-1.6
		c0.5-0.2,0.9-0.4,1.4-0.6l0.7-0.4l0.2-0.1l0,0c-0.1,0,0,0,0,0l0.1-0.1l0.3-0.2c0.8-0.6,1.6-1.3,2.2-2.1c1.4-1.6,2.5-3.4,3.6-5.2
		c2.2-3.6,4-7.3,6.3-10.6c2.4-3.2,4.8-6,7.2-8.5c2.5-2.5,5-4.4,7.6-5.7c2.5-1.3,4.9-2,6.9-2.4c2-0.4,3.6-0.4,4.7-0.5
		c1.1,0,1.6,0,1.6,0c0.2,0,0.4,0.2,0.4,0.5c0,0.2-0.1,0.4-0.3,0.4L129.2,25.5z"/>
</g>
<g id="XMLID_50_">
	<path id="XMLID_9_" class="st1" d="M115,32c-5.6-6.7-4.7-16.7,2-22.4c6.7-5.6,22.1-8.5,27.7-1.7c5.6,6.7-0.6,20.5-7.4,26.1
		C130.6,39.7,120.6,38.8,115,32z"/>
	<path id="XMLID_10_" class="st0" d="M116,5.4c3.9-2.7,9.4-4.7,14.9-5.3c7.5-0.8,13.5,1,16.9,5.2c3.5,4.2,4.1,10.3,1.7,17.3
		c-1.9,5.6-5.6,11.1-9.5,14.4c-4.1,3.4-9.2,5-14.5,4.5c-5.3-0.5-10.1-3-13.5-7.1c-7-8.4-5.9-21,2.5-28C114.9,6.2,115.4,5.8,116,5.4z
		 M133.9,31.7c0.3-0.2,0.6-0.4,0.9-0.7c2.9-2.4,5.7-6.7,7.1-10.9c1.4-4.2,1.4-7.7-0.2-9.6c-3.7-4.4-16.5-2.4-22.1,2.3
		c-5,4.2-5.7,11.7-1.5,16.7c0,0,0,0,0,0c2,2.4,4.9,3.9,8,4.2C128.9,33.9,131.6,33.2,133.9,31.7z"/>
</g>
<g id="XMLID_54_">
	<path id="XMLID_5_" class="st1" d="M54.4,35.4c-5.6-6.7-4.7-16.7,2-22.4s22.1-8.5,27.7-1.7s-0.6,20.5-7.4,26.1
		C70,43,60,42.1,54.4,35.4z"/>
	<path id="XMLID_6_" class="st0" d="M55.4,8.8c3.9-2.7,9.4-4.7,14.9-5.3c7.5-0.8,13.5,1,16.9,5.2c3.5,4.2,4.1,10.3,1.7,17.3
		c-1.9,5.6-5.6,11.1-9.5,14.4c-8.4,7-21,5.9-28-2.5l0,0c-7-8.4-5.9-21,2.5-28C54.3,9.5,54.8,9.1,55.4,8.8z M73.3,35
		c0.3-0.2,0.6-0.4,0.9-0.7c2.9-2.4,5.7-6.7,7.1-10.9c1.4-4.2,1.4-7.7-0.2-9.6c-3.7-4.4-16.5-2.4-22.1,2.3c-5,4.2-5.7,11.7-1.5,16.7
		l0,0C61.4,37.5,68.3,38.4,73.3,35z"/>
</g>
<g id="XMLID_53_">
	<path id="XMLID_14_" class="st0" d="M127.8,77.8c0,0-0.1,0.3-0.4,0.9c-0.1,0.3-0.3,0.7-0.5,1.1c-0.2,0.5-0.5,1-0.8,1.6
		c-0.6,1.2-1.3,2.6-2.4,4.1c-1.1,1.6-2.5,3.4-4.7,4.9c-2.1,1.6-5.1,2.6-7.9,2.7c-2.8,0.2-5.3-0.2-7.8-0.4c-2.5-0.3-4.9-0.5-7.4-0.4
		c-0.6,0-1.2,0-1.8,0.1c-0.3,0-0.6,0.1-0.9,0.1l-0.5,0l-0.1,0l-0.1,0c0.2,0,0,0,0.1,0l0,0l-0.2,0l-1,0.2c-0.3,0.1-0.5,0.1-0.8,0.2
		c-0.5,0.1-1,0.4-1.5,0.5c-1,0.5-2,1.1-2.9,1.8c-0.9,0.8-1.8,1.6-2.5,2.6c-1.6,1.9-2.9,4-4.1,6.2c-2.5,4.3-4.6,8.6-6.9,11.9
		c-1.2,1.7-2.4,3.1-3.6,4.2c-1.2,1.1-2.4,2-3.5,2.5c-0.3,0.1-0.5,0.3-0.7,0.4c-0.2,0.1-0.5,0.2-0.7,0.3c-0.4,0.2-0.8,0.3-1.1,0.4
		c-0.6,0.2-0.9,0.3-0.9,0.3s0.3-0.1,0.9-0.4c0.3-0.1,0.6-0.3,1-0.5c0.2-0.1,0.4-0.2,0.6-0.3c0.2-0.1,0.4-0.3,0.7-0.5
		c1-0.6,2-1.6,3.1-2.8c1-1.2,2.1-2.7,3-4.4c1.9-3.4,3.6-7.8,5.6-12.4c1-2.3,2.2-4.7,3.8-7.1c0.8-1.2,1.7-2.3,2.7-3.4
		c1-1.1,2.3-2,3.6-2.8c0.7-0.4,1.3-0.7,2.2-1c0.4-0.1,0.8-0.3,1.1-0.4l1-0.3l0.2-0.1l0.4-0.1l0.5-0.1c0.3-0.1,0.7-0.2,1-0.2
		c0.7-0.1,1.4-0.2,2.1-0.3c2.8-0.4,5.5-0.4,8.1-0.4c2.5,0,4.8,0,6.6-0.3c1.8-0.3,3-1,4-1.9c1-0.9,1.8-2.1,2.4-3.3
		c0.7-1.2,1.1-2.4,1.5-3.3c0.2-0.5,0.3-0.9,0.5-1.3c0.1-0.4,0.3-0.8,0.4-1.1c0.2-0.6,0.3-0.9,0.3-0.9c0.8-2.4,3.3-3.7,5.7-2.9
		c2.4,0.8,3.7,3.3,2.9,5.7C127.9,77.5,127.8,77.6,127.8,77.8L127.8,77.8z"/>
</g>
<g id="XMLID_52_">
	<path id="XMLID_1_" class="st1" d="M116.1,88.1c-5.6-6.7-4.7-16.7,2-22.4c6.7-5.6,22.1-8.5,27.7-1.7c5.6,6.7-0.6,20.5-7.4,26.1
		S121.7,94.9,116.1,88.1z"/>
	<path id="XMLID_2_" class="st0" d="M117.1,61.5c8.5-5.9,24.8-8.5,31.8-0.1c7.5,8.9,0.2,25-7.9,31.8c-4.1,3.4-9.2,5-14.5,4.5
		c-5.3-0.5-10.1-3-13.5-7.1c-3.4-4.1-5-9.2-4.5-14.5c0.5-5.3,3-10.1,7.1-13.5C116.1,62.3,116.6,61.9,117.1,61.5z M135,87.8
		c0.3-0.2,0.6-0.4,0.9-0.7c5.8-4.9,10.4-16.3,6.9-20.5c-3.7-4.4-16.5-2.4-22.1,2.3c-2.4,2-3.9,4.9-4.2,8s0.7,6.2,2.7,8.7
		c0,0,0,0,0,0c2,2.4,4.9,3.9,8,4.2C130,90,132.8,89.3,135,87.8z"/>
</g>
<g id="XMLID_55_">
	<path id="XMLID_13_" class="st0" d="M58,36.7c0,0-0.3,0.2-0.9,0.4c-0.3,0.1-0.7,0.3-1.1,0.5c-0.4,0.2-0.9,0.4-1.3,0.6
		c-1,0.5-2.2,1.1-3.2,1.9c-1.1,0.8-2.1,1.7-2.8,2.8c-0.7,1.1-1.1,2.3-1.4,3.8c-0.2,0.8-0.4,1.6-0.5,2.6c-0.1,0.9-0.3,2-0.4,3.1
		c-0.3,2.2-0.6,4.7-1.2,7.4c-0.3,1.4-0.6,2.7-1.1,4.2c-0.5,1.4-1,2.9-1.7,4.3c-0.3,0.7-0.7,1.4-1.2,2.1l-0.4,0.6l-0.3,0.4L40,71.8
		l-0.5,0.6c-1.1,1.5-2.5,2.9-4.1,4c-1.6,1.2-3.5,2-5.3,2.6c-1.8,0.6-3.5,0.7-5.1,0.8c-1.6,0-3-0.1-4.3-0.3c-1.3-0.2-2.5-0.4-3.5-0.6
		c-2.2-0.5-4-0.9-5.6-1.2c-1.6-0.3-3-0.5-4.3-0.5c-1.3,0-2.5,0.2-3.5,0.5c-1,0.3-1.8,0.7-2.3,1C1,79,0.7,79.2,0.7,79.2l-0.2,0.1
		c-0.2,0.1-0.4,0-0.5-0.2c-0.1-0.1,0-0.3,0-0.4c0,0,0.2-0.3,0.6-0.7c0.4-0.5,1-1.1,1.9-1.9c0.9-0.7,2.1-1.5,3.6-2.1
		c1.5-0.6,3.3-1,5.2-1.1c1.9-0.1,4-0.1,6.2,0c2.2,0.1,4.5,0.2,6.8,0c2.3-0.2,4.6-1,6.4-2.4c1.9-1.4,3.2-3.5,4.3-5.8
		c2.2-4.5,3.1-9.5,4.3-14.1c0.6-2.3,1.3-4.6,2.3-6.6c1-2,2.3-3.8,3.9-5c1.6-1.2,3.3-1.9,4.9-2.3c0.8-0.2,1.5-0.3,2.2-0.5
		c0.7-0.1,1.3-0.2,1.9-0.2c0.6,0,1.1-0.1,1.5-0.1c0.4,0,0.8,0,1.1,0c0.6,0,0.9,0,0.9,0c0.2,0,0.4,0.2,0.4,0.4c0,0.1-0.1,0.3-0.2,0.3
		L58,36.7z"/>
</g>
</svg>
