<?xml version="1.0" encoding="utf-8"?>
<!-- Generator: Adobe Illustrator 19.0.0, SVG Export Plug-In . SVG Version: 6.00 Build 0)  -->
<svg version="1.1" id="Layer_3" xmlns="http://www.w3.org/2000/svg" xmlns:xlink="http://www.w3.org/1999/xlink" x="0px" y="0px"
	 viewBox="0 0 192 192" style="enable-background:new 0 0 192 192;" xml:space="preserve">
<style type="text/css">
	.st0{fill:#FFFFFF;}
</style>
<g id="XMLID_72_">
	<path id="XMLID_14_" class="st0" d="M186.1,154H54.3c-4.3,0-7.7-3.5-7.7-7.7V14.4c0-4.3,3.5-7.7,7.7-7.7h131.8
		c4.3,0,7.7,3.5,7.7,7.7v131.8C193.8,150.5,190.4,154,186.1,154z M56.6,144h127.3V16.7H56.6V144z"/>
</g>
<g id="XMLID_73_">
	<path id="XMLID_13_" class="st0" d="M47.1,193c-5.1,0-9.7-3.3-11.3-8.3l-37-117.8c-0.9-3-0.7-6.2,0.8-9C1,55,3.5,53,6.5,52
		l29.3-9.2c2.6-0.8,5.4,0.6,6.3,3.3c0.8,2.6-0.6,5.4-3.3,6.3L9.5,61.5c-1,0.3-1.5,1.4-1.2,2.4l37,117.8c0.3,1,1.4,1.5,2.4,1.2
		l84.6-26.6c2.6-0.8,5.4,0.6,6.3,3.3c0.8,2.6-0.6,5.4-3.3,6.3l-84.6,26.6C49.4,192.9,48.2,193,47.1,193z"/>
</g>
<g id="XMLID_9_">
	<g id="XMLID_32_">
		<path id="XMLID_8_" class="st0" d="M148.3,122.1h-36.9c-4,0-7.3-3.3-7.3-7.3V72c0-3.6,2.4-5.3,3.3-6c0.1-0.1,0.2-0.1,0.3-0.2
			c2.5-1.9,4.8-5.4,6.1-9.2c0.3-0.9,0.3-3.3,0.3-5.3c0-3.3,0-7.1,1.1-10.4c1.6-4.9,5.5-7.6,10.6-7.6c0,0,0,0,0,0
			c4.7,0,9.5,2.6,12.8,6.9c2.3,3.1,5.7,9.5,4.7,19.9h12c5.9,0,11.4,3.6,14.3,9.3c2.5,4.8,2.7,10.2,0.7,14.6c0.5,2.3,0.5,4.7,0,6.9
			c-0.3,1.4-0.9,2.9-1.6,4.2c-0.2,0.4-0.4,0.7-0.7,1.1c-0.1,6.1-2.1,10-4.4,12.3c-0.5,3.3-2.1,6.7-4.3,9.3
			C156.4,120.9,151,122.1,148.3,122.1z M114,112.1h34.3c0.8,0,2.8-0.6,3.4-1c1.2-1.4,2-3.5,2-5.1c0-1.6,0.8-3,2-3.9
			c1.6-1.2,2.3-3.6,2.1-7.2c-0.1-2,0.9-3.3,1.9-4.5c0.1-0.1,0.1-0.2,0.2-0.3c0.2-0.4,0.4-0.9,0.5-1.3c0.3-1.1,0.1-2.5-0.3-3.7
			c-0.5-1.5-0.3-3.2,0.6-4.5c1.4-2,0.9-4.6-0.1-6.5c-0.9-1.8-2.9-3.9-5.5-3.9h-17.9c-1.5,0-3-0.7-3.9-1.9s-1.3-2.8-1-4.2
			c2.3-10.2-0.2-15.5-1.9-17.8c-1.4-1.8-3.2-2.9-4.8-2.9l0,0c-0.6,0-0.8,0.1-0.8,0.1c-0.9,0.8-0.9,5.8-0.9,7.9c0,3.1,0,6-0.8,8.5
			c-1.9,5.6-5.2,10.5-9.1,13.7V112.1z"/>
	</g>
	<g id="XMLID_31_">
		<path id="XMLID_5_" class="st0" d="M89.3,123.4h-5c-6.6,0-12-5.4-12-12v-37c0-6.6,5.4-12,12-12h5c6.6,0,12,5.4,12,12v37
			C101.3,118,95.9,123.4,89.3,123.4z M84.3,72.4c-1.1,0-2,0.9-2,2v37c0,1.1,0.9,2,2,2h5c1.1,0,2-0.9,2-2v-37c0-1.1-0.9-2-2-2H84.3z"
			/>
	</g>
	<g id="XMLID_30_">
		<path id="XMLID_4_" class="st0" d="M158.7,111h-11.8c-2.8,0-5-2.2-5-5s2.2-5,5-5h11.8c2.8,0,5,2.2,5,5S161.5,111,158.7,111z"/>
	</g>
	<g id="XMLID_29_">
		<path id="XMLID_3_" class="st0" d="M162.9,99.7H147c-2.8,0-5-2.2-5-5s2.2-5,5-5h15.8c2.8,0,5,2.2,5,5S165.6,99.7,162.9,99.7z"/>
	</g>
	<g id="XMLID_10_">
		<path id="XMLID_2_" class="st0" d="M164.7,88.2h-16.8c-2.8,0-5-2.2-5-5s2.2-5,5-5h16.8c2.8,0,5,2.2,5,5S167.5,88.2,164.7,88.2z"/>
	</g>
</g>
</svg>
