<?xml version="1.0" encoding="utf-8"?>
<!-- Generator: Adobe Illustrator 19.0.0, SVG Export Plug-In . SVG Version: 6.00 Build 0)  -->
<svg version="1.1" id="Layer_2" xmlns="http://www.w3.org/2000/svg" xmlns:xlink="http://www.w3.org/1999/xlink" x="0px" y="0px"
	 viewBox="0 0 76.3 87.2" style="enable-background:new 0 0 76.3 87.2;" xml:space="preserve">
<style type="text/css">
	.st0{fill:#F4F2F4;}
	.st1{fill:#754068;}
	.st2{fill:#EAE5E9;}
	.st3{fill:#FFFFFF;}
	.st4{fill:#D9CFD7;}
</style>
<g id="XMLID_4_">
	<path id="XMLID_31_" class="st0" d="M2,34C2.3,16.8,23.3-0.4,46.2,2.3c10.5,1.2,20.5,11.6,24.3,20.9c6.7,16.1,4.2,32.3-5.7,44.2
		c-8.7,10.4-28.9,22.5-44.6,15.9C4.3,76.6,1.8,47.9,2,34z"/>
	<path id="XMLID_32_" class="st1" d="M30,87.2c-3.6,0-7.1-0.6-10.5-2C0.2,77-0.1,41.1,0,33.9l0,0c0.1-8,4.5-16.4,11.9-22.8
		C21.3,2.9,34.2-1.1,46.4,0.3c11.5,1.4,21.9,12.4,26,22.1c6.7,16.3,4.5,33.6-6,46.3C59.2,77.3,44.3,87.2,30,87.2z M4,34
		C3.7,52.4,7.9,75.9,21,81.5c14.3,6,33.7-5,42.3-15.3C73,54.5,75,39.1,68.7,24C65.1,15.2,55.6,5.4,46,4.3C34.9,3,23.1,6.6,14.6,14.1
		C8,19.8,4.1,27.1,4,34L4,34z"/>
</g>
<g id="XMLID_3_">
	<path class="st2" d="M16.2,23c1.5-0.9,3.3-1.4,5.4-1.5c9.6-0.6,14.2,14.1,16.4,21.4c0.8,2.7,1.5,5.6,3.7,7.3c1.3-2.8,1.4-6.1,0.3-9
		c-1.1-2.7-3.3-4.9-4-7.8c-2.8-10.4,16.9-21,23.6-12.8C71,32.2,66.9,50.6,59,61c-6.5,8.6-17,14-28.4,16.8
		c-10.7,2.6-17-11.3-19.5-18.9c-3.6-10.6-3.2-18.3,0.1-29.1C12.2,26.6,13.8,24.4,16.2,23z"/>
</g>
<g id="XMLID_2_">
	<path id="XMLID_25_" class="st3" d="M15.2,58.2c-2.4-2.8-7.1-11.4,1.3-19.7c1.8-1.8,7.5-3.3,11.6-1.6c4.1,1.7,4.8,4.3,6.7,7.9
		c0.9,1.6,2.3,1.1,3.7,0.1c0,0-2.2-1.7-2.4-1.8c-1.5-1.4,1.8-2.4,2.7-1.1c0.3,0.5,0.7,1.1,1,1.9c0.1-0.1,0.3-0.2,0.4-0.3
		c-0.1-0.6-0.1-1.2-0.3-1.4c-0.6-1.2-2.3-0.7-3-1.5c-1.1-1.1,0.6-2.1,1.7-1.9c1.5,0.2,3.4,1.7,3.6,3.1c0.7-0.6,0.6-0.5,1.1-0.6
		c0.7-0.2,2.4,0,4.5,0.5c-0.1-0.4-0.2-0.8-0.3-1.1c-0.8-1.8-4.4-1.7-5.7-3c-1.6-1.5,0.5-3,2-3.4c3.8-0.9,6.5,5.1,6.5,8
		c0,0.1,0,0.2,0,0.2c0.9,0.3,1.8,0.7,2.7,1.1c-0.3-0.2-1.4-4-1.6-4.5c-1-3.1,2.6-4.5,4.1-1.8c1.2,2.1,0.7,5.7-0.3,7.8
		c0.9,0.7,1.5,1.4,2,2.2c2.2,4.2,0.5,10.9-2.3,12.5c-2.8,1.7-10.3,5.2-21.8,3.3C21.4,61.1,17.6,61,15.2,58.2z"/>
	<path id="XMLID_26_" class="st1" d="M39.4,64.4c-2,0-4.2-0.2-6.6-0.5c-1.9-0.3-3.7-0.6-5.2-0.8c-7.7-1.2-10.9-1.7-13.2-4.2
		c-3.2-3.6-7-12.7,1.4-21.1c2-2,8.1-3.8,12.7-1.8c3.7,1.6,4.9,3.9,6.3,6.6c0-0.3,0-0.5,0-0.7c0.1-0.5,0.5-0.9,1-1.1
		c-0.3-0.6-0.3-1.2,0-1.7c0.5-1,2-1.5,3-1.4c1.4,0.2,3.1,1.3,3.9,2.6c0.1,0,0.1,0,0.2-0.1l0.2,0c0.6-0.2,1.5-0.1,2.4,0
		c-0.4-0.2-0.9-0.3-1.4-0.5c-1.1-0.3-2.2-0.7-3-1.4c-1-1-0.9-1.9-0.8-2.4c0.4-1.5,2.2-2.4,3.2-2.6c1.3-0.3,2.7,0,3.9,1
		c1.1,0.9,2.1,2.3,2.8,3.7c0-1.4,0.8-2.4,1.8-2.8c1.3-0.6,3.3-0.3,4.3,1.6c1.3,2.1,1,5.6,0,8c0.7,0.6,1.3,1.3,1.6,2
		c2.4,4.7,0.5,11.9-2.7,13.8C53.1,61.8,47.6,64.4,39.4,64.4z M23.9,37.1c-2.8,0-5.7,1-6.8,2.1c-9.2,9.2-1.6,18-1.3,18.4v0
		c1.8,2,4.6,2.4,12,3.6c1.5,0.2,3.3,0.5,5.2,0.8c11.3,1.8,18.6-1.6,21.2-3.2c2.2-1.3,3.9-7.2,1.9-11.2c-0.3-0.6-0.9-1.2-1.7-1.9
		c-0.4-0.3-0.5-0.8-0.3-1.2c1-1.9,1.4-5.1,0.4-6.8c-0.5-0.9-1.3-1-1.8-0.8c-0.5,0.2-0.9,0.8-0.5,1.8c0,0.1,0.1,0.3,0.2,0.7
		c0.2,0.7,0.9,3,1.2,3.5c0.3,0.3,0.4,0.8,0.2,1.1c-0.3,0.5-0.9,0.7-1.3,0.4c-0.8-0.4-1.6-0.8-2.5-1.1c-0.4-0.1-0.7-0.5-0.7-0.9
		l0-0.2c0-1.7-1.2-5-3.1-6.4c-0.7-0.6-1.5-0.8-2.2-0.6c-0.8,0.2-1.6,0.8-1.8,1.2c0,0.1-0.1,0.2,0.2,0.5c0.4,0.4,1.3,0.7,2.2,0.9
		c1.5,0.5,3.1,1,3.7,2.4c0.1,0.3,0.3,0.7,0.4,1.3c0.1,0.3-0.1,0.7-0.3,0.9c-0.2,0.2-0.6,0.3-0.9,0.2C45.2,42,43.8,42,43.5,42
		c-0.1,0-0.2,0-0.3,0.1c-0.1,0-0.2,0.1-0.4,0.4c-0.3,0.2-0.7,0.3-1,0.2c-0.3-0.1-0.6-0.4-0.7-0.8c-0.1-0.9-1.6-2.1-2.8-2.3
		c-0.3,0-0.6,0.1-0.8,0.2c0,0,0,0,0,0c0.1,0.1,0.5,0.2,0.9,0.3c0.7,0.2,1.8,0.4,2.4,1.5c0.2,0.4,0.3,0.9,0.4,1.8
		c0,0.3-0.1,0.6-0.3,0.8c-0.1,0.1-0.3,0.2-0.4,0.4c-0.3,0.2-0.6,0.3-0.9,0.2c0,0,0,0,0,0c0,0.3-0.1,0.7-0.4,0.9
		c-0.8,0.6-2.1,1.3-3.4,1c-0.8-0.2-1.4-0.7-1.8-1.5c-0.3-0.6-0.6-1.2-0.9-1.7c-1.4-2.7-2.3-4.4-5.3-5.7
		C26.5,37.3,25.2,37.1,23.9,37.1z M35.3,43.7c0.1,0.2,0.2,0.4,0.3,0.6c0.2,0.4,0.4,0.5,0.5,0.5c0.1,0,0.2,0,0.4,0
		c-0.3-0.3-0.7-0.6-1.1-1C35.4,43.7,35.4,43.7,35.3,43.7z M36.9,42.4c0.4,0.3,1.3,1,1.8,1.4c-0.2-0.5-0.5-1-0.7-1.3
		c-0.1-0.1-0.3-0.2-0.5-0.2C37.3,42.3,37.1,42.3,36.9,42.4z"/>
</g>
<g id="XMLID_7_">
	<path class="st4" d="M26.8,56.9c-5.8,0-10.5-4.7-10.5-10.5c0-2.4,0.8-4.7,2.2-6.5c-2.5,1.9-4.1,4.9-4.1,8.3
		c0,5.8,4.7,10.5,10.5,10.5c3.4,0,6.4-1.6,8.3-4.1C31.5,56.1,29.3,56.9,26.8,56.9z"/>
</g>
<g id="XMLID_1_">
	<path id="XMLID_23_" class="st3" d="M47.9,57.6c0.7-0.1,1.4-0.2,2.1-0.5c0.4-0.2,0.9-0.4,1.3-0.7c2.3-1.5,3.7-4.2,3.4-7.1"/>
	<path id="XMLID_24_" class="st1" d="M47.9,58.4c-0.4,0-0.8-0.3-0.8-0.7c0-0.4,0.3-0.8,0.7-0.9c0.6-0.1,1.3-0.2,1.9-0.5
		c0.4-0.2,0.8-0.4,1.1-0.6c2.1-1.4,3.3-3.8,3.1-6.3c0-0.4,0.3-0.8,0.7-0.9c0.4,0,0.8,0.3,0.9,0.7c0.3,3.1-1.2,6.1-3.8,7.8
		c-0.4,0.3-0.9,0.5-1.4,0.7C49.6,58.1,48.8,58.3,47.9,58.4C48,58.4,48,58.4,47.9,58.4z"/>
</g>
<g id="XMLID_6_">
	<path id="XMLID_21_" class="st3" d="M43.1,58.2c0.7,0,1.5-0.1,2.1-0.2"/>
	<path id="XMLID_22_" class="st1" d="M43.3,59c-0.1,0-0.2,0-0.2,0c-0.4,0-0.8-0.4-0.8-0.8c0-0.4,0.4-0.8,0.8-0.8c0,0,0,0,0,0
		c0.6,0,1.3-0.1,1.9-0.2c0.4-0.1,0.9,0.1,1,0.6c0.1,0.4-0.1,0.9-0.6,1C44.7,58.9,44,59,43.3,59z"/>
</g>
<g id="XMLID_10_">
	<path class="st2" d="M36.5,9.3c7.4,0,15.8,3.8,22.1,6.6C54.2,9.2,46.6,4.8,38,4.8c-8.5,0-16,4.3-20.4,10.8
		C23.8,12.9,29.3,9.3,36.5,9.3z"/>
</g>
</svg>
