<?xml version="1.0" encoding="utf-8"?>
<!-- Generator: Adobe Illustrator 19.0.0, SVG Export Plug-In . SVG Version: 6.00 Build 0)  -->
<svg version="1.1" id="Layer_1" xmlns="http://www.w3.org/2000/svg" xmlns:xlink="http://www.w3.org/1999/xlink" x="0px" y="0px"
	 viewBox="0 0 290.4 70" style="enable-background:new 0 0 290.4 70;" xml:space="preserve">
<style type="text/css">
	.st0{fill:#FFFFFF;}
</style>
<g id="XMLID_1_">
	<path id="XMLID_2_" class="st0" d="M28.1,1.5c0.2,0.4,0.3,0.7,0.3,1c0,0.3,0,0.7,0,1.1c0,2-0.1,4-0.2,6c-0.2,2-0.3,4.1-0.4,6.1
		c-0.1,2.2-0.2,4.4-0.1,6.7c0.1,2.2-0.1,4.4-0.4,6.7c-0.1,1.2-0.2,2.4-0.3,3.5c-0.1,1.1-0.1,2.3-0.2,3.5c-0.1,1.4-0.1,2.9-0.1,4.5
		s-0.1,3.2-0.2,4.8c-0.2,1.6-0.4,3.2-0.7,4.7c-0.3,1.5-0.9,2.9-1.6,4.2c-1,1.7-2.5,3.1-4.3,4.1c-1.9,1.1-3.8,1.6-5.7,1.6
		c-1,0-2.1-0.1-3.1-0.4C10.1,59.4,9,59,8.1,58.5s-1.9-1.1-2.8-1.8c-0.9-0.7-1.6-1.5-2.1-2.3c-1.2-1.9-1.9-3.9-2.2-6.1
		c-0.3-2.2-0.5-4.4-0.6-6.5c-0.1-1.7-0.2-3.4-0.3-5.1C0,35,0,33.4,0,31.7c0-0.5,0.1-0.9,0.4-1.2c0.2-0.2,0.5-0.4,0.9-0.5
		C1.6,30,2,30,2.5,30c0.5,0,0.9,0,1.3,0c0.5,0,1,0,1.6,0s1.1,0.1,1.7,0.2l0.6,0.6C7.9,32.4,8,34.1,8,35.8c0,1.7,0,3.4,0,5.1
		c0.1,1.7,0.3,3.4,0.6,5c0.4,1.6,1,3,2,4.3h-0.1c0.6,0.7,1.3,1.1,2.2,1.1c1,0,1.7-0.2,2.3-0.6c0.6-0.4,1.1-0.9,1.5-1.6
		c0.4-0.6,0.8-1.3,1-2.1c0.2-0.8,0.5-1.5,0.7-2.3l-0.1,0.1c0.3-1.4,0.5-2.7,0.7-3.9c0.2-1.2,0.3-2.5,0.3-3.9c0-4.8-0.1-9.7-0.4-14.7
		c-0.3-5-0.4-10-0.4-14.9c0-1,0-2,0-2.9c0-0.9,0.2-1.7,0.4-2.3c0.3-0.7,0.8-1.2,1.4-1.6C21,0.2,22,0,23.2,0c1,0,1.8,0.1,2.7,0.3
		C26.7,0.4,27.4,0.9,28.1,1.5z"/>
	<path id="XMLID_4_" class="st0" d="M59.2,19.6c0,3.2,0,6.5-0.1,9.8c-0.1,3.3-0.1,6.6-0.1,9.9c0,2.5,0.2,5.3,0.5,8.4
		c0.4,3.1,0.5,5.9,0.5,8.6c0,0.9-0.1,1.6-0.2,2.1c-0.2,0.5-0.4,0.8-0.7,1c-0.3,0.2-0.7,0.3-1.2,0.3c-0.5,0-1.1,0-1.7,0
		c-1,0-1.9,0-2.5-0.1c-0.7-0.1-1.2-0.6-1.6-1.6c-0.5,0.4-0.9,0.6-1.3,0.9c-0.4,0.2-0.7,0.4-1.1,0.5c-0.4,0.1-0.7,0.2-1.1,0.3
		c-0.4,0.1-0.9,0.2-1.5,0.3h0.1c-0.7,0.2-1.5,0.3-2.3,0.3c-2,0-3.9-0.5-5.6-1.4c-1.7-0.9-3.1-2.2-4.2-3.8V55c-0.6-0.8-1-1.5-1.2-2.3
		c-0.2-0.7-0.4-1.5-0.8-2.4l0.1,0.1c-0.2-0.7-0.4-1.7-0.6-3.1c-0.2-1.4-0.3-3-0.3-4.7s-0.1-3.5-0.1-5.2c0-1.8,0-3.3,0-4.5v-7.3
		c0-1.4,0-2.7,0-4.1c0-1.4,0.1-2.7,0.3-4.1c1.3-0.5,2.6-0.8,4-0.8c0.6,0,1.2,0,1.8,0c0.6,0,1.1,0.2,1.5,0.4c0.4,0.2,0.8,0.6,1,1
		c0.3,0.5,0.4,1.1,0.4,2c0,4.1-0.2,8.3-0.5,12.4c-0.4,4.1-0.5,8.3-0.5,12.4c0,1.7,0.4,3.1,1.1,4.1c0.7,1.1,2,1.6,3.9,1.6
		c0.5,0,1-0.1,1.5-0.2c0.5-0.1,1-0.3,1.5-0.6l-0.1,0.1c0.5-0.3,1-0.9,1.3-1.7c0.3-0.8,0.5-1.7,0.7-2.6c0.1-0.9,0.2-1.9,0.3-2.9
		c0-1,0-1.8,0-2.5c0-3.5-0.2-7.1-0.5-10.6c-0.3-3.5-0.5-7-0.5-10.6c0-0.6,0.2-1.1,0.5-1.4c0.3-0.4,0.8-0.6,1.3-0.8s1.1-0.3,1.8-0.4
		c0.6-0.1,1.2-0.1,1.8-0.1c1.1,0,2,0.1,2.6,0.2c0.6,0.1,1,0.3,1.3,0.5c0.3,0.2,0.4,0.6,0.5,1C59.2,18.5,59.2,19,59.2,19.6z"/>
	<path id="XMLID_6_" class="st0" d="M82,37.1c1.1,1,2.1,2,3,3.2c0.9,1.1,1.6,2.4,2.2,3.6c0.6,1.3,0.9,2.7,0.9,4.1
		c0,1.2-0.2,2.5-0.5,3.9c-0.4,1.4-0.9,2.6-1.6,3.6v-0.1c-1,1.6-2.4,2.7-4.1,3.6s-3.5,1.2-5.4,1.2c-3.4,0-6.5-1.1-9.2-3.2V57
		c-0.2-0.2-0.5-0.4-0.9-0.8c-0.4-0.3-0.7-0.7-1-1.1c-0.3-0.4-0.6-0.8-0.8-1.3c-0.2-0.4-0.4-0.8-0.4-1.1c0.2-0.4,0.5-0.8,1-1.3
		c0.5-0.5,1-0.9,1.6-1.4c0.6-0.4,1.2-0.8,1.8-1.1c0.6-0.3,1.1-0.4,1.5-0.4c0.3,0,0.7,0.2,1.2,0.5c0.5,0.4,1,0.8,1.6,1.2
		c0.6,0.5,1.2,0.9,1.9,1.2c0.7,0.4,1.3,0.5,2.1,0.5c0.7,0,1.2-0.5,1.6-1.3c0.4-0.9,0.6-1.6,0.6-2.2c0-0.9-0.3-1.8-0.8-2.7
		c-0.5-0.9-1.1-1.8-1.8-2.6c-0.7-0.8-1.5-1.6-2.3-2.3c-0.8-0.7-1.5-1.3-2.2-1.8c-1.1-0.8-2.1-1.6-3-2.3c-0.9-0.7-1.7-1.5-2.3-2.3
		c-0.6-0.8-1.1-1.8-1.4-2.8c-0.3-1-0.5-2.4-0.5-3.9c0-1.6,0.3-3,0.9-4.4c0.6-1.4,1.5-2.6,2.6-3.6c1.1-1,2.3-1.9,3.7-2.5
		c1.4-0.6,2.8-0.9,4.4-0.9c1,0,1.9,0.2,2.7,0.5v-0.1c0.7,0.2,1.4,0.4,2.3,0.8c0.9,0.4,1.7,0.8,2.5,1.3c0.8,0.5,1.4,1.1,2,1.7
		c0.5,0.6,0.8,1.2,0.8,1.8c-0.2,0.4-0.6,0.8-1.1,1.3c-0.5,0.5-1.1,1-1.7,1.4c-0.6,0.5-1.2,0.9-1.8,1.2c-0.6,0.3-1.1,0.5-1.4,0.5
		c-0.2,0-0.4-0.1-0.6-0.3c-0.2-0.2-0.5-0.4-0.9-0.7c-0.4-0.3-0.8-0.5-1.3-0.7c-0.5-0.2-1-0.3-1.5-0.3c-0.9,0-1.6,0.3-2,0.9
		c-0.4,0.6-0.6,1.3-0.6,2.2c0,0.7,0.2,1.4,0.5,2.1c0.3,0.7,0.8,1.3,1.3,1.8c0.5,0.5,1,1,1.6,1.5c0.6,0.5,1.1,0.9,1.7,1.3h-0.1
		C79.8,35.3,80.9,36.1,82,37.1z"/>
	<path id="XMLID_8_" class="st0" d="M104.5,9.7c0.1,1.4,0.2,2.9,0.3,4.4c0.1,1.5,0.2,3,0.3,4.5c1.1,0.1,2.3,0.2,3.3,0.1
		c1.1,0,2.2,0.1,3.2,0.4l-0.1,0.9c0.3,1,0.4,2,0.4,2.8c0,1.4-0.4,2.2-1.1,2.5c-0.7,0.3-1.6,0.4-2.7,0.4h-3.3
		c-0.1,0.8-0.1,1.7-0.1,2.5c0,0.8,0,1.6,0,2.5c0,1.1,0,2.4,0,3.9c0,1.5,0,3,0,4.6c0,1.6,0,3.1,0.1,4.7c0.1,1.5,0.1,2.9,0.3,4.1
		c0.1,1.2,0.3,2.2,0.5,3c0.2,0.8,0.5,1.2,0.9,1.3c0.4-0.1,0.7-0.3,0.9-0.5c0.1-0.2,0.5-0.4,1.1-0.4c0.2,0,0.5,0.2,1.1,0.5
		c0.5,0.4,1.1,0.8,1.7,1.2c0.6,0.4,1.1,0.9,1.5,1.3s0.7,0.7,0.7,0.9c0,0.8-0.2,1.5-0.7,2.1c-0.5,0.6-1,1.1-1.7,1.5
		c-0.7,0.4-1.4,0.7-2.2,0.9c-0.8,0.2-1.5,0.3-2.2,0.3c-0.7,0-1.5-0.2-2.3-0.5c-0.8-0.3-1.6-0.6-2.3-0.9l-0.4-0.1
		c-1-0.6-1.8-1.4-2.4-2.4c-0.6-1-1-2.1-1.3-3.2c-0.3-1.2-0.4-2.4-0.5-3.6c-0.1-1.2-0.1-2.4-0.1-3.5c0-3.2,0-6.4-0.1-9.8
		c-0.1-3.3-0.3-6.7-0.7-10c-0.2-0.1-0.4-0.1-0.6-0.1c-0.2,0-0.4,0-0.6,0c-0.3,0-0.6,0-0.8,0c-0.2,0-0.5,0-0.8,0
		c-0.5,0-0.9-0.5-1.2-1.5c-0.3-1-0.4-2.1-0.4-3.2c0-1,0.1-1.7,0.4-2.1c0.2-0.5,0.6-0.7,0.9-0.8c0.4-0.1,0.8-0.1,1.3,0
		c0.5,0.1,0.9,0.1,1.4,0.1c0-1.1,0-2.1,0-3.1c0-1,0-2,0-3.1c0-1,0.1-1.7,0.5-2.2c0.3-0.5,0.7-0.9,1.1-1.1c0.5-0.2,1-0.3,1.6-0.3
		c0.6,0,1.2,0,1.8,0c0.4,0,0.9,0.1,1.3,0.2C102.9,8.9,103.6,9.2,104.5,9.7z"/>
	<path id="XMLID_10_" class="st0" d="M159.1,52.2c0,0.3,0,0.7,0,1.1c0,0.4,0,0.9,0,1.3c0,1-0.2,2-0.4,3c-0.3,1-1,1.4-2.2,1.4
		c-0.5,0-1,0.1-1.5,0.4c-0.5,0.2-1,0.4-1.6,0.4c-0.5,0-0.9-0.1-1.3-0.4c-0.4-0.2-0.7-0.6-0.8-1.1c-0.7,0.3-1.4,0.6-2.1,0.9
		c-0.8,0.3-1.5,0.5-2.3,0.5c-2,0-3.7-0.6-5.1-1.7c-1.4-1.1-2.6-2.5-3.5-4.1c-0.9-1.6-1.6-3.5-2-5.4c-0.4-1.9-0.6-3.8-0.6-5.5
		c0-1.3,0.2-2.8,0.5-4.5c0.4-1.7,0.9-3.2,1.7-4.5c0.7-1.4,1.7-2.5,2.9-3.5c1.2-1,2.6-1.4,4.3-1.4c1.7,0,3.7,0.6,5.8,1.7
		c0.4-0.8,0.6-1.6,0.6-2.6c0-0.7-0.2-1.4-0.5-2.2c-0.3-0.7-0.8-1.2-1.5-1.5h0.1c-0.1-0.1-0.3-0.2-0.5-0.2c-0.5,0-0.9,0.3-1.2,0.8
		c-0.2,0.5-0.4,1-0.5,1.4c0,0.3-0.2,0.5-0.4,0.7c-0.3,0.2-0.6,0.3-1,0.4c-0.4,0.1-0.8,0.2-1.3,0.2c-0.5,0.1-0.8,0.1-1.1,0.1
		c-0.3,0-0.7,0-1.1,0c-0.4,0-0.8,0-1.3-0.1s-0.8-0.2-1.1-0.5c-0.3-0.2-0.4-0.5-0.4-0.9c0-1.3,0.3-2.6,0.9-4c0.6-1.3,1.4-2.5,2.4-3.5
		c1-1,2.2-1.8,3.4-2.4c1.3-0.6,2.6-0.9,4-0.9c2,0,3.6,0.5,4.8,1.6c1.2,1.1,2.1,2.4,2.8,4c0.7,1.6,1.1,3.3,1.4,5.1
		c0.2,1.8,0.3,3.5,0.3,5c0,1.9-0.1,3.8-0.3,5.8c-0.2,1.9-0.3,4-0.3,6.2V52.2z M147.1,51.3c0.8,0,1.5-0.3,2.1-0.8
		c0.5-0.6,1-1.3,1.3-2.1c0.3-0.8,0.6-1.6,0.7-2.5c0.1-0.9,0.2-1.6,0.2-2.2c0-0.5,0-1.2,0-1.9c0-0.7-0.1-1.4-0.3-2.1
		c-0.2-0.7-0.4-1.4-0.7-1.9c-0.3-0.6-0.8-1-1.4-1.2c-0.3,0-0.7,0.1-1.3,0.2c-0.5,0.1-1.1,0.4-1.6,0.9s-1,1.1-1.3,2.1
		c-0.4,0.9-0.6,2.2-0.6,3.8v1c0,0.4,0,1,0.1,1.8c0.1,0.8,0.2,1.5,0.4,2.3c0.2,0.7,0.4,1.4,0.8,2C145.9,51,146.4,51.3,147.1,51.3z"/>
	<path id="XMLID_13_" class="st0" d="M207.6,41.3c0,1.7-0.1,3.4-0.2,5.1s-0.5,3.4-1.1,4.9c-0.6,1.5-1.4,2.9-2.5,4.1
		c-1.1,1.2-2.6,2.1-4.5,2.6c-1.3,0.4-3,0.8-4.9,1.3c-2,0.5-3.7,0.7-5.4,0.7h-2.4c-0.4,0-0.8,0-1.2,0s-0.8,0-1.2,0.1
		c-0.7-0.8-1.1-1.8-1.3-3s-0.3-2.3-0.3-3.5c0-8.6-0.1-17.3-0.3-26.1c-0.2-8.8,0.1-17.4,0.8-25.6c1.6-0.3,3.1-0.6,4.6-0.9
		c1.5-0.3,3-0.5,4.6-0.5c4.5,0,8,1,10.6,3.1c2.6,2,3.9,5.1,3.9,9.1c0,2-0.4,4-1.2,5.9c-0.8,1.9-1.8,3.7-3.1,5.2
		c1.4,1.1,2.5,2.2,3.2,3.3c0.7,1.1,1.2,2.4,1.5,3.8c0.3,1.4,0.5,3,0.5,4.6C207.6,37.2,207.6,39.1,207.6,41.3z M199.5,37.8
		c0-1.1,0-2.2,0-3.3c0-1.1-0.2-2.1-0.5-2.9c-0.3-0.8-0.8-1.5-1.6-2.1c-0.8-0.5-1.9-0.8-3.4-0.8c-0.4,0-0.8,0-1.3,0
		c-0.4,0-0.9,0.1-1.3,0.2c0,1.8,0,3.6,0,5.4c0,1.8,0,3.5,0,5.3s0,3.5,0.1,5.2c0.1,1.7,0.2,3.5,0.4,5.2c0.9-0.2,1.9-0.3,3.1-0.4
		c1.1-0.1,2-0.5,2.7-1.1c0.3-0.2,0.6-0.9,0.8-1.8c0.2-1,0.5-2.1,0.6-3.2c0.2-1.2,0.3-2.3,0.4-3.4S199.5,38.2,199.5,37.8z
		 M198.4,13.4c0-1.6-0.3-2.8-1-3.7c-0.7-0.9-1.8-1.4-3.5-1.4c-0.3,0-0.6,0-1,0c-0.4,0-0.7,0-1.1,0h-0.4c0.1,1,0.1,2.2,0.1,3.6
		c0,1.4,0.1,2.8,0.1,4.2c0,1.4,0.1,2.5,0.1,3.5c0.1,1,0.1,1.5,0.2,1.5c0.8,0,1.6-0.2,2.3-0.6c0.7-0.4,1.3-0.9,1.8-1.4
		c0.5-0.5,0.9-1,1.1-1.4c0.3-0.4,0.4-0.7,0.5-0.8c0.3-0.5,0.5-1.1,0.6-1.7C198.3,14.6,198.4,14,198.4,13.4z"/>
	<path id="XMLID_17_" class="st0" d="M234.2,52.2c0,0.3,0,0.7,0,1.1c0,0.4,0,0.9,0,1.3c0,1-0.2,2-0.4,3c-0.3,1-1,1.4-2.2,1.4
		c-0.5,0-1,0.1-1.5,0.4c-0.5,0.2-1,0.4-1.6,0.4c-0.5,0-0.9-0.1-1.3-0.4c-0.4-0.2-0.7-0.6-0.8-1.1c-0.7,0.3-1.4,0.6-2.1,0.9
		c-0.8,0.3-1.5,0.5-2.3,0.5c-2,0-3.7-0.6-5.1-1.7c-1.4-1.1-2.6-2.5-3.5-4.1c-0.9-1.6-1.6-3.5-2-5.4c-0.4-1.9-0.6-3.8-0.6-5.5
		c0-1.3,0.2-2.8,0.5-4.5c0.4-1.7,0.9-3.2,1.7-4.5c0.7-1.4,1.7-2.5,2.9-3.5c1.2-1,2.6-1.4,4.3-1.4c1.7,0,3.7,0.6,5.8,1.7
		c0.4-0.8,0.6-1.6,0.6-2.6c0-0.7-0.2-1.4-0.5-2.2c-0.3-0.7-0.8-1.2-1.5-1.5h0.1c-0.1-0.1-0.3-0.2-0.5-0.2c-0.5,0-0.9,0.3-1.2,0.8
		c-0.2,0.5-0.4,1-0.5,1.4c0,0.3-0.2,0.5-0.4,0.7c-0.3,0.2-0.6,0.3-1,0.4c-0.4,0.1-0.8,0.2-1.3,0.2c-0.5,0.1-0.8,0.1-1.1,0.1
		c-0.3,0-0.7,0-1.1,0c-0.4,0-0.8,0-1.3-0.1s-0.8-0.2-1.1-0.5c-0.3-0.2-0.4-0.5-0.4-0.9c0-1.3,0.3-2.6,0.9-4c0.6-1.3,1.4-2.5,2.4-3.5
		c1-1,2.2-1.8,3.4-2.4c1.3-0.6,2.6-0.9,4-0.9c2,0,3.6,0.5,4.8,1.6c1.2,1.1,2.1,2.4,2.8,4c0.7,1.6,1.1,3.3,1.4,5.1
		c0.2,1.8,0.3,3.5,0.3,5c0,1.9-0.1,3.8-0.3,5.8c-0.2,1.9-0.3,4-0.3,6.2V52.2z M222.1,51.3c0.8,0,1.5-0.3,2.1-0.8
		c0.5-0.6,1-1.3,1.3-2.1c0.3-0.8,0.6-1.6,0.7-2.5c0.1-0.9,0.2-1.6,0.2-2.2c0-0.5,0-1.2,0-1.9c0-0.7-0.1-1.4-0.3-2.1
		c-0.2-0.7-0.4-1.4-0.7-1.9c-0.3-0.6-0.8-1-1.4-1.2c-0.3,0-0.7,0.1-1.3,0.2c-0.5,0.1-1.1,0.4-1.6,0.9s-1,1.1-1.3,2.1
		c-0.4,0.9-0.6,2.2-0.6,3.8v1c0,0.4,0,1,0.1,1.8c0.1,0.8,0.2,1.5,0.4,2.3c0.2,0.7,0.4,1.4,0.8,2C220.9,51,221.5,51.3,222.1,51.3z"/>
	<path id="XMLID_20_" class="st0" d="M247.9,58.1c0,0.5-0.2,0.8-0.5,1.1c-0.3,0.2-0.7,0.4-1.2,0.5c-0.5,0.1-1,0.2-1.5,0.2
		s-0.9,0-1.3,0c-1.4,0-2.3-0.2-2.8-0.5c-0.5-0.4-0.8-1.2-0.8-2.5c0-4.5-0.1-9-0.4-13.5c-0.3-4.5-0.4-9-0.4-13.5
		c0-3.1,0.1-6.3,0.5-9.4c0.3-3.2,0.5-6.3,0.5-9.3c0-0.7,0-1.3-0.1-1.8c-0.1-0.6-0.1-1.2-0.1-1.8c0-1.7,0.3-2.9,0.9-3.6
		s1.8-0.9,3.5-0.9c1.4,0,2.4,0.4,3,1.2c0.5,0.8,0.8,1.9,0.8,3.2c0,1.1-0.1,2.2-0.3,3.1v-0.1c-0.1,0.5-0.2,0.9-0.2,1.3
		c0,0.4,0,0.8,0,1.3v2.5c0,0.3,0,0.6,0,0.9c0,0.3,0,0.6-0.1,0.9c0.9-0.2,1.9-0.4,3-0.4c2.2,0,4.1,0.4,5.6,1.3c1.5,0.9,2.8,2,3.7,3.4
		c0.9,1.4,1.6,3,2,4.9c0.4,1.8,0.6,3.7,0.6,5.7c0,1.7-0.1,3.4-0.2,5.1c-0.2,1.7-0.3,3.4-0.6,5.1c-0.2,1.6-0.5,3.4-0.7,5.2
		c-0.2,1.9-0.7,3.6-1.4,5.1c-0.7,1.5-1.8,2.8-3.2,3.8c-1.4,1-3.5,1.5-6.3,1.5c-0.4,0-0.7,0-1,0C248.6,58.2,248.2,58.2,247.9,58.1z
		 M246.7,28.8c0,0.4,0,1.1,0,2.1c0,1,0,2.2,0,3.6c0,1.4,0.1,2.9,0.1,4.4c0.1,1.5,0.1,3,0.2,4.3c0.1,1.3,0.1,2.5,0.3,3.5
		c0.1,1,0.3,1.6,0.5,1.8v-0.1c0.3,0.5,0.7,0.9,1.2,1.1c0.5,0.2,1,0.3,1.6,0.3c1.1,0,1.9-0.8,2.4-2.3c0.5-1.6,0.9-3.4,1-5.6
		c0.2-2.2,0.3-4.5,0.2-6.8c0-2.4,0-4.3,0-5.9c0-1.2-0.3-2.3-0.8-3.2c-0.5-0.9-1.5-1.3-2.8-1.3c-1.2,0-2.1,0.4-2.8,1.2
		C247,26.7,246.7,27.7,246.7,28.8z"/>
	<path id="XMLID_23_" class="st0" d="M272.5,68c-0.5-0.4-0.9-0.7-1.2-1c-0.3-0.3-0.5-0.8-0.7-1.4c0.2-0.4,0.3-0.7,0.5-1
		c0.1-0.3,0.3-0.6,0.5-0.9h-0.1l0.2-0.2l0.2-0.3c0.3-0.6,0.8-1.3,1.4-2c0.6-0.8,1.3-1.2,2-1.4l1.4,0.9h-0.1c0.3,0.2,0.6,0.5,0.9,0.7
		c0.3,0.2,0.7,0.3,1.1,0.3c0.8,0,1.4-0.4,1.8-1.1c0.4-0.7,0.6-1.4,0.7-2.1c-0.7,0.2-1.6,0.4-2.5,0.4c-2.8,0-5-0.8-6.6-2.5
		s-2.8-3.7-3.6-6.2c-0.8-2.5-1.3-5.1-1.5-8.1c-0.2-2.9-0.3-5.6-0.3-8.1v-4.4c0-1.6-0.1-3.3-0.2-4.9c-0.1-1.7-0.2-3.3-0.2-5
		c0-0.5,0.1-1.2,0.2-1.9c0.1-0.7,0.3-1.3,0.6-1.7c0.5,0.1,1,0.1,1.5,0.1c0.5,0,1,0,1.6,0c0.5,0,1,0,1.5,0c0.5,0,1-0.1,1.5-0.1
		c0.7,1.7,1,3.5,1,5.4c0,0.8,0,1.7,0,2.4c0,0.8,0,1.6,0,2.4c0,1.7,0,3.8,0.1,6.3c0.1,2.5,0.3,4.8,0.5,7.2c0.3,2.3,0.7,4.3,1.3,5.9
		c0.6,1.6,1.3,2.4,2.3,2.4c0.9,0,1.6-0.4,2.1-1.1s0.9-1.6,1.1-2.7c0.2-1.1,0.3-2.2,0.4-3.4c0.1-1.2,0.1-2.3,0.1-3.2
		c0-2.6,0-5.3-0.1-7.9s-0.2-5.2-0.3-7.9v-0.4c0-0.2,0-0.4,0-0.6c0-0.2,0-0.4,0-0.6c0-0.1,0-0.3,0-0.5c0-0.2,0-0.4,0-0.5
		c-0.1-0.2-0.1-0.4-0.1-0.6c0-0.2,0-0.4,0-0.6c0-0.5,0.1-1,0.5-1.3c0.3-0.3,0.7-0.5,1.1-0.7c0.5-0.1,0.9-0.3,1.4-0.3
		c0.5-0.1,1-0.1,1.4-0.1c0.6,0,1.2,0,1.7,0.1c0.5,0.1,1.1,0.1,1.8,0.2c0.3,1.4,0.5,2.8,0.7,4.3c0.1,1.5,0.2,2.9,0.2,4.4
		c0,1.3,0,2.6,0,3.9c0,1.3,0,2.6,0,3.9c0,1.4,0,2.7,0,4.1c0,1.4,0,2.7,0,4.1c0,1,0,2.3,0.1,4.1c0.1,1.8,0,3.8-0.1,5.9
		c-0.2,2.2-0.4,4.4-0.9,6.6s-1.1,4.3-2.1,6.2c-1,1.9-2.3,3.4-3.9,4.5s-3.7,1.8-6.1,1.8c-0.3,0-0.7-0.1-1.1-0.2
		c-0.5-0.2-0.9-0.3-1.4-0.6c-0.5-0.2-1-0.5-1.4-0.7c-0.5-0.2-0.8-0.4-1-0.6L272.5,68z"/>
</g>
</svg>
